<?xml version="1.0" encoding="UTF-8" standalone="no"?>
<svg
   width="1024"
   zoomAndPan="magnify"
   viewBox="0 0 768.38332 767.99511"
   height="1023.9935"
   preserveAspectRatio="xMidYMid"
   version="1.0"
   id="svg122"
   xmlns="http://www.w3.org/2000/svg"
   xmlns:svg="http://www.w3.org/2000/svg">
  <defs
     id="defs5">
    <g
       id="g1" />
    <clipPath
       id="fb5f73d782">
      <path
         d="M 0.226562,0 H 841.61328 V 1189.5 H 0.226562 Z m 0,0"
         clip-rule="nonzero"
         id="path1" />
    </clipPath>
    <clipPath
       id="fb9cd65b6d">
      <path
         d="M 114.67188,102.79297 H 727.14062 V 715.25781 H 114.67188 Z m 0,0"
         clip-rule="nonzero"
         id="path2" />
    </clipPath>
    <clipPath
       id="aa673c0899">
      <path
         d="m 420.90625,715.25781 c -81.76172,0 -158.75,-31.82031 -216.51953,-89.71484 -57.89453,-57.76953 -89.71484,-134.75781 -89.71484,-216.51953 0,-81.75782 31.82031,-158.7461 89.71484,-216.51563 57.76953,-57.89453 134.75781,-89.71484 216.51953,-89.71484 81.75781,0 158.74609,31.82031 216.51562,89.71484 57.89454,57.89063 89.71875,134.75781 89.71875,216.51563 0,81.76172 -31.82421,158.75 -89.71875,216.51953 -57.76953,57.89453 -134.75781,89.71484 -216.51562,89.71484 z m 0,-594.10547 c -76.86719,0 -149.20313,29.98438 -203.54688,84.32813 -54.34375,54.34375 -84.32812,126.67969 -84.32812,203.54297 0,76.86718 29.98437,149.20312 84.32812,203.54687 54.34375,54.34375 126.67969,84.32813 203.54688,84.32813 76.86328,0 149.19922,-29.98438 203.54297,-84.32813 54.34375,-54.34375 84.33203,-126.67969 84.33203,-203.54687 0,-76.86328 -29.98828,-149.19922 -84.33203,-203.54297 -54.34375,-54.34375 -126.67969,-84.32813 -203.54297,-84.32813 z m 0,0"
         clip-rule="nonzero"
         id="path3" />
    </clipPath>
    <clipPath
       id="92170ef3e1">
      <path
         d="M 166.00781,396.36719 H 675.6875 V 586.75 H 166.00781 Z m 0,0"
         clip-rule="nonzero"
         id="path4" />
    </clipPath>
    <clipPath
       id="028b8bf93d">
      <path
         d="M 204.79687,192.91797 H 637.27734 V 625.39453 H 204.79687 Z m 0,0"
         clip-rule="nonzero"
         id="path5" />
    </clipPath>
  </defs>
  <g
     fill="#27498c"
     fill-opacity="1"
     id="g24"
     transform="matrix(1.2545674,0,0,1.2545674,-143.8636,-129.25774)">
    <g
       transform="translate(428.02675,673.81306)"
       id="g23">
      <g
         id="g22" />
    </g>
  </g>
  <g
     fill="#27498c"
     fill-opacity="1"
     id="g65"
     transform="matrix(1.2545674,0,0,1.2545674,-143.8636,-129.25774)">
    <g
       transform="translate(359.70179,175.725)"
       id="g64">
      <g
         id="g63" />
    </g>
  </g>
  <g
     fill="#27498c"
     fill-opacity="1"
     id="g89"
     transform="matrix(1.2545674,0,0,1.2545674,-143.8636,-129.25774)">
    <g
       transform="translate(599.61017,250.50498)"
       id="g88">
      <g
         id="g87" />
    </g>
  </g>
  <g
     fill="#27498c"
     fill-opacity="1"
     id="g110"
     transform="matrix(1.2545674,0,0,1.2545674,-143.8636,-129.25774)">
    <g
       transform="translate(396.31667,299.94205)"
       id="g109">
      <g
         id="g108" />
    </g>
  </g>
  <g
     id="g123"
     transform="matrix(1.2545674,0,0,1.2545674,-143.8636,-129.25774)">
    <g
       clip-path="url(#fb9cd65b6d)"
       id="g9">
      <g
         clip-path="url(#aa673c0899)"
         id="g8">
        <path
           fill="#27498c"
           d="M 114.67188,102.79297 H 727.14062 V 715.25781 H 114.67188 Z m 0,0"
           fill-opacity="1"
           fill-rule="nonzero"
           id="path8" />
      </g>
    </g>
    <g
       fill="#27498c"
       fill-opacity="1"
       id="g12">
      <g
         transform="translate(263.75605,629.73575)"
         id="g11">
        <g
           id="g10">
          <path
             d="m 3.8125,-2.90625 20.875,-16.28125 c 0.738281,-0.582031 1.507812,-0.921875 2.3125,-1.015625 0.800781,-0.101563 1.625,0.07031 2.46875,0.515625 l 0.34375,0.171875 c 0.820312,0.449219 1.40625,1.03125 1.75,1.75 0.34375,0.71875 0.476562,1.546875 0.40625,2.484375 L 30.015625,11.125 c -0.117187,0.675781 -0.234375,1.132812 -0.359375,1.375 -0.429688,0.789062 -1.0625,1.316406 -1.90625,1.578125 -0.835938,0.269531 -1.652344,0.191406 -2.453125,-0.234375 -0.699219,-0.367188 -1.179687,-0.859375 -1.4375,-1.484375 -0.261719,-0.625 -0.371094,-1.324219 -0.328125,-2.09375 L 24,5 12.0625,-1.375 7.78125,2.078125 C 7.195312,2.523438 6.578125,2.78125 5.921875,2.84375 5.273438,2.914062 4.640625,2.785156 4.015625,2.453125 3.242188,2.035156 2.738281,1.414062 2.5,0.59375 2.257812,-0.226562 2.347656,-1.03125 2.765625,-1.8125 2.867188,-2.007812 3.007812,-2.203125 3.1875,-2.390625 3.375,-2.585938 3.582031,-2.757812 3.8125,-2.90625 Z m 13.265625,-2.5625 7.53125,4.03125 1.03125,-10.96875 z m 0,0"
             id="path9" />
        </g>
      </g>
    </g>
    <g
       fill="#27498c"
       fill-opacity="1"
       id="g15">
      <g
         transform="translate(301.43334,649.33924)"
         id="g14">
        <g
           id="g13">
          <path
             d="m 7.40625,-13.671875 c 0.75,-2.070313 1.835938,-3.875 3.265625,-5.40625 1.425781,-1.53125 3.066406,-2.726563 4.921875,-3.59375 1.851562,-0.875 3.863281,-1.363281 6.03125,-1.46875 2.175781,-0.101563 4.382812,0.246094 6.625,1.046875 2.226562,0.804688 4.140625,1.9375 5.734375,3.40625 1.59375,1.460938 2.828125,3.105469 3.703125,4.9375 0.882812,1.835938 1.378906,3.792969 1.484375,5.875 0.113281,2.074219 -0.203125,4.148438 -0.953125,6.21875 L 38.1875,-2.5625 C 37.625,-1 36.863281,0.378906 35.90625,1.578125 34.957031,2.773438 33.859375,3.851562 32.609375,4.8125 l 0.875,1.484375 c 0.21875,0.414063 0.363281,0.851563 0.4375,1.3125 0.08203,0.46875 0.03125,0.960937 -0.15625,1.484375 -0.304687,0.832031 -0.851563,1.441406 -1.640625,1.828125 -0.792969,0.382813 -1.601562,0.429687 -2.421875,0.140625 -0.4375,-0.15625 -0.796875,-0.390625 -1.078125,-0.703125 -0.273438,-0.304687 -0.511719,-0.617187 -0.71875,-0.9375 l -1.0625,-1.96875 c -3.105469,0.75 -6.273438,0.539063 -9.5,-0.625 C 15.113281,6.023438 13.203125,4.890625 11.609375,3.421875 10.015625,1.960938 8.78125,0.316406 7.90625,-1.515625 7.03125,-3.347656 6.535156,-5.300781 6.421875,-7.375 6.316406,-9.445312 6.632812,-11.519531 7.375,-13.59375 Z m 6.6875,2.296875 -0.03125,0.09375 c -0.449219,1.242188 -0.65625,2.492188 -0.625,3.75 0.03125,1.261719 0.289062,2.449219 0.78125,3.5625 0.5,1.117188 1.191406,2.105469 2.078125,2.96875 0.894531,0.867188 1.984375,1.523438 3.265625,1.984375 1.519531,0.550781 2.878906,0.75 4.078125,0.59375 L 21.5625,-2.09375 c -0.230469,-0.414062 -0.386719,-0.851562 -0.46875,-1.3125 -0.08594,-0.46875 -0.03125,-0.96875 0.15625,-1.5 0.300781,-0.820312 0.847656,-1.421875 1.640625,-1.796875 0.800781,-0.382813 1.613281,-0.429687 2.4375,-0.140625 0.800781,0.292969 1.40625,0.839844 1.8125,1.640625 l 2.140625,3.984375 c 0.914062,-0.875 1.65625,-2.097656 2.21875,-3.671875 l 0.03125,-0.078125 c 0.457031,-1.25 0.664062,-2.503906 0.625,-3.765625 -0.03125,-1.257813 -0.292969,-2.441406 -0.78125,-3.546875 -0.492188,-1.101562 -1.179688,-2.085938 -2.0625,-2.953125 -0.886719,-0.875 -1.976562,-1.546875 -3.265625,-2.015625 -1.261719,-0.457031 -2.515625,-0.640625 -3.765625,-0.546875 -1.25,0.08594 -2.40625,0.402344 -3.46875,0.953125 -1.054688,0.554688 -1.992188,1.292969 -2.8125,2.21875 -0.824219,0.929688 -1.460938,2.011719 -1.90625,3.25 z m 0,0"
             id="path12" />
        </g>
      </g>
    </g>
    <g
       fill="#27498c"
       fill-opacity="1"
       id="g18">
      <g
         transform="translate(345.08877,664.26332)"
         id="g17">
        <g
           id="g16">
          <path
             d="m 12.671875,-29.09375 c 0.925781,0.1875 1.644531,0.671875 2.15625,1.453125 0.519531,0.78125 0.6875,1.632813 0.5,2.546875 l -2.875,14 c -0.511719,2.523438 -0.324219,4.511719 0.5625,5.96875 0.882813,1.449219 2.359375,2.382812 4.421875,2.796875 2.0625,0.429687 3.785156,0.167969 5.171875,-0.78125 1.382813,-0.957031 2.328125,-2.65625 2.828125,-5.09375 l 2.90625,-14.21875 c 0.1875,-0.914063 0.664062,-1.632813 1.4375,-2.15625 0.769531,-0.519531 1.613281,-0.6875 2.53125,-0.5 0.925781,0.1875 1.644531,0.671875 2.15625,1.453125 0.519531,0.78125 0.6875,1.632812 0.5,2.546875 L 32.109375,-7.125 c -0.460937,2.273438 -1.179687,4.199219 -2.15625,5.78125 C 28.984375,0.238281 27.8125,1.476562 26.4375,2.375 25.0625,3.28125 23.503906,3.84375 21.765625,4.0625 20.023438,4.289062 18.132812,4.195312 16.09375,3.78125 12.050781,2.957031 9.09375,1.1875 7.21875,-1.53125 5.351562,-4.25 4.875,-7.832031 5.78125,-12.28125 L 8.6875,-26.453125 c 0.1875,-0.914063 0.664062,-1.628906 1.4375,-2.140625 0.78125,-0.519531 1.628906,-0.6875 2.546875,-0.5 z m 0,0"
             id="path15" />
        </g>
      </g>
    </g>
    <g
       fill="#27498c"
       fill-opacity="1"
       id="g21">
      <g
         transform="translate(386.26318,672.09675)"
         id="g20">
        <g
           id="g19">
          <path
             d="M 2.265625,-4.21875 14.5,-27.703125 c 0.4375,-0.832031 1,-1.460937 1.6875,-1.890625 0.6875,-0.425781 1.503906,-0.609375 2.453125,-0.546875 l 0.390625,0.03125 c 0.9375,0.05469 1.707031,0.335937 2.3125,0.84375 0.613281,0.511719 1.082031,1.210937 1.40625,2.09375 l 9.171875,24.84375 c 0.1875,0.65625 0.269531,1.121094 0.25,1.390625 -0.05469,0.90625 -0.40625,1.648438 -1.0625,2.234375 -0.65625,0.59375 -1.4375,0.863281 -2.34375,0.8125 -0.792969,-0.054687 -1.4375,-0.3125 -1.9375,-0.78125 -0.492187,-0.460937 -0.875,-1.046875 -1.15625,-1.765625 L 23.90625,-5.390625 10.40625,-6.25 7.9375,-1.34375 C 7.59375,-0.6875 7.140625,-0.191406 6.578125,0.140625 6.015625,0.472656 5.378906,0.613281 4.671875,0.5625 3.804688,0.507812 3.085938,0.15625 2.515625,-0.5 c -0.5625,-0.65625 -0.8125,-1.425781 -0.75,-2.3125 C 1.773438,-3.039062 1.820312,-3.273438 1.90625,-3.515625 2,-3.753906 2.117188,-3.988281 2.265625,-4.21875 Z M 13.28125,-12.0625 21.796875,-11.515625 18.1875,-21.9375 Z m 0,0"
             id="path18" />
        </g>
      </g>
    </g>
    <g
       fill="#27498c"
       fill-opacity="1"
       id="g27">
      <g
         transform="translate(449.22891,672.96125)"
         id="g26">
        <g
           id="g25">
          <path
             d="M 3.234375,-3.59375 -0.03125,-27.640625 c -0.125,-0.925781 0.09375,-1.757813 0.65625,-2.5 0.570312,-0.75 1.320312,-1.1875 2.25,-1.3125 l 17.078125,-2.3125 c 0.84375,-0.113281 1.601563,0.08984 2.28125,0.609375 0.675781,0.511719 1.070313,1.183594 1.1875,2.015625 0.113281,0.84375 -0.08984,1.605469 -0.609375,2.28125 -0.511719,0.679687 -1.1875,1.074219 -2.03125,1.1875 L 7.0625,-25.8125 l 0.875,6.5 11.765625,-1.59375 c 0.832031,-0.113281 1.585937,0.08594 2.265625,0.59375 0.675781,0.511719 1.070312,1.1875 1.1875,2.03125 0.113281,0.84375 -0.08984,1.605469 -0.609375,2.28125 -0.511719,0.679688 -1.183594,1.074219 -2.015625,1.1875 L 8.765625,-13.21875 9.953125,-4.5 c 0.125,0.929688 -0.101563,1.765625 -0.671875,2.515625 C 8.71875,-1.242188 7.972656,-0.8125 7.046875,-0.6875 6.117188,-0.5625 5.28125,-0.78125 4.53125,-1.34375 3.789062,-1.914062 3.359375,-2.664062 3.234375,-3.59375 Z m 0,0"
             id="path24" />
        </g>
      </g>
    </g>
    <g
       fill="#27498c"
       fill-opacity="1"
       id="g30">
      <g
         transform="translate(486.10476,667.44957)"
         id="g29">
        <g
           id="g28">
          <path
             d="M 2.703125,-4.21875 -3.4375,-27.421875 C -3.675781,-28.328125 -3.554688,-29.1875 -3.078125,-30 c 0.46875,-0.8125 1.15625,-1.335938 2.0625,-1.578125 l 16.5,-4.34375 c 0.8125,-0.21875 1.578125,-0.113281 2.296875,0.3125 0.71875,0.417969 1.1875,1.03125 1.40625,1.84375 0.21875,0.824219 0.113281,1.589844 -0.3125,2.296875 -0.417969,0.699219 -1.03125,1.15625 -1.84375,1.375 l -13.265625,3.5 1.578125,6.03125 11.34375,-3 c 0.820312,-0.21875 1.59375,-0.113281 2.3125,0.3125 0.71875,0.417969 1.1875,1.03125 1.40625,1.84375 0.21875,0.824219 0.113281,1.589844 -0.3125,2.296875 -0.417969,0.699219 -1.039062,1.15625 -1.859375,1.375 l -11.34375,3 1.640625,6.25 L 22,-12.046875 c 0.832031,-0.21875 1.601562,-0.117187 2.3125,0.296875 0.71875,0.417969 1.1875,1.039062 1.40625,1.859375 0.21875,0.824219 0.117188,1.589844 -0.296875,2.296875 -0.417969,0.699219 -1.042969,1.15625 -1.875,1.375 L 6.84375,-1.8125 C 5.9375,-1.570312 5.078125,-1.6875 4.265625,-2.15625 3.460938,-2.625 2.941406,-3.3125 2.703125,-4.21875 Z m 0,0"
             id="path27" />
        </g>
      </g>
    </g>
    <g
       fill="#27498c"
       fill-opacity="1"
       id="g33">
      <g
         transform="translate(522.58317,657.24345)"
         id="g32">
        <g
           id="g31">
          <path
             d="m 1.296875,-10.125 c 0.40625,-0.164062 0.773437,-0.242188 1.109375,-0.234375 0.332031,0.01172 0.640625,0.03906 0.921875,0.07813 1.394531,0.355469 2.785156,0.523438 4.171875,0.5 1.382812,-0.019531 2.769531,-0.304688 4.15625,-0.859375 1.3125,-0.519531 2.234375,-1.160156 2.765625,-1.921875 0.53125,-0.757812 0.628906,-1.554688 0.296875,-2.390625 l -0.04687,-0.09375 c -0.15625,-0.40625 -0.375,-0.734375 -0.65625,-0.984375 -0.273437,-0.257812 -0.671875,-0.445312 -1.203125,-0.5625 -0.53125,-0.125 -1.226562,-0.160156 -2.078125,-0.109375 -0.855469,0.04297 -1.9375,0.152344 -3.25,0.328125 -1.59375,0.210938 -3.0625,0.339844 -4.40625,0.390625 -1.335937,0.05469 -2.539063,-0.08203 -3.609375,-0.40625 -1.082031,-0.332031 -2.039062,-0.882813 -2.875,-1.65625 -0.832031,-0.78125 -1.53125,-1.878906 -2.09375,-3.296875 l -0.03125,-0.07813 c -0.519531,-1.300781 -0.742188,-2.570313 -0.671875,-3.8125 0.0625,-1.25 0.386719,-2.429687 0.96875,-3.546875 0.585937,-1.113281 1.414063,-2.117188 2.484375,-3.015625 1.0625,-0.894531 2.328125,-1.640625 3.796875,-2.234375 3.445313,-1.375 6.796875,-1.734375 10.046875,-1.078125 0.457031,0.07422 0.90625,0.257813 1.34375,0.546875 0.445312,0.292969 0.796875,0.75 1.046875,1.375 0.320313,0.824219 0.3125,1.632812 -0.03125,2.421875 -0.34375,0.78125 -0.929687,1.335937 -1.75,1.65625 -0.574219,0.230469 -1.15625,0.292969 -1.75,0.1875 -2.585937,-0.457031 -4.84375,-0.300781 -6.78125,0.46875 -1.230469,0.492187 -2.058594,1.09375 -2.484375,1.8125 C 0.269536,-25.921875 0.20313,-25.207031 0.48438,-24.5 l 0.03125,0.09375 c 0.195313,0.492188 0.445313,0.867188 0.75,1.125 0.3125,0.25 0.75,0.414062 1.3125,0.484375 0.570313,0.07422 1.3125,0.08594 2.21875,0.03125 0.90625,-0.0625 2.035156,-0.175781 3.390625,-0.34375 1.59375,-0.207031 3.050781,-0.296875 4.375,-0.265625 1.320312,0.03125 2.503906,0.226562 3.546875,0.578125 1.039063,0.355469 1.9375,0.902344 2.6875,1.640625 0.75,0.742188 1.375,1.742188 1.875,3 l 0.03125,0.09375 c 0.5625,1.40625 0.804687,2.765625 0.734375,4.078125 -0.07422,1.3125 -0.421875,2.53125 -1.046875,3.65625 -0.625,1.117187 -1.5,2.125 -2.625,3.03125 -1.125,0.898437 -2.464844,1.652344 -4.015625,2.265625 -1.875,0.75 -3.839844,1.203125 -5.890625,1.359375 C 5.816406,-3.515625 3.75,-3.675781 1.65625,-4.15625 1.195312,-4.257812 0.773438,-4.476562 0.390625,-4.8125 0.00390625,-5.15625 -0.285156,-5.570312 -0.484375,-6.0625 -0.804688,-6.875 -0.789062,-7.671875 -0.4375,-8.453125 -0.09375,-9.242188 0.484375,-9.800781 1.296875,-10.125 Z m 0,0"
             id="path30" />
        </g>
      </g>
    </g>
    <g
       fill="#27498c"
       fill-opacity="1"
       id="g36">
      <g
         transform="translate(556.32422,643.22554)"
         id="g35">
        <g
           id="g34">
          <path
             d="m -12.1875,-24.859375 c -0.414062,-0.75 -0.5,-1.539063 -0.25,-2.375 0.25,-0.832031 0.75,-1.453125 1.5,-1.859375 l 17.34375,-9.484375 c 0.738281,-0.40625 1.523438,-0.488281 2.359375,-0.25 0.84375,0.242187 1.472656,0.734375 1.890625,1.484375 0.40625,0.75 0.484375,1.546875 0.234375,2.390625 -0.25,0.835937 -0.746094,1.453125 -1.484375,1.859375 l -5.703125,3.125 10.265625,18.78125 c 0.445312,0.8125 0.539062,1.667969 0.28125,2.5625 -0.261719,0.898438 -0.804688,1.570312 -1.625,2.015625 -0.824219,0.460937 -1.683594,0.554687 -2.578125,0.28125 -0.898437,-0.269531 -1.570313,-0.8125 -2.015625,-1.625 l -10.265625,-18.78125 -5.703125,3.125 c -0.75,0.40625 -1.539062,0.492187 -2.375,0.25 -0.84375,-0.25 -1.46875,-0.75 -1.875,-1.5 z m 0,0"
             id="path33" />
        </g>
      </g>
    </g>
    <g
       clip-path="url(#92170ef3e1)"
       id="g37">
      <path
         fill="#27498c"
         d="m 660.02344,474.19141 c -6.46485,22.0039 -16.33203,42.8789 -28.57813,62.10546 -10.10937,15.64454 -21.60547,30.35157 -34.52344,43.72657 -1.66796,1.82812 -3.53515,3.46093 -5.30859,5.1875 -1.80469,1.6914 -3.55469,3.4414 -5.39844,5.09375 l -5.59765,4.87109 -2.80078,2.4375 -2.90235,2.30469 -5.80078,4.63672 c -1.96484,1.5 -3.99219,2.92187 -5.98047,4.39062 -3.93359,3.01172 -8.11719,5.66016 -12.21484,8.44531 -0.58985,0.39844 -1.21094,0.8125 -1.85938,1.2461 -0.66406,0.40234 -1.35937,0.82031 -2.08203,1.2539 -1.44531,0.86719 -3.0039,1.79688 -4.66015,2.78516 -3.26954,2.05469 -7.14454,3.99219 -11.32422,6.21484 -1.05078,0.53907 -2.10547,1.13282 -3.21875,1.66407 -1.11719,0.51953 -2.25391,1.05078 -3.41797,1.58984 -2.32422,1.07422 -4.73047,2.18359 -7.21485,3.33203 -5.09375,1.99219 -10.40625,4.38281 -16.19531,6.23828 -22.86719,8.28907 -51.40625,13.41797 -80.04687,13.53516 -28.63672,-0.11719 -57.17578,-5.24609 -80.04297,-13.53516 -5.79297,-1.85547 -11.10156,-4.24609 -16.19531,-6.23828 -2.48438,-1.14844 -4.89063,-2.25781 -7.21485,-3.33203 -1.16015,-0.53906 -2.30078,-1.07031 -3.41797,-1.58594 -1.11328,-0.53125 -2.16797,-1.1289 -3.21875,-1.66797 -4.17968,-2.22265 -8.05468,-4.16015 -11.32422,-6.21484 -1.65625,-0.98828 -3.21093,-1.91797 -4.65625,-2.78516 -0.72265,-0.43359 -1.41796,-0.84765 -2.08593,-1.2539 -0.64844,-0.4336 -1.26953,-0.84766 -1.85938,-1.2461 -15.55859,-10.19531 -30.17187,-21.77734 -43.46094,-34.78515 -14.01171,-14 -26.26171,-29.67969 -37.0664,-46.30469 -12.2461,-19.22656 -22.11328,-40.10547 -28.57813,-62.10937 -6.73047,-21.92969 -9.83984,-44.94532 -10.04297,-67.96094 0.20313,-23.01953 3.3125,-46.03516 10.04297,-67.96485 6.46485,-22.0039 16.33203,-42.875 28.57813,-62.10546 10.10547,-15.64454 21.60156,-30.34766 34.51953,-43.72266 1.67187,-1.82813 3.53516,-3.46484 5.30859,-5.1875 1.80469,-1.69531 3.5586,-3.44531 5.39844,-5.09375 l 5.60156,-4.87109 2.79688,-2.44141 2.90625,-2.30469 5.79687,-4.63281 c 1.96875,-1.50391 3.99219,-2.92188 5.98438,-4.39453 3.93359,-3.00781 8.11719,-5.65625 12.21484,-8.44141 0.58985,-0.39844 1.21094,-0.8125 1.85547,-1.25 0.66797,-0.39844 1.36328,-0.8164 2.08594,-1.2539 1.44531,-0.86329 3,-1.79297 4.65625,-2.78125 3.27344,-2.0586 7.14844,-3.99219 11.32422,-6.21485 1.05468,-0.54297 2.10937,-1.13672 3.22265,-1.66797 1.11719,-0.51953 2.25391,-1.04687 3.41797,-1.58593 2.32422,-1.07422 4.73047,-2.1875 7.21485,-3.33594 5.09375,-1.99219 10.40234,-4.37891 16.19531,-6.23438 22.86719,-8.29297 51.40234,-13.41797 80.04297,-13.53906 28.64062,0.12109 57.17968,5.24609 80.04297,13.53906 5.79296,1.85547 11.10156,4.24219 16.19921,6.23438 2.48438,1.14844 4.89063,2.26172 7.21485,3.33594 1.16015,0.53906 2.30078,1.0664 3.41797,1.58593 1.10937,0.53125 2.16406,1.125 3.21875,1.66797 4.17968,2.21875 8.05468,4.15625 11.32422,6.21094 1.65625,0.99219 3.21093,1.92187 4.65625,2.78516 0.72265,0.43359 1.41796,0.85156 2.08593,1.2539 0.64453,0.4336 1.26563,0.85156 1.85547,1.2461 15.5586,10.19531 30.17578,21.78125 43.46094,34.78906 14.01562,13.99609 26.26562,29.67578 37.07031,46.30469 12.2461,19.22656 22.11328,40.10156 28.57813,62.10546 6.72656,21.92969 9.83984,44.94532 10.03906,67.96485 -0.19922,23.01562 -3.3125,46.03125 -10.03906,67.96094 z m 15.76562,-68.12891 -0.004,-0.0234 c -0.20704,-23.5 -3.36719,-47.01953 -10.21875,-69.4414 -6.58204,-22.49219 -16.66797,-43.84375 -29.24219,-63.44922 l -6.04688,-9.08594 c 0,0 -1.74609,-2.44531 -4.36328,-6.10938 -2.52344,-3.74218 -6.38672,-8.34765 -10.07422,-13.08984 -3.97265,-4.5 -7.78125,-9.14453 -10.98828,-12.3125 -3.11328,-3.25 -5.1875,-5.41406 -5.1875,-5.41406 0,0 -0.52344,-0.53906 -1.47265,-1.44531 -0.94141,-0.91407 -2.28907,-2.21875 -3.91016,-3.78125 -3.15625,-3.21485 -7.73828,-7.08985 -12.23438,-11.06641 -2.30859,-1.91797 -4.67968,-3.75391 -6.875,-5.51563 -1.10156,-0.8789 -2.16406,-1.72265 -3.17187,-2.52734 -1.04688,-0.75391 -2.03516,-1.46484 -2.94922,-2.125 -3.64844,-2.63672 -6.08203,-4.39062 -6.08203,-4.39062 0,0 -0.53125,-0.42969 -1.38672,-0.98438 -0.85156,-0.56641 -1.98437,-1.32422 -3.11328,-2.08594 -2.26563,-1.51562 -4.53125,-3.03125 -4.53125,-3.03125 -0.60547,-0.40625 -1.23828,-0.83593 -1.89844,-1.28125 -0.67969,-0.41406 -1.39062,-0.84375 -2.1289,-1.28906 -1.47657,-0.88672 -3.06641,-1.84375 -4.76172,-2.85937 -3.34375,-2.10938 -7.30469,-4.09766 -11.57813,-6.375 -1.07422,-0.5586 -2.15625,-1.16407 -3.29297,-1.71094 -1.14062,-0.53516 -2.30859,-1.07813 -3.49609,-1.63281 -2.375,-1.09766 -4.83984,-2.24219 -7.38281,-3.41797 -5.21094,-2.04688 -10.64453,-4.48828 -16.57422,-6.39844 -23.39844,-8.5 -52.6211,-13.76563 -81.92578,-13.88281 -29.30078,0.11718 -58.52344,5.38281 -81.92578,13.88281 -5.92579,1.91016 -11.36329,4.35156 -16.57422,6.39844 -2.54297,1.17578 -5.00391,2.32031 -7.38282,3.42187 -1.1875,0.55469 -2.35546,1.09766 -3.49609,1.62891 -1.13672,0.54687 -2.21875,1.15234 -3.29297,1.71094 -4.27344,2.27734 -8.23437,4.26562 -11.57812,6.375 -1.69141,1.01562 -3.28125,1.97265 -4.76172,2.85937 -0.73438,0.44531 -1.44922,0.87891 -2.12891,1.28906 -0.66015,0.44922 -1.29297,0.875 -1.89844,1.28125 0,0 -2.26171,1.51563 -4.52734,3.03125 -1.13281,0.76172 -2.26562,1.51953 -3.11328,2.08594 -0.85547,0.55469 -1.38672,0.98438 -1.38672,0.98438 0,0 -2.43359,1.7539 -6.08203,4.39062 -0.91406,0.66016 -1.90234,1.37109 -2.94922,2.125 -1.00781,0.80469 -2.07422,1.64844 -3.17578,2.52734 -2.19141,1.76172 -4.5625,3.59766 -6.87109,5.51563 -4.4961,3.97656 -9.07813,7.85156 -12.23829,11.06641 -1.61718,1.5625 -2.96484,2.86718 -3.91015,3.78125 -0.94531,0.90625 -1.46875,1.44531 -1.46875,1.44531 0,0 -2.07813,2.16406 -5.19141,5.41406 -3.20312,3.16797 -7.01172,7.8125 -10.98828,12.3125 -3.6875,4.74219 -7.54687,9.35156 -10.07031,13.08984 -2.6211,3.66797 -4.36719,6.10938 -4.36719,6.10938 l -6.04297,9.08594 c -12.57422,19.60547 -22.66015,40.96093 -29.24609,63.44922 -6.84766,22.42578 -10.00781,45.9414 -10.21485,69.44531 l -0.004,0.0195 -0.004,0.16797 0.004,0.16797 0.004,0.0195 c 0.20704,23.5039 3.36719,47.01953 10.21485,69.4414 6.58594,22.4961 16.67187,43.84375 29.24609,63.45313 l 6.04297,9.08203 c 0,0 1.75,2.44531 4.36719,6.10938 2.52344,3.74218 6.38281,8.35156 10.07031,13.08984 3.97656,4.5 7.78516,9.14844 10.98828,12.3125 3.11328,3.25 5.19141,5.41797 5.19141,5.41797 0,0 0.52344,0.53515 1.46875,1.44531 0.94531,0.91016 2.29297,2.21484 3.91015,3.77734 3.16016,3.21875 7.74219,7.09375 12.23829,11.07032 2.30859,1.91406 4.67968,3.75 6.87109,5.51562 1.10156,0.875 2.16797,1.72266 3.17578,2.52735 1.04688,0.7539 2.03516,1.46484 2.94922,2.125 3.64844,2.63281 6.08203,4.38671 6.08203,4.38671 0,0 0.53125,0.4336 1.38672,0.98438 0.85156,0.57031 1.98437,1.32812 3.11328,2.08594 2.26563,1.51562 4.53125,3.03125 4.53125,3.03125 0.60156,0.41015 1.23438,0.83593 1.89453,1.28125 0.6836,0.41406 1.39453,0.84375 2.13281,1.28906 1.47657,0.89062 3.06641,1.84375 4.75782,2.85937 3.34765,2.10938 7.30468,4.10157 11.58203,6.37891 1.07422,0.55859 2.15625,1.16406 3.28906,1.71094 1.14453,0.53125 2.3125,1.07812 3.49609,1.6289 2.37891,1.10157 4.84375,2.24219 7.38672,3.42188 5.20703,2.04687 10.64453,4.48828 16.57032,6.39844 23.40234,8.5 52.625,13.76172 81.92578,13.8789 29.30468,-0.11718 58.52734,-5.3789 81.92968,-13.88281 5.92579,-1.90625 11.36329,-4.35156 16.57422,-6.39844 2.53907,-1.17578 5.00391,-2.3164 7.37891,-3.41797 1.19141,-0.55468 2.35547,-1.09765 3.5,-1.6289 1.13672,-0.54688 2.21484,-1.15235 3.29297,-1.71094 4.27344,-2.27734 8.23437,-4.26953 11.57812,-6.37891 1.69141,-1.01562 3.28125,-1.97265 4.76172,-2.85937 0.73438,-0.44531 1.44531,-0.875 2.125,-1.28906 0.66406,-0.44532 1.29688,-0.8711 1.90235,-1.28125 0,0 2.26171,-1.51563 4.52734,-3.03125 1.13281,-0.75782 2.26172,-1.51563 3.11328,-2.08594 0.85547,-0.55078 1.38672,-0.98438 1.38672,-0.98438 0,0 2.43359,-1.7539 6.08203,-4.38671 0.91406,-0.66016 1.90234,-1.3711 2.94922,-2.125 1.00781,-0.80469 2.07031,-1.65235 3.17187,-2.52735 2.19532,-1.76562 4.56641,-3.60156 6.875,-5.51562 4.4961,-3.97657 9.07813,-7.85157 12.23438,-11.07032 1.62109,-1.5625 2.96875,-2.86718 3.91016,-3.77734 0.94921,-0.91016 1.47265,-1.44531 1.47265,-1.44531 0,0 2.07422,-2.16797 5.1875,-5.41797 3.20703,-3.16406 7.01563,-7.8125 10.98828,-12.3125 3.6875,-4.73828 7.55078,-9.34766 10.07422,-13.08984 2.6211,-3.66407 4.36328,-6.10938 4.36328,-6.10938 l 6.04688,-9.08203 c 12.57422,-19.60938 22.66015,-40.96094 29.24219,-63.45313 6.85156,-22.42187 10.01171,-45.9414 10.21875,-69.4414 l 0.004,-0.0195 0.004,-0.16797 -0.004,-0.16797"
         fill-opacity="1"
         fill-rule="nonzero"
         id="path36" />
    </g>
    <path
       fill="#ffffff"
       d="M 627.55078,402.58984 C 619.83984,391.625 604.00391,389.26172 595.38672,391.25 c -2.45313,0.55859 -4.5586,1.33203 -6.45313,2.34766 -6.8164,3.5 -10.83203,10.15625 -10.34375,16.99609 0.40235,5.58203 3.60938,9.79297 8.79688,11.57812 3.01172,1.01563 6.125,-0.7539 7.55469,-2.97656 1.26953,-1.9375 1.10937,-3.78515 -0.46094,-5.46484 -0.89844,-0.96875 -1.34375,-2.28125 -1.22656,-3.59766 0.11328,-1.32422 0.79687,-2.52344 1.86328,-3.3125 4.80078,-3.5664 11.39453,-3.2539 17.23047,0.78125 6.28125,4.35156 11.42578,12.63281 14.05859,24.23828 0.82422,-7.50781 1.28906,-15.09765 1.28906,-22.77343 0,-2.1875 -0.0625,-4.3086 -0.14453,-6.47657 z m -162.12109,-7.42968 c 2.33593,1.91796 6.17578,3.73046 11.15234,1.46484 2.98438,-1.35938 4.71875,-3.6875 5.125,-6.9375 0.42578,-3.38672 -0.73828,-6.19531 -1.45703,-7.10938 -1.14453,-0.17968 -2.18359,-0.7539 -2.92969,-1.67187 -0.96094,-1.16406 -1.28906,-2.74609 -0.88281,-4.21094 1.19141,-4.21875 4.48828,-7.83594 9.53516,-10.43359 10.77734,-5.5625 27.51171,-5.75781 43.02734,-0.59375 15.35156,-5.19922 46.76562,-1.26953 59.66016,17.87109 1.46484,-0.53515 3.01171,-0.99609 4.66406,-1.35937 7.47265,-1.72657 19.82422,-1.22657 30.23828,4.60156 -5.49219,-13.93359 -15.41797,-25.875 -28.84375,-34.33594 -18.42969,-11.58594 -40.90234,-15.18359 -60.05859,-9.58594 -1.17579,0.32813 -2.42579,0.21094 -3.48438,-0.36718 -12.30859,-6.53907 -32.37109,-6.13672 -47.73437,0.93359 -8.97657,4.13281 -20.41016,12.39844 -23.94922,28.28516 -2.44922,10.86718 1.21875,19.60156 5.9375,23.44922 z m 47.1289,12.08593 c -9.47265,4.25391 -15.84375,10.6875 -18.46484,18.625 -2.34375,7.09766 -1.57031,15.21875 2.0625,21.71485 0.49609,0.80078 1.06641,1.77734 1.74219,2.52343 3.1289,3.70704 7.42968,5.46485 11.93359,4.84375 3.625,-0.48046 6.67188,-2.44531 7.94531,-5.13671 2.1836,-4.57422 0.7461,-7.90625 -1.15625,-9.38282 -0.99609,-0.77343 -1.875,-0.84375 -2.07812,-0.6914 -1.53125,1.29687 -3.69922,1.42968 -5.41406,0.39843 -1.70313,-1.03125 -2.5586,-3.03906 -2.1211,-4.99218 1.55469,-6.92578 7.6836,-12.14844 15.6211,-13.29688 7.74609,-1.11719 18.17968,1.83203 24.57812,13.35547 0.0273,0.0469 0.0352,0.0898 0.0625,0.13672 0,0.008 0,0.008 0,0.008 0.46094,0.80078 0.90625,1.59766 1.25,2.39063 5.37891,11.71093 5.31641,26.14843 -0.19531,39.5039 -6.28125,15.22266 -18.92578,27.42188 -35.82813,34.65625 0.60547,4.64063 0.4375,9.23438 -0.46093,13.66797 10.02343,-3.75 22.08984,-3.49219 32.80859,1.13672 45.71484,-34.83203 34.67187,-84.44141 27.02734,-99.30078 -10.86718,-21.05078 -37.48047,-30.07031 -59.3125,-20.16016 z m 31.08594,129.14453 c -0.13672,-0.0508 -0.26953,-0.0859 -0.40234,-0.16015 -12.39453,-6.3711 -28.1836,-4.88672 -36.71485,3.46875 l -0.96875,1.03906 c -0.46093,0.78906 -1.07422,1.61719 -1.79687,2.47656 -1.66016,2.7461 -2.48828,6.00782 -2.26563,9.11719 0.27735,5.6875 3.47657,9.89844 7.625,10.12109 4.41797,0.0273 5.82813,-2.42578 6.32813,-3.54296 0.64844,-1.46875 0.74609,-3.49219 -0.47266,-4.71875 -1.24219,-1.2461 -1.67969,-3.09375 -1.1289,-4.77344 0.55859,-1.66797 2.00781,-2.87891 3.75781,-3.13672 3.35937,-0.48828 6.57812,-0.19531 9.33203,0.80859 0,0 0.008,0 0.008,0 0.0547,0.0195 0.10547,0.0469 0.16016,0.0625 7.32422,2.45313 12.29687,9.5 13.13281,18.86719 0.34766,3.83594 -0.0625,8.31641 -1.48437,12.88281 8.22265,-5.69531 16.02343,-12.0039 23.39062,-18.91015 -3.94531,-13.48047 -12.08594,-20.25 -18.5,-23.60157 z m -40.92187,-26.3789 c -0.87891,-3.8125 -2.36329,-7.51172 -4.39063,-10.92969 -0.78125,-1.34375 -0.85156,-2.96875 -0.20312,-4.375 2.16015,-4.55859 3.17187,-9.57812 2.91406,-14.53516 -0.23828,-8.55859 -3.91016,-17.14843 -10.09375,-23.66406 -8.48438,-9.10937 -20.19922,-12.75781 -30.63672,-9.5625 -1.86719,0.625 -3.92188,-0.0781 -5.10938,-1.66015 -8.87109,-11.94141 -27.90234,-11.29297 -39.41015,-3.25391 -6.94141,4.80078 -10.78906,11.84766 -10.85938,19.88672 -0.0351,4.8164 1.58985,8.66406 4.46094,10.53125 2.15234,1.38672 4.73828,1.51953 7.30469,0.35547 1.15625,-0.50782 2.19531,-2.04297 2.62109,-3.83985 0.42578,-1.75781 0.082,-2.8789 -0.0898,-3.08203 -2.21094,-0.80078 -3.34766,-3.03906 -2.82422,-5.33984 1.91797,-8.29297 9.20703,-13.64844 17.81641,-13.07031 7.19531,0.29296 15.38281,4.53125 18.85546,13.09765 8.09375,-1.82422 16.91016,0.3086 24.04688,6.05078 14.19922,11.46094 16.98047,33.70313 6.35156,50.61328 -4.94922,7.75782 -12.05078,13.73829 -21.14062,17.78907 -7.34766,3.2539 -15.00782,4.67578 -22.71094,4.67578 -1.61719,0 -3.23438,-0.0742 -4.85156,-0.19531 11.61328,4.86718 24.42578,8.48437 38.03125,9.52343 h 0.76562 c 8.48438,0 16.96094,-4.23828 22.69141,-11.35547 0.63281,-0.9414 1.21875,-1.78515 1.86719,-2.53125 4.95703,-7.33203 6.59375,-16.2539 4.59375,-25.1289 z m -142.75782,25.03125 c -1.71484,3.63281 -3.91015,6.82422 -6.54297,9.49609 2.01954,1.73438 4.41016,3.83203 7.12891,6.23047 13.53906,11.91406 34.00391,29.92578 55.15234,43.92188 l 0.94141,0.64062 c 14.08594,9.39063 26.25781,17.51563 38.32422,17.66406 8.54297,-1.40234 16.95703,-3.375 25.20312,-5.84765 -15.76562,-2.57422 -33.20703,-10.35157 -53.03906,-23.49219 -24.03906,-15.92188 -50.83594,-36.05859 -67.16797,-48.61328 z m 16.52735,-35.36719 c 0.0234,0.0273 0.0625,0.0547 0.0781,0.0703 0.008,0.008 0.0195,0.0195 0.0195,0.0195 1.40235,1.40235 2.64844,2.65625 3.96875,3.89063 0,0 0.0117,0 0.0117,0 0.0156,0.0195 0.0352,0.0352 0.0508,0.043 0,0.0117 0.0117,0.0117 0.0117,0.0195 0.0156,0.008 0.0274,0.0273 0.043,0.0352 20.66797,18.54687 51.96484,34.21093 77.875,22.76562 7.375,-3.29687 13.11719,-8.09375 17.04297,-14.25391 8.14844,-12.97265 6.26562,-29.84765 -4.30859,-38.40234 -7.0625,-5.67187 -14.67188,-5.33203 -19.39844,-3.12109 -5.26953,2.55859 -8.03125,7.46484 -7.32031,13.08203 0.57812,4.65625 2.94921,7.59765 6.37109,7.87109 2.30078,0.30469 5.25,-1.07422 6.24609,-4.42578 0.58594,-1.98828 2.41797,-3.125 4.51172,-3.33203 2.08985,0.0352 3.90235,1.43359 4.44531,3.44922 1.89063,6.99219 -0.74609,14.47656 -7.0664,20.01172 -7.90625,6.94922 -22.52344,11.20312 -37.3086,5.05468 -20.01171,-8.37109 -33.875,-25.02343 -46.10156,-39.71093 -1.26953,-1.52735 -2.5039,-3.00391 -3.72265,-4.45313 2.60156,9.50781 2.46093,18.50391 -0.5586,26.10156 1.6875,1.82813 3.375,3.61329 5.10938,5.28516 z m -59.75,-51.37891 c 18.61718,4.8086 31.14453,16.57422 34.36328,32.28125 0.5039,2.51563 -1.11328,4.98829 -3.63672,5.50391 -0.14844,0.0234 -0.30859,0.0234 -0.46094,0.043 -0.16015,0.0195 -0.3125,0.043 -0.47265,0.043 -0.0156,0 -0.0234,-0.008 -0.043,-0.008 -0.0274,0 -0.0547,0 -0.082,-0.008 -0.0508,0.008 -0.0859,0.0156 -0.14063,0.0156 -2.25781,0.20703 -3.17187,3.35156 -3.26172,3.73437 -0.5664,2.71094 -0.0273,7.87891 5.59766,10.09375 2.97656,1.12891 5.61719,0.27344 7.30469,-0.62109 2.29296,-1.24609 4.35546,-3.42188 5.79296,-6.10547 0.0352,-0.0703 0.0469,-0.15234 0.082,-0.22266 2.32031,-4.43359 6.49609,-16.85546 -4.9336,-36.57421 -1.34765,-2.32813 -2.85937,-4.46094 -4.5039,-6.33594 -0.008,-0.008 -0.0156,-0.0274 -0.0274,-0.0352 -0.0156,-0.0195 -0.0351,-0.0273 -0.043,-0.043 -19.12109,-22.83984 -60.49609,-31.28906 -96.21484,-19.62109 -13.78516,4.50391 -26.38281,11.64062 -37.54297,21.14062 1.72266,8.28907 3.96875,16.52735 6.76172,24.60157 27.91016,-28.10547 66.25,-34.42969 91.46094,-27.88282 z m 37.59765,61.27735 c -0.94531,0.15234 -1.88672,0.25 -2.82812,0.25 -2.1211,0 -4.21875,-0.375 -6.23828,-1.13672 -9.9961,-3.92188 -12.89063,-13.46484 -11.38282,-20.6875 0.57813,-2.76563 1.76172,-5.07422 3.34375,-6.88672 -13.73046,-7.91797 -29.28125,-10.54687 -45,-7.88281 11.08985,1.76172 21.35157,6.39062 29.58204,13.70312 12.21875,10.86719 17.51562,26.00782 14.17187,40.51953 -0.48828,2.13282 -2.49609,3.17969 -4.60156,3.60938 -2.19531,-0.0273 -4.07031,-1.58203 -4.50391,-3.73438 -0.40234,-1.97265 -2.25,-2.76171 -3.71484,-2.84375 -0.98047,-0.14062 -4.27344,0.0898 -5.72266,4.56641 -1.17578,3.58203 -0.11719,6.55078 0.96875,8.41797 2.76953,5.0625 8.50391,7.77344 14.75781,6.94922 3.94532,-0.45703 7.41016,-1.69922 10.37891,-3.70703 4.63672,-3.13672 7.93359,-7.98828 9.77344,-14.38672 1.3789,-5.01172 1.70703,-10.74219 1.01562,-16.75 z m -121.125,-116.91797 c 2.86328,0.49609 5.24219,1.77734 7.06641,3.69531 10.5625,-9.1875 20.48047,-12.9375 27.78516,-10.30078 1.67968,0.60547 3.13671,1.55469 4.33593,2.77344 5.36719,-6.65625 10.97266,-9.9336 16.98047,-9.98828 h 0.14063 c 7.0039,0 13.64843,4.46875 20.22656,13.625 2.55078,-2.21485 5.60547,-3.48438 9.04297,-3.67969 5.32422,-0.26563 10.83203,2 15.92578,5.29687 0.0352,-1.08593 0.14062,-2.14453 0.42578,-3.13671 0.35547,-1.26563 1.01172,-2.73829 2.17578,-4.15235 -9.25781,-8.2539 -19.15625,-17.39062 -29.57031,-27.35156 -5.23438,-5.03516 -39.53516,-3.98047 -44.59766,0.15234 -7.29687,5.90235 -14.51953,12.35157 -21.51172,18.59766 -5.90234,5.27734 -11.60546,10.37109 -17.28515,15.09766 3.07422,-0.8086 6.13281,-1.1211 8.85937,-0.62891 z m 94.33203,123.28125 c -0.76171,-8.05859 -4.86718,-15.77344 -11.92578,-22.04688 -10.77734,-9.58593 -30.60937,-16.83984 -54.05859,-8.60156 -8.58594,5.42969 -16.44922,12.31641 -23.43359,20.48047 1.79687,3.37891 3.52734,6.45313 5.24218,9.30469 10.67969,-11.25 26.28516,-15.81641 38.10157,-15.23047 11.55468,0.58594 20.73046,5.61719 25.20312,13.80859 0.66406,1.21875 0.74609,2.67578 0.23047,3.96485 -0.52344,1.29687 -1.60156,2.28125 -2.92578,2.69922 -5.3125,1.67968 -6.35156,5.51953 -6.51172,7.64453 -0.26563,3.66797 1.64453,7.24218 4.63672,8.77734 0.0742,0.0352 0.14453,0.0703 0.21484,0.11719 1.70703,0.77344 3.75,0.89453 5.98828,0.35547 -0.96875,-3.58203 -0.91406,-7.39453 0.27735,-11.04688 2.30078,-7.0625 8.3789,-11.38281 15.11328,-10.98437 1.34375,0.082 2.64062,0.33984 3.84765,0.75781"
       fill-opacity="1"
       fill-rule="nonzero"
       id="path38" />
    <path
       fill="#6dcfda"
       d="m 607.04297,415.25 c -0.4961,-0.33594 -1.28125,-0.82422 -2.1875,-1.17188 0.70312,3.375 0.0117,6.94922 -2.11328,10.19922 -1.51172,2.33985 -3.5625,4.1875 -5.88282,5.46485 6.04297,6.29297 10.33594,15.57031 12.41407,27.11328 2.11328,11.64844 1.82031,25.74219 -1.41407,40.61719 2.07032,-4.39063 4.00782,-8.86719 5.77735,-13.4375 0.0273,-0.1211 0.043,-0.2461 0.0781,-0.36329 12.14063,-42.03125 0.9336,-63.13281 -6.67187,-68.42187 z m -62.3086,-42.29688 c 8.89454,5.44922 18.63672,13.9961 26.25782,27.27344 1.84765,-4.77344 5.10156,-9.03906 9.4375,-12.2539 -7.73828,-10.75391 -23.41407,-14.8125 -35.69532,-15.01954 z m -20.76562,189.70704 c -2.58594,5.91796 -8.43359,9.32031 -15.30859,9.09765 -7.54688,-0.41797 -13.57813,-5.99609 -15.67579,-13.8789 -4.20312,0.48828 -8.30078,0.72656 -12.33203,0.72656 -2.4375,0 -4.85156,-0.0859 -7.26953,-0.25781 h -0.84375 c -0.0117,0 -0.0273,-0.008 -0.0351,-0.008 -0.10938,0 -0.21485,0 -0.3125,0 -0.0195,0 -0.0195,-0.008 -0.0274,-0.008 -0.66406,-0.008 -1.38672,-0.0469 -2.01562,-0.16797 -0.0703,-0.0117 -0.125,-0.0469 -0.19532,-0.0625 -11.93359,-1.14062 -23.2539,-4.03515 -33.71484,-7.98047 19.87109,14.52735 40.9375,26.5586 59.5,29.22657 13.98828,2.04296 23.86719,-1.19141 27.73438,-9.12891 1.58984,-3.24219 1.84765,-6.83203 1.27734,-9.85156 -0.20313,0.77343 -0.44141,1.53515 -0.78125,2.29297 z M 452.1875,501.02734 c -0.66406,0.0352 -1.33984,0.008 -2.03125,-0.0547 -6,-0.4961 -13.47266,-4.99219 -14.83203,-16.00391 -1.04688,-8.37891 2.46875,-16.03906 9.3125,-20.74609 -1.8125,-4.73047 -6.61328,-7.27735 -10.78906,-7.44922 -1.42188,-0.1211 -5.25,0.0898 -7.3125,3.30859 1.38671,1.75781 2.20312,4.09375 2.29296,6.77734 0.17969,5.29688 -2.6289,11.95313 -8.34375,14.45704 -5.42968,2.45312 -11.34765,2.07031 -16.17187,-1.05469 -5.58203,-3.63672 -8.76172,-10.36328 -8.69141,-18.42969 0.0703,-8.73437 3.36719,-16.58203 9.33203,-22.73047 -9.13671,-5.35156 -28.55078,-18.20703 -60.60156,-46.1875 -0.15234,0.23047 -0.21484,0.4336 -0.25,0.56641 -0.61328,2.14062 0.91406,7.51953 7.22266,15.60547 0.66015,0.71875 1.51953,1.76562 2.39062,2.8164 1.63672,1.98828 1.3711,4.95703 -0.61328,6.58203 -0.87109,0.73047 -1.92578,1.08594 -2.97656,1.08594 -1.32422,0 -2.63672,-0.57031 -3.54297,-1.67969 l -0.0625,-0.0703 c -0.78125,-0.95312 -1.55469,-1.89453 -2.33594,-2.76562 -0.0117,-0.0156 -0.0195,-0.0274 -0.0273,-0.043 -0.0117,0 -0.0195,-0.008 -0.0195,-0.0195 -9.34766,-10.77735 -18.8125,-17.30078 -24.8086,-16.91797 -1.80468,0.10547 -3.22656,0.91406 -4.46093,2.47265 1.1914,2.07813 2.34765,4.22657 3.44922,6.48438 1.1289,2.3125 0.17578,5.09375 -2.14454,6.21875 -2.28125,1.12109 -5.09765,0.17187 -6.22656,-2.14844 -1.67969,-3.4375 -3.46484,-6.66406 -5.33203,-9.58594 -5.49219,-8.7539 -10.70703,-13.36718 -15.09766,-13.36718 h -0.0547 c -4.20313,0.0351 -9.00782,4.33593 -13.90625,12.43359 -1.03907,1.73047 -3.03907,2.60938 -5.03516,2.13281 -1.96484,-0.47265 -3.41406,-2.13281 -3.58984,-4.14062 -0.26953,-3.1211 -1.61719,-3.60938 -2.0625,-3.77735 -3.52735,-1.28906 -12.03907,1.9375 -22.33203,12.17188 -4.07813,3.99219 -8.22657,8.89453 -12.35157,14.60156 -0.91406,1.26172 -2.33593,1.92578 -3.77343,1.92578 -0.95313,0 -1.90235,-0.27343 -2.73047,-0.8789 -2.08594,-1.5 -2.5586,-4.41407 -1.04688,-6.50391 3.64063,-5.03125 7.3125,-9.47266 10.96485,-13.30078 -0.54297,-0.58984 -1.20704,-0.85547 -1.99219,-0.98828 -4.99219,-0.84375 -13.96875,3.8125 -17.48438,7.53515 0.0156,10.82422 0.85938,21.46094 2.47657,31.76563 10.72656,-8.37891 22.60546,-14.80078 35.4375,-19.13672 5.26953,-5.51953 9.29296,-12.54687 9.33984,-12.62109 1.26172,-2.23828 4.10547,-3.01172 6.34375,-1.75 2.23828,1.28125 3.01953,4.11718 1.75,6.35547 -0.0781,0.14843 -1.01172,1.75781 -2.53125,4.05859 35.40234,-6.92188 72.14453,2.73828 91.65625,25.10547 8.29297,4.51953 15.69141,13.39062 24.23437,23.64453 11.53907,13.87109 24.6211,29.59766 42.51563,37.07812 10.60937,4.41016 20.94531,1.80469 26.84375,-2.83203 z M 369.125,430.44531 c -0.91406,1.19141 -2.29297,1.8125 -3.67969,1.8125 -1.0039,0 -2,-0.32031 -2.85156,-0.97656 -1.49219,-1.15625 -2.3125,-1.98047 -2.3125,-1.98047 -1.79297,-1.82422 -1.78516,-4.77344 0.0391,-6.58594 1.8125,-1.79297 4.73438,-1.79297 6.52735,-0.0156 0.10156,0.0781 0.59765,0.5664 1.4414,1.21484 2.03516,1.57422 2.40625,4.50781 0.83594,6.53125 z m -71.16016,114.63672 c -5.60547,-3.17969 -11.01562,-5.61719 -16.25781,-7.3125 15.07031,10.31641 29.20703,26.64063 41.55859,40.91797 7.5,8.67578 14.58204,16.83984 20.64844,22.28516 12.63672,5.0664 25.63672,8.83593 38.90235,11.30468 -12.33204,-7.10156 -25.23438,-17.30859 -39.51563,-31.11718 -17.82422,-17.20313 -32.23828,-28.67579 -45.33594,-36.07813 z m -9.78906,-17.78906 c 0.39063,-5.40235 3,-9.96875 7.24219,-13.00781 -3.39453,-3.01172 -8.40625,-4.83594 -14.40625,-5.12891 -10.32422,-0.54297 -23.90235,3.69531 -32.44922,14.10156 0.84375,1.28906 1.69531,2.55078 2.57422,3.78516 11.84765,-2.78906 24.08203,-1.76563 37.05469,3.1289 -0.0703,-0.94921 -0.0781,-1.91015 -0.0156,-2.8789"
       fill-opacity="1"
       fill-rule="nonzero"
       id="path39" />
    <path
       fill="#0477bf"
       d="m 600.12109,458.50781 c -2.44531,-13.48828 -8.40625,-23.30859 -16.35937,-26.94922 -0.0781,-0.0273 -0.15235,-0.0547 -0.22266,-0.0898 7.20703,21.96484 10.99219,66.80469 -29.98047,100.24219 7.00391,5.13281 12.40625,12.29687 15.82813,20.95312 27.49219,-31.03906 35.29297,-68.92187 30.73437,-94.15625 z m -89.25,26.6211 c -0.22265,0 -0.44531,-0.0352 -0.66406,-0.0352 -0.33984,3.85547 -1.21094,7.69531 -2.67578,11.35547 1.06641,2.01953 1.96484,4.10547 2.72656,6.24609 13.91406,-6.32422 24.29297,-16.48047 29.45703,-29 0.64844,-1.59375 1.19141,-3.1914 1.66016,-4.80078 -0.46875,0.60547 -0.94922,1.21094 -1.45703,1.79688 -7.82813,9.15234 -18.71094,14.4375 -29.04688,14.4375 z m -7.46484,104.11718 c -2.74609,0.008 -5.73828,-0.20703 -9,-0.67578 -26.79297,-3.84765 -60.37109,-24.73828 -105.67188,-65.73047 -0.14843,-0.11328 -0.24609,-0.20312 -0.37109,-0.30859 -4.66797,-3.60156 -9.26953,-7.51953 -14.07812,-11.99609 -0.0156,-0.0195 -0.0352,-0.0352 -0.0508,-0.0547 -1.35156,-1.25391 -2.61328,-2.51563 -3.875,-3.77735 -0.17578,-0.14062 -0.33593,-0.30859 -0.49609,-0.48828 -1.17578,-1.13672 -2.33984,-2.32812 -3.48437,-3.53515 -0.98829,1.10156 -2.02735,2.14062 -3.16407,3.01953 1.10157,6.97656 1.05078,13.77344 -0.17578,19.95703 15.85938,12.23828 44.10938,33.58203 69.2461,50.23437 32.98437,21.875 58.2539,27.85547 79.51171,18.8711 0.0508,-0.0234 0.35547,-0.16797 0.6211,-0.28125 0.83594,-0.41797 1.67969,-0.84375 2.51562,-1.3086 0.19532,-0.125 0.40625,-0.23046 0.6211,-0.34375 0.0273,-0.0117 0.043,-0.0195 0.0625,-0.0391 6.80468,-3.63281 10.94531,-8.71484 13.20312,-13.84375 -3.96094,4.82813 -11.51562,10.30078 -25.41406,10.30078 z m -92.86328,13.20313 c -21.65625,-14.33985 -43.23828,-33.33985 -56.15235,-44.6875 -3.49218,-3.08203 -6.41406,-5.65235 -8.66406,-7.54297 -3.47265,1.80469 -7.29297,2.96875 -11.42578,3.44922 -1.12891,0.14062 -2.23828,0.21094 -3.33984,0.21094 -1.64453,0 -3.2461,-0.20313 -4.8086,-0.50782 7.28516,5.89453 15.08985,12.85938 23.61719,21.09766 29.56641,28.57812 52.42969,40.91797 76.45703,41.24609 h 0.0234 c 1.60937,-0.0156 3.10156,-0.0976 4.48828,-0.17578 v 0.0156 c 0.32813,-0.008 0.63281,-0.0156 0.89844,-0.0156 -6.66406,-3.46484 -13.32031,-7.89844 -20.15235,-12.45703 z M 336.12109,470.09375 c -4.8164,-5.93359 -12.19922,-10.32422 -21.70703,-12.77734 -24.26562,-6.26563 -61,1.6875 -85.49219,28.64843 1.42188,3.58985 2.9961,7.20703 4.71094,10.83985 7.02735,-7.71094 14.82031,-14.29688 23.27344,-19.60157 0.0508,-0.0351 0.11328,-0.0547 0.16797,-0.0898 0.008,0 0.008,-0.008 0.0156,-0.008 0.0391,-0.0156 0.0625,-0.0352 0.0977,-0.0547 0.0195,-0.008 0.0273,-0.0234 0.0469,-0.0352 0.0156,-0.0156 0.043,-0.0156 0.0625,-0.0273 25.55469,-15.91406 54.55079,-18.15234 78.82422,-6.89453 z m -77.28906,67.24219 c 17.02734,21.49218 37.98828,39.28125 61.73828,52.46093 -1.42969,-1.64453 -2.8789,-3.30468 -4.34375,-5.0039 -17.03515,-19.69141 -37.58594,-43.4961 -57.39453,-47.45703"
       fill-opacity="1"
       fill-rule="nonzero"
       id="path40" />
    <g
       clip-path="url(#028b8bf93d)"
       id="g41">
      <path
         fill="#27498c"
         d="m 637.00781,409.06641 c 0,-2.40625 -0.0742,-4.76172 -0.16015,-7.16016 0.0351,-0.21484 0.0703,-0.42969 0.0703,-0.66016 0,-0.27343 -0.0547,-0.55859 -0.10547,-0.83593 -4.60547,-116.35938 -99.41797,-207.49219 -215.86719,-207.49219 -115.57812,0 -210.39844,90.34375 -215.85547,205.59375 -0.20312,2.99219 -0.29297,6.07812 -0.29297,9.0625 v 1.49219 c 0,14.2539 1.35157,28.25 3.99219,41.57812 2.34375,12.17969 5.83594,24.29297 10.36719,35.96094 2.58594,6.8164 5.69922,13.77344 9.25,20.70312 0.0117,0.0195 0.0195,0.0352 0.0273,0.0547 3.69922,7.14453 7.04688,12.94531 10.48438,18.14453 2.02734,3.27735 4.25781,6.5586 6.51562,9.57813 23.875,33.19922 56.4336,58.83203 94.13672,74.13281 l 0.008,-0.008 c 0.0352,0.008 0.082,0.0351 0.11719,0.0547 l -0.0273,0.0625 c 25.88281,10.47657 53.23437,15.79688 81.27734,15.79688 1.86719,0 3.61719,0 5.21875,-0.0977 1.70313,0 3.50781,-0.0156 4.74219,-0.17578 0.0742,0 0.14453,0 0.21484,-0.008 0.90625,0 1.875,-0.0195 2.80078,-0.10938 v 0.0117 c 8.08594,-0.51562 15.33594,-1.33593 22.14063,-2.48047 0.0469,-0.008 0.0898,-0.0195 0.14453,-0.0273 0.0273,-0.008 0.0508,-0.008 0.0781,-0.0195 20.57031,-3.35547 40.47656,-9.71875 59.17187,-18.90625 0.26563,-0.10938 0.80859,-0.3125 1.05859,-0.46484 0.008,-0.008 0.008,-0.008 0.0156,-0.008 v -0.008 l 2.30078,-1.09375 c 0.375,-0.1875 0.96875,-0.48047 1.61719,-0.96875 18.22656,-9.36328 35.08984,-21.43359 50.125,-35.89844 l -0.0156,-0.008 c 0.3711,-0.26562 0.73828,-0.57031 0.82422,-0.80078 22.58203,-21.83203 39.75781,-47.72656 51.0586,-76.94141 l -0.008,-0.0117 c 0.11719,-0.29296 0.21485,-0.61328 0.27344,-0.9414 9.47266,-24.39844 14.30078,-50.32813 14.30078,-77.10156 z m -114.67187,24.01171 c -0.51563,-0.40234 -1.05078,-0.75781 -1.59375,-1.07812 0.96875,-0.44141 2.0625,-0.77344 3.21875,-0.93359 5.91015,-0.88672 11.50781,2.32812 15.00781,8.53125 2.88672,7.82812 0.61328,17.16015 -6.12109,25.04296 -6.30079,7.35547 -14.95704,11.46875 -22.80079,11.14844 -0.49218,-3.93359 -1.53125,-7.79297 -3.0664,-11.48828 1.33984,0.0703 2.6914,0.0703 4.05078,-0.10547 6.84375,-0.89844 12.51172,-4.78125 15.16016,-10.3789 4.26562,-8.94141 1.13671,-16.86719 -3.85547,-20.73829 z m -12.12891,52.01563 c 0.21875,0 0.44141,0.0352 0.66406,0.0352 10.33594,0 21.21875,-5.28516 29.04688,-14.4375 0.50781,-0.58594 0.98828,-1.19141 1.45703,-1.79688 -0.46875,1.60938 -1.01172,3.20703 -1.66016,4.80078 -5.16406,12.51953 -15.54297,22.67578 -29.45703,29 -0.76172,-2.14062 -1.66015,-4.22656 -2.72656,-6.24609 1.46484,-3.66016 2.33594,-7.5 2.67578,-11.35547 z m 2.28906,26.80859 c 16.90235,-7.23437 29.54688,-19.43359 35.82813,-34.65625 5.51172,-13.35547 5.57422,-27.79297 0.19531,-39.5039 -0.34375,-0.79297 -0.78906,-1.58985 -1.25,-2.39063 0,0 0,0 0,-0.008 -0.0273,-0.0469 -0.0352,-0.0898 -0.0625,-0.13672 -6.39844,-11.52344 -16.83203,-14.47266 -24.57812,-13.35547 -7.9375,1.14844 -14.06641,6.3711 -15.6211,13.29688 -0.4375,1.95312 0.41797,3.96093 2.1211,4.99218 1.71484,1.03125 3.88281,0.89844 5.41406,-0.39843 0.20312,-0.15235 1.08203,-0.082 2.07812,0.6914 1.90235,1.47657 3.33985,4.8086 1.15625,9.38282 -1.27343,2.6914 -4.32031,4.65625 -7.94531,5.13671 -4.50391,0.6211 -8.80469,-1.13671 -11.93359,-4.84375 -0.67578,-0.74609 -1.2461,-1.72265 -1.74219,-2.52343 -3.63281,-6.4961 -4.40625,-14.61719 -2.0625,-21.71485 2.62109,-7.9375 8.99219,-14.37109 18.46484,-18.625 21.83203,-9.91015 48.44532,-0.89062 59.3125,20.16016 7.64453,14.85937 18.6875,64.46875 -27.02734,99.30078 -10.71875,-4.62891 -22.78516,-4.88672 -32.80859,-1.13672 0.89843,-4.43359 1.0664,-9.02734 0.46093,-13.66797 z m -14.36718,23.23828 c -0.64844,0.7461 -1.23438,1.58985 -1.86719,2.53125 -5.73047,7.11719 -14.20703,11.35547 -22.69141,11.35547 h -0.76562 c -13.60547,-1.03906 -26.41797,-4.65625 -38.03125,-9.52343 1.61718,0.12109 3.23437,0.19531 4.85156,0.19531 7.70312,0 15.36328,-1.42188 22.71094,-4.67578 9.08984,-4.05078 16.1914,-10.03125 21.14062,-17.78907 10.62891,-16.91015 7.84766,-39.15234 -6.35156,-50.61328 -7.13672,-5.74218 -15.95313,-7.875 -24.04688,-6.05078 -3.47265,-8.5664 -11.66015,-12.80469 -18.85546,-13.09765 -8.60938,-0.57813 -15.89844,4.77734 -17.81641,13.07031 -0.52344,2.30078 0.61328,4.53906 2.82422,5.33984 0.17187,0.20313 0.51562,1.32422 0.0898,3.08203 -0.42578,1.79688 -1.46484,3.33203 -2.62109,3.83985 -2.56641,1.16406 -5.15235,1.03125 -7.30469,-0.35547 -2.87109,-1.86719 -4.49609,-5.71485 -4.46094,-10.53125 0.0703,-8.03906 3.91797,-15.08594 10.85938,-19.88672 11.50781,-8.03906 30.53906,-8.6875 39.41015,3.25391 1.1875,1.58203 3.24219,2.28515 5.10938,1.66015 10.4375,-3.19531 22.15234,0.45313 30.63672,9.5625 6.18359,6.51563 9.85547,15.10547 10.09375,23.66406 0.25781,4.95704 -0.75391,9.97657 -2.91406,14.53516 -0.64844,1.40625 -0.57813,3.03125 0.20312,4.375 2.02734,3.41797 3.51172,7.11719 4.39063,10.92969 2,8.875 0.36328,17.79687 -4.59375,25.1289 z m 10.53125,36.61719 c 6.875,0.22266 12.72265,-3.17969 15.30859,-9.09765 0.33984,-0.75782 0.57812,-1.51954 0.78125,-2.29297 0.57031,3.01953 0.3125,6.60937 -1.27734,9.85156 -3.86719,7.9375 -13.7461,11.17187 -27.73438,9.12891 -18.5625,-2.66797 -39.62891,-14.69922 -59.5,-29.22657 10.46094,3.94532 21.78125,6.83985 33.71484,7.98047 0.0703,0.0156 0.125,0.0508 0.19532,0.0625 0.6289,0.1211 1.35156,0.16016 2.01562,0.16797 0.008,0 0.008,0.008 0.0274,0.008 0.0976,0 0.20312,0 0.3125,0 0.008,0 0.0234,0.008 0.0351,0.008 h 0.84375 c 2.41797,0.17187 4.83203,0.25781 7.26953,0.25781 4.03125,0 8.12891,-0.23828 12.33203,-0.72656 2.09766,7.88281 8.12891,13.46093 15.67579,13.8789 z M 371.94141,468.28906 c 1.21875,1.44922 2.45312,2.92578 3.72265,4.45313 12.22656,14.6875 26.08985,31.33984 46.10156,39.71093 14.78516,6.14844 29.40235,1.89454 37.3086,-5.05468 6.32031,-5.53516 8.95703,-13.01953 7.0664,-20.01172 -0.54296,-2.01563 -2.35546,-3.41406 -4.44531,-3.44922 -2.09375,0.20703 -3.92578,1.34375 -4.51172,3.33203 -0.99609,3.35156 -3.94531,4.73047 -6.24609,4.42578 -3.42188,-0.27344 -5.79297,-3.21484 -6.37109,-7.87109 -0.71094,-5.61719 2.05078,-10.52344 7.32031,-13.08203 4.72656,-2.21094 12.33594,-2.55078 19.39844,3.12109 10.57421,8.55469 12.45703,25.42969 4.30859,38.40234 -3.92578,6.16016 -9.66797,10.95704 -17.04297,14.25391 -25.91016,11.44531 -57.20703,-4.21875 -77.875,-22.76562 -0.0156,-0.008 -0.0273,-0.0274 -0.043,-0.0352 0,-0.008 -0.0117,-0.008 -0.0117,-0.0195 -0.0156,-0.008 -0.0351,-0.0234 -0.0508,-0.043 0,0 -0.0117,0 -0.0117,0 -1.32031,-1.23438 -2.5664,-2.48828 -3.96875,-3.89063 0,0 -0.0117,-0.0117 -0.0195,-0.0195 -0.0156,-0.0156 -0.0547,-0.043 -0.0781,-0.0703 -1.73438,-1.67187 -3.42188,-3.45703 -5.10938,-5.28516 3.01953,-7.59765 3.16016,-16.59375 0.5586,-26.10156 z m 199.05078,-68.0625 c -7.6211,-13.27734 -17.36328,-21.82422 -26.25782,-27.27344 12.28125,0.20704 27.95704,4.26563 35.69532,15.01954 -4.33594,3.21484 -7.58985,7.48046 -9.4375,12.2539 z M 529,365.66797 c -15.51563,-5.16406 -32.25,-4.96875 -43.02734,0.59375 -5.04688,2.59765 -8.34375,6.21484 -9.53516,10.43359 -0.40625,1.46485 -0.0781,3.04688 0.88281,4.21094 0.7461,0.91797 1.78516,1.49219 2.92969,1.67187 0.71875,0.91407 1.88281,3.72266 1.45703,7.10938 -0.40625,3.25 -2.14062,5.57812 -5.125,6.9375 -4.97656,2.26562 -8.81641,0.45312 -11.15234,-1.46484 -4.71875,-3.84766 -8.38672,-12.58204 -5.9375,-23.44922 3.53906,-15.88672 14.97265,-24.15235 23.94922,-28.28516 15.36328,-7.07031 35.42578,-7.47266 47.73437,-0.93359 1.05859,0.57812 2.30859,0.69531 3.48438,0.36718 19.15625,-5.59765 41.6289,-2 60.05859,9.58594 13.42578,8.46094 23.35156,20.40235 28.84375,34.33594 -10.41406,-5.82813 -22.76563,-6.32813 -30.23828,-4.60156 -1.65235,0.36328 -3.19922,0.82422 -4.66406,1.35937 C 575.76562,364.39844 544.35156,360.46875 529,365.66797 Z M 420.94531,202.23047 c 99.8711,0 183.05078,70.0664 202.42188,164.7539 -6.16797,-8.78906 -14.13672,-16.39453 -23.69141,-22.42187 -20.0625,-12.625 -44.52734,-16.75 -65.83594,-11.14063 -14.88281,-7.01953 -36.875,-6.46875 -54.28906,1.54688 -10.88672,5.01172 -24.77734,15.10547 -29.15625,34.70703 -2.90625,12.96484 0.67578,25.79688 9.14453,32.70703 6.09375,4.96875 13.69922,5.96485 20.87891,2.73047 9.70703,-4.38281 12.03515,-14.27344 10.04297,-22.10937 -0.67578,-2.65625 -1.77735,-4.87891 -3.15625,-6.51172 0.77343,-0.69532 1.76953,-1.35157 2.93359,-1.95703 7.35938,-3.79297 21.72656,-5.11719 37.28516,0.46484 9.21484,3.25 23.6289,10.85547 34.18359,27.94531 -15.32812,-9.91797 -35.4375,-12.16406 -52.98437,-4.1875 -15.02735,6.76172 -21.0625,16.88281 -23.46875,24.1875 -1.8125,5.47656 -2.19532,11.40235 -1.28125,17.14063 -7.42579,-3.42969 -15.53907,-4.50391 -23.33204,-2.82422 -12.09375,-13.16797 -33.24218,-13.04297 -47.76953,-4.39844 -6.29297,-3.38672 -26.82812,-15.65625 -64.92968,-49.17578 -0.14454,-0.125 -0.28516,-0.21094 -0.42579,-0.30859 -10.28125,-9.03907 -21.48828,-19.34766 -33.3164,-30.66797 -9.39844,-9.04297 -49.10938,-6.71485 -56.91406,-0.34375 -7.46094,6.02343 -14.77344,12.55468 -21.84766,18.88281 -6.98438,6.23437 -13.68359,12.21484 -20.3125,17.56641 10.15625,-105.42188 98.64844,-186.58594 205.82031,-186.58594 z m -83.625,184.55859 c -1.16406,1.41406 -1.82031,2.88672 -2.17578,4.15235 -0.28516,0.99218 -0.39062,2.05078 -0.42578,3.13671 -5.09375,-3.29687 -10.60156,-5.5625 -15.92578,-5.29687 -3.4375,0.19531 -6.49219,1.46484 -9.04297,3.67969 -6.57813,-9.15625 -13.22266,-13.625 -20.22656,-13.625 h -0.14063 c -6.00781,0.0547 -11.61328,3.33203 -16.98047,9.98828 -1.19922,-1.21875 -2.65625,-2.16797 -4.33593,-2.77344 -7.30469,-2.63672 -17.22266,1.11328 -27.78516,10.30078 -1.82422,-1.91797 -4.20313,-3.19922 -7.06641,-3.69531 -2.72656,-0.49219 -5.78515,-0.17969 -8.85937,0.62891 5.67969,-4.72657 11.38281,-9.82032 17.28515,-15.09766 6.99219,-6.24609 14.21485,-12.69531 21.51172,-18.59766 5.0625,-4.13281 39.36328,-5.1875 44.59766,-0.15234 10.41406,9.96094 20.3125,19.09766 29.57031,27.35156 z m -123.19922,22.57031 c 3.51563,-3.72265 12.49219,-8.3789 17.48438,-7.53515 0.78515,0.13281 1.44922,0.39844 1.99219,0.98828 -3.65235,3.82812 -7.32422,8.26953 -10.96485,13.30078 -1.51172,2.08984 -1.03906,5.00391 1.04688,6.50391 0.82812,0.60547 1.77734,0.8789 2.73047,0.8789 1.4375,0 2.85937,-0.66406 3.77343,-1.92578 4.125,-5.70703 8.27344,-10.60937 12.35157,-14.60156 10.29296,-10.23438 18.80468,-13.46094 22.33203,-12.17188 0.44531,0.16797 1.79297,0.65625 2.0625,3.77735 0.17578,2.00781 1.625,3.66797 3.58984,4.14062 1.99609,0.47657 3.99609,-0.40234 5.03516,-2.13281 4.89843,-8.09766 9.70312,-12.39844 13.90625,-12.43359 h 0.0547 c 4.39063,0 9.60547,4.61328 15.09766,13.36718 1.86719,2.92188 3.65234,6.14844 5.33203,9.58594 1.12891,2.32031 3.94531,3.26953 6.22656,2.14844 2.32032,-1.125 3.27344,-3.90625 2.14454,-6.21875 -1.10157,-2.25781 -2.25782,-4.40625 -3.44922,-6.48438 1.23437,-1.55859 2.65625,-2.36718 4.46093,-2.47265 5.9961,-0.38281 15.46094,6.14062 24.8086,16.91797 0,0.0117 0.008,0.0195 0.0195,0.0195 0.008,0.0156 0.0156,0.0273 0.0273,0.043 0.78125,0.87109 1.55469,1.8125 2.33594,2.76562 l 0.0625,0.0703 c 0.90625,1.10938 2.21875,1.67969 3.54297,1.67969 1.05078,0 2.10547,-0.35547 2.97656,-1.08594 1.98438,-1.625 2.25,-4.59375 0.61328,-6.58203 -0.87109,-1.05078 -1.73047,-2.09765 -2.39062,-2.8164 -6.3086,-8.08594 -7.83594,-13.46485 -7.22266,-15.60547 0.0352,-0.13281 0.0977,-0.33594 0.25,-0.56641 32.05078,27.98047 51.46485,40.83594 60.60156,46.1875 -5.96484,6.14844 -9.26171,13.9961 -9.33203,22.73047 -0.0703,8.06641 3.10938,14.79297 8.69141,18.42969 4.82422,3.125 10.74219,3.50781 16.17187,1.05469 5.71485,-2.50391 8.52344,-9.16016 8.34375,-14.45704 -0.0898,-2.68359 -0.90625,-5.01953 -2.29296,-6.77734 2.0625,-3.21875 5.89062,-3.42969 7.3125,-3.30859 4.17578,0.17187 8.97656,2.71875 10.78906,7.44922 -6.84375,4.70703 -10.35938,12.36718 -9.3125,20.74609 1.35937,11.01172 8.83203,15.50781 14.83203,16.00391 0.69141,0.0625 1.36719,0.0898 2.03125,0.0547 -5.89844,4.63672 -16.23438,7.24219 -26.84375,2.83203 -17.89453,-7.48046 -30.97656,-23.20703 -42.51563,-37.07812 -8.54296,-10.25391 -15.9414,-19.125 -24.23437,-23.64453 -19.51172,-22.36719 -56.25391,-32.02735 -91.65625,-25.10547 1.51953,-2.30078 2.45312,-3.91016 2.53125,-4.05859 1.26953,-2.23829 0.48828,-5.07422 -1.75,-6.35547 -2.23828,-1.26172 -5.08203,-0.48828 -6.34375,1.75 -0.0469,0.0742 -4.07031,7.10156 -9.33984,12.62109 -12.83204,4.33594 -24.71094,10.75781 -35.4375,19.13672 -1.61719,-10.30469 -2.46094,-20.94141 -2.47657,-31.76563 z m 11.16016,66.82032 c -2.79297,-8.07422 -5.03906,-16.3125 -6.76172,-24.60157 11.16016,-9.5 23.75781,-16.63671 37.54297,-21.14062 35.71875,-11.66797 77.09375,-3.21875 96.21484,19.62109 0.008,0.0156 0.0274,0.0234 0.043,0.043 0.0117,0.008 0.0195,0.0274 0.0274,0.0352 1.64453,1.875 3.15625,4.00781 4.5039,6.33594 11.42969,19.71875 7.25391,32.14062 4.9336,36.57421 -0.0352,0.0703 -0.0469,0.15235 -0.082,0.22266 -1.4375,2.68359 -3.5,4.85938 -5.79296,6.10547 -1.6875,0.89453 -4.32813,1.75 -7.30469,0.62109 -5.625,-2.21484 -6.16406,-7.38281 -5.59766,-10.09375 0.0899,-0.38281 1.00391,-3.52734 3.26172,-3.73437 0.0547,0 0.0898,-0.008 0.14063,-0.0156 0.0273,0.008 0.0547,0.008 0.082,0.008 0.0195,0 0.0273,0.008 0.043,0.008 0.16015,0 0.3125,-0.0234 0.47265,-0.043 0.15235,-0.0195 0.3125,-0.0195 0.46094,-0.043 2.52344,-0.51562 4.14062,-2.98828 3.63672,-5.50391 -3.21875,-15.70703 -15.7461,-27.47265 -34.36328,-32.28125 -25.21094,-6.54687 -63.55078,-0.22265 -91.46094,27.88282 z m 96.53516,10.7539 c -8.23047,-7.3125 -18.49219,-11.9414 -29.58204,-13.70312 15.71875,-2.66406 31.26954,-0.0352 45,7.88281 -1.58203,1.8125 -2.76562,4.12109 -3.34375,6.88672 -1.50781,7.22266 1.38672,16.76562 11.38282,20.6875 2.01953,0.76172 4.11718,1.13672 6.23828,1.13672 0.9414,0 1.88281,-0.0977 2.82812,-0.25 0.69141,6.00781 0.36328,11.73828 -1.01562,16.75 -1.83985,6.39844 -5.13672,11.25 -9.77344,14.38672 -2.96875,2.00781 -6.43359,3.25 -10.37891,3.70703 -6.2539,0.82422 -11.98828,-1.88672 -14.75781,-6.94922 -1.08594,-1.86719 -2.14453,-4.83594 -0.96875,-8.41797 1.44922,-4.47656 4.74219,-4.70703 5.72266,-4.56641 1.46484,0.082 3.3125,0.8711 3.71484,2.84375 0.4336,2.15235 2.3086,3.70704 4.50391,3.73438 2.10547,-0.42969 4.11328,-1.47656 4.60156,-3.60938 3.34375,-14.51171 -1.95312,-29.65234 -14.17187,-40.51953 z m -92.89454,-0.96875 c 24.49219,-26.96093 61.22657,-34.91406 85.49219,-28.64843 9.50781,2.45312 16.89063,6.84375 21.70703,12.77734 -24.27343,-11.25781 -53.26953,-9.01953 -78.82422,6.89453 -0.0195,0.0117 -0.0469,0.0117 -0.0625,0.0273 -0.0195,0.0117 -0.0273,0.0274 -0.0469,0.0352 -0.0352,0.0195 -0.0586,0.0391 -0.0977,0.0547 -0.008,0 -0.008,0.008 -0.0156,0.008 -0.0547,0.0352 -0.11719,0.0547 -0.16797,0.0898 -8.45313,5.30469 -16.24609,11.89063 -23.27344,19.60157 -1.71484,-3.63282 -3.28906,-7.25 -4.71094,-10.83985 z m 14.44922,29.10938 c -1.71484,-2.85156 -3.44531,-5.92578 -5.24218,-9.30469 6.98437,-8.16406 14.84765,-15.05078 23.43359,-20.48047 23.44922,-8.23828 43.28125,-0.98437 54.05859,8.60156 7.0586,6.27344 11.16407,13.98829 11.92578,22.04688 -1.20703,-0.41797 -2.5039,-0.67578 -3.84765,-0.75781 -6.73438,-0.39844 -12.8125,3.92187 -15.11328,10.98437 -1.19141,3.65235 -1.2461,7.46485 -0.27735,11.04688 -2.23828,0.53906 -4.28125,0.41797 -5.98828,-0.35547 -0.0703,-0.0469 -0.14062,-0.082 -0.21484,-0.11719 -2.99219,-1.53516 -4.90235,-5.10937 -4.63672,-8.77734 0.16016,-2.125 1.19922,-5.96485 6.51172,-7.64453 1.32422,-0.41797 2.40234,-1.40235 2.92578,-2.69922 0.51562,-1.28907 0.43359,-2.7461 -0.23047,-3.96485 -4.47266,-8.1914 -13.64844,-13.22265 -25.20312,-13.80859 -11.81641,-0.58594 -27.42188,3.98047 -38.10157,15.23047 z m 5.19141,8.18359 c 8.54687,-10.40625 22.125,-14.64453 32.44922,-14.10156 6,0.29297 11.01172,2.11719 14.40625,5.12891 -4.24219,3.03906 -6.85156,7.60546 -7.24219,13.00781 -0.0625,0.96875 -0.0547,1.92969 0.0156,2.8789 -12.97266,-4.89453 -25.20704,-5.91796 -37.05469,-3.1289 -0.87891,-1.23438 -1.73047,-2.4961 -2.57422,-3.78516 z m 10.26953,14.07813 c 19.80859,3.96093 40.35938,27.76562 57.39453,47.45703 1.46485,1.69922 2.91406,3.35937 4.34375,5.0039 -23.75,-13.17968 -44.71094,-30.96875 -61.73828,-52.46093 z m 85.08203,63.63672 c -6.0664,-5.44532 -13.14844,-13.60938 -20.64844,-22.28516 -12.35156,-14.27734 -26.48828,-30.60156 -41.55859,-40.91797 5.24219,1.69531 10.65234,4.13281 16.25781,7.3125 13.09766,7.40234 27.51172,18.875 45.33594,36.07813 14.28125,13.80859 27.18359,24.01562 39.51563,31.11718 -13.26563,-2.46875 -26.26563,-6.23828 -38.90235,-11.30468 z m 86.82422,14.58203 v -0.0156 c -1.38672,0.0781 -2.87891,0.16016 -4.48828,0.17578 h -0.0234 c -24.02734,-0.32812 -46.89062,-12.66797 -76.45703,-41.24609 -8.52734,-8.23828 -16.33203,-15.20313 -23.61719,-21.09766 1.5625,0.30469 3.16407,0.50782 4.8086,0.50782 1.10156,0 2.21093,-0.0703 3.33984,-0.21094 4.13281,-0.48047 7.95313,-1.64453 11.42578,-3.44922 2.25,1.89062 5.17188,4.46094 8.66406,7.54297 12.91407,11.34765 34.4961,30.34765 56.15235,44.6875 l 0.9414,0.63281 c 6.83204,4.55859 13.48829,8.99219 20.15235,12.45703 -0.26563,0 -0.57031,0.008 -0.89844,0.0156 z m 24.23047,-2.5586 c -12.06641,-0.14843 -24.23828,-8.27343 -38.32422,-17.66406 l -0.94141,-0.64062 c -21.14843,-13.9961 -41.61328,-32.00782 -55.15234,-43.92188 -2.71875,-2.39844 -5.10937,-4.49609 -7.12891,-6.23047 2.63282,-2.67187 4.82813,-5.86328 6.54297,-9.49609 16.33203,12.55469 43.12891,32.6914 67.16797,48.61328 19.83203,13.14062 37.27344,20.91797 53.03906,23.49219 -8.24609,2.47265 -16.66015,4.44531 -25.20312,5.84765 z m 60.64844,-20.20703 c -0.0195,0.0195 -0.0352,0.0274 -0.0625,0.0391 -0.0352,0.0156 -0.0703,0.043 -0.10547,0.0586 -0.17188,0.0977 -0.34766,0.1875 -0.51563,0.28515 -0.83593,0.46485 -1.67968,0.89063 -2.51562,1.3086 -0.26563,0.11328 -0.57031,0.25781 -0.6211,0.28125 -21.25781,8.98437 -46.52734,3.0039 -79.51171,-18.8711 -25.13672,-16.65234 -53.38672,-37.99609 -69.2461,-50.23437 1.22656,-6.18359 1.27735,-12.98047 0.17578,-19.95703 1.13672,-0.87891 2.17578,-1.91797 3.16407,-3.01953 1.14453,1.20703 2.30859,2.39843 3.48437,3.53515 0.16016,0.17969 0.32031,0.34766 0.49609,0.48828 1.26172,1.26172 2.52344,2.52344 3.875,3.77735 0.0156,0.0195 0.0352,0.0351 0.0508,0.0547 4.80859,4.47656 9.41015,8.39453 14.07812,11.99609 0.125,0.10547 0.22266,0.19531 0.37109,0.30859 45.30079,40.99219 78.87891,61.88282 105.67188,65.73047 3.26172,0.46875 6.25391,0.6836 9,0.67578 13.89844,0 21.45312,-5.47265 25.41406,-10.30078 -2.25781,5.12891 -6.39844,10.21094 -13.20312,13.84375 z m 23.13672,-13.88672 c 1.42187,-4.5664 1.83203,-9.04687 1.48437,-12.88281 -0.83594,-9.36719 -5.80859,-16.41406 -13.13281,-18.86719 -0.0547,-0.0156 -0.10547,-0.043 -0.16016,-0.0625 0,0 -0.008,0 -0.008,0 -2.75391,-1.0039 -5.97266,-1.29687 -9.33203,-0.80859 -1.75,0.25781 -3.19922,1.46875 -3.75781,3.13672 -0.55079,1.67969 -0.11329,3.52734 1.1289,4.77344 1.21875,1.22656 1.1211,3.25 0.47266,4.71875 -0.5,1.11718 -1.91016,3.57031 -6.32813,3.54296 -4.14843,-0.22265 -7.34765,-4.43359 -7.625,-10.12109 -0.22265,-3.10937 0.60547,-6.37109 2.26563,-9.11719 0.72265,-0.85937 1.33594,-1.6875 1.79687,-2.47656 l 0.96875,-1.03906 c 8.53125,-8.35547 24.32032,-9.83985 36.71485,-3.46875 0.13281,0.0742 0.26562,0.10937 0.40234,0.16015 6.41406,3.35157 14.55469,10.1211 18.5,23.60157 -7.36719,6.90625 -15.16797,13.21484 -23.39062,18.91015 z m 30.63281,-26.23828 c -3.42188,-8.65625 -8.82422,-15.82031 -15.82813,-20.95312 40.97266,-33.4375 37.1875,-78.27735 29.98047,-100.24219 0.0703,0.0352 0.14453,0.0625 0.22266,0.0898 7.95312,3.64063 13.91406,13.46094 16.35937,26.94922 4.5586,25.23438 -3.24218,63.11719 -30.73437,94.15625 z m 44.32812,-68.99219 c -0.0351,0.11719 -0.0508,0.24219 -0.0781,0.36329 -1.76953,4.57031 -3.70703,9.04687 -5.77735,13.4375 3.23438,-14.875 3.52735,-28.96875 1.41407,-40.61719 -2.07813,-11.54297 -6.3711,-20.82031 -12.41407,-27.11328 2.32032,-1.27735 4.3711,-3.125 5.88282,-5.46485 2.125,-3.25 2.8164,-6.82422 2.11328,-10.19922 0.90625,0.34766 1.6914,0.83594 2.1875,1.17188 7.60547,5.28906 18.8125,26.39062 6.67187,68.42187 z m -1.36718,-76.07031 c -5.83594,-4.03515 -12.42969,-4.34765 -17.23047,-0.78125 -1.06641,0.78906 -1.75,1.98828 -1.86328,3.3125 -0.11719,1.31641 0.32812,2.62891 1.22656,3.59766 1.57031,1.67969 1.73047,3.52734 0.46094,5.46484 -1.42969,2.22266 -4.54297,3.99219 -7.55469,2.97656 -5.1875,-1.78515 -8.39453,-5.99609 -8.79688,-11.57812 -0.48828,-6.83984 3.52735,-13.49609 10.34375,-16.99609 1.89453,-1.01563 4,-1.78907 6.45313,-2.34766 8.61719,-1.98828 24.45312,0.375 32.16406,11.33984 0.082,2.16797 0.14453,4.28907 0.14453,6.47657 0,7.67578 -0.46484,15.26562 -1.28906,22.77343 -2.63281,-11.60547 -7.77734,-19.88672 -14.05859,-24.23828 z m -249.75391,23.67969 c 0.85156,0.65625 1.84766,0.97656 2.85156,0.97656 1.38672,0 2.76563,-0.62109 3.67969,-1.8125 1.57031,-2.02344 1.19922,-4.95703 -0.83594,-6.53125 -0.84375,-0.64844 -1.33984,-1.13672 -1.4414,-1.21484 -1.79297,-1.77735 -4.71485,-1.77735 -6.52735,0.0156 -1.82422,1.8125 -1.83203,4.76172 -0.0391,6.58594 0,0 0.82031,0.82422 2.3125,1.98047"
         fill-opacity="1"
         fill-rule="nonzero"
         id="path41" />
    </g>
    <g
       fill="#27498c"
       fill-opacity="1"
       id="g44">
      <g
         transform="translate(190.30271,368.63892)"
         id="g43">
        <g
           id="g42">
          <path
             d="m -2.578125,-4.296875 -23.5,-4.859375 c -0.914063,-0.1875 -1.628906,-0.671875 -2.140625,-1.453125 -0.519531,-0.78125 -0.679688,-1.632813 -0.484375,-2.5625 L -26.5,-23.84375 c 0.25,-1.238281 0.640625,-2.421875 1.171875,-3.546875 0.53125,-1.125 1.203125,-2.085937 2.015625,-2.890625 0.804688,-0.8125 1.761719,-1.398438 2.875,-1.765625 1.117188,-0.375 2.375,-0.414063 3.78125,-0.125 l 0.07813,0.01563 c 1.699219,0.34375 2.984375,1.011719 3.859375,2 0.875,0.992188 1.484375,2.09375 1.828125,3.3125 1.03125,-1.625 2.21875,-2.816406 3.5625,-3.578125 1.335937,-0.769531 3.007813,-0.945313 5.015625,-0.53125 l 0.09375,0.01563 c 1.375,0.28125 2.519531,0.792969 3.4375,1.53125 0.925781,0.742188 1.628906,1.679688 2.109375,2.8125 0.476563,1.136719 0.75,2.4375 0.8125,3.90625 0.0625,1.46875 -0.085937,3.046875 -0.4375,4.734375 L 1.4375,-6.9375 c -0.199219,0.929688 -0.683594,1.648438 -1.453125,2.15625 -0.78125,0.511719 -1.632813,0.671875 -2.5625,0.484375 z m -7.78125,-8.328125 6.625,1.359375 1.625,-7.890625 c 0.304687,-1.46875 0.277344,-2.671875 -0.078125,-3.609375 -0.363281,-0.9375 -1.109375,-1.519531 -2.234375,-1.75 L -4.5,-24.53125 c -1.007812,-0.207031 -1.882812,0.01563 -2.625,0.671875 -0.738281,0.648437 -1.289062,1.835937 -1.65625,3.5625 z m -5.515625,-1.140625 1.265625,-6.125 c 0.304687,-1.46875 0.292969,-2.679687 -0.03125,-3.640625 -0.332031,-0.96875 -1.054687,-1.570312 -2.171875,-1.8125 l -0.07813,-0.01563 c -1.007813,-0.207031 -1.851563,0.0078 -2.53125,0.640625 -0.6875,0.636719 -1.175781,1.65625 -1.46875,3.0625 l -1.359375,6.5625 z m 0,0"
             id="path42" />
        </g>
      </g>
    </g>
    <g
       fill="#27498c"
       fill-opacity="1"
       id="g47">
      <g
         transform="translate(198.47347,331.41098)"
         id="g46">
        <g
           id="g45">
          <path
             d="m -26.546875,-17.375 c 0.335937,-0.875 0.929687,-1.5 1.78125,-1.875 0.855469,-0.382812 1.71875,-0.410156 2.59375,-0.07813 l 13.328125,5.171875 c 2.398438,0.9375 4.386719,1.09375 5.96875,0.46875 1.585938,-0.632812 2.757812,-1.9375 3.515625,-3.90625 0.757813,-1.957031 0.785156,-3.695312 0.078125,-5.21875 -0.7109375,-1.519531 -2.222656,-2.734375 -4.546875,-3.640625 l -13.53125,-5.25 c -0.875,-0.332031 -1.5,-0.921875 -1.875,-1.765625 -0.375,-0.851562 -0.394531,-1.71875 -0.0625,-2.59375 0.34375,-0.875 0.945313,-1.5 1.796875,-1.875 0.855469,-0.382812 1.71875,-0.410156 2.59375,-0.07813 l 13.28125,5.15625 c 2.15625,0.84375 3.929688,1.875 5.328125,3.09375 1.394531,1.21875 2.421875,2.585937 3.078125,4.09375 0.65625,1.511719 0.945312,3.140625 0.875,4.890625 -0.0625,1.75 -0.46875,3.601562 -1.21875,5.546875 -1.5,3.855469 -3.746094,6.476563 -6.734375,7.859375 -2.988281,1.386719 -6.601563,1.257812 -10.84375,-0.390625 L -24.625,-13 c -0.875,-0.332031 -1.5,-0.925781 -1.875,-1.78125 -0.375,-0.851562 -0.390625,-1.71875 -0.04687,-2.59375 z m 0,0"
             id="path44" />
        </g>
      </g>
    </g>
    <g
       fill="#27498c"
       fill-opacity="1"
       id="g50">
      <g
         transform="translate(213.22994,294.73802)"
         id="g49">
        <g
           id="g48">
          <path
             d="M -0.734375,-4.75 -21.6875,-17.40625 c -0.800781,-0.488281 -1.3125,-1.1875 -1.53125,-2.09375 -0.226562,-0.90625 -0.101562,-1.757812 0.375,-2.5625 l 0.359375,-0.59375 c 0.429687,-0.707031 0.9375,-1.191406 1.53125,-1.453125 0.585937,-0.257813 1.25,-0.441406 2,-0.546875 L 2.46875,-26.953125 -11.125,-35.171875 c -0.800781,-0.476563 -1.3125,-1.160156 -1.53125,-2.046875 -0.21875,-0.894531 -0.08203,-1.742188 0.40625,-2.546875 0.480469,-0.800781 1.164062,-1.3125 2.046875,-1.53125 0.886719,-0.21875 1.730469,-0.08594 2.53125,0.390625 L 13.3125,-28.234375 c 0.800781,0.492187 1.3125,1.1875 1.53125,2.09375 0.21875,0.90625 0.08203,1.761719 -0.40625,2.5625 l -0.109375,0.1875 c -0.429687,0.710937 -0.933594,1.195313 -1.515625,1.453125 -0.585938,0.25 -1.242188,0.433594 -1.96875,0.546875 l -22.234375,2.40625 14.109375,8.515625 C 3.519531,-9.976562 4.03125,-9.289062 4.25,-8.40625 4.476562,-7.519531 4.351562,-6.675781 3.875,-5.875 3.382812,-5.070312 2.691406,-4.5625 1.796875,-4.34375 0.910156,-4.125 0.0664062,-4.257812 -0.734375,-4.75 Z m 0,0"
             id="path47" />
        </g>
      </g>
    </g>
    <g
       fill="#27498c"
       fill-opacity="1"
       id="g53">
      <g
         transform="translate(235.01988,259.94885)"
         id="g52">
        <g
           id="g51">
          <path
             d="M -0.15625,-5 -18.3125,-20.703125 c -0.707031,-0.613281 -1.09375,-1.390625 -1.15625,-2.328125 -0.07031,-0.9375 0.199219,-1.757812 0.8125,-2.46875 l 7.140625,-8.234375 c 0.824219,-0.957031 1.746094,-1.796875 2.765625,-2.515625 1.011719,-0.726562 2.070312,-1.25 3.171875,-1.5625 1.09375,-0.3125 2.21875,-0.351562 3.375,-0.125 1.148437,0.21875 2.265625,0.796875 3.359375,1.734375 l 0.0625,0.04687 c 1.300781,1.136719 2.09375,2.351562 2.375,3.640625 0.289062,1.28125 0.289062,2.539063 0,3.765625 1.675781,-0.90625 3.285156,-1.367188 4.828125,-1.390625 1.550781,-0.01953 3.101563,0.640625 4.65625,1.984375 l 0.07813,0.0625 c 1.0625,0.917969 1.8125,1.921875 2.25,3.015625 0.4375,1.09375 0.59375,2.261719 0.46875,3.5 -0.125,1.230469 -0.523438,2.496094 -1.1875,3.796875 -0.667969,1.304688 -1.570312,2.609375 -2.703125,3.921875 l -7.359375,8.5 C 4.007812,-4.648438 3.234375,-4.257812 2.296875,-4.1875 1.367188,-4.113281 0.550781,-4.382812 -0.15625,-5 Z m -2.734375,-11.09375 5.125,4.421875 L 7.5,-17.75 c 0.988281,-1.132812 1.550781,-2.195312 1.6875,-3.1875 0.144531,-1 -0.214844,-1.875 -1.078125,-2.625 l -0.0625,-0.04687 c -0.78125,-0.675781 -1.65625,-0.910156 -2.625,-0.703125 -0.96875,0.210938 -2.03125,0.976562 -3.1875,2.296875 z m -4.25,-3.671875 4.09375,-4.71875 c 0.980469,-1.132813 1.5625,-2.203125 1.75,-3.203125 0.179687,-1 -0.164063,-1.875 -1.03125,-2.625 l -0.0625,-0.04687 c -0.78125,-0.675781 -1.617187,-0.90625 -2.515625,-0.6875 -0.90625,0.21875 -1.828125,0.875 -2.765625,1.96875 l -4.390625,5.046875 z m 0,0"
             id="path50" />
        </g>
      </g>
    </g>
    <g
       fill="#27498c"
       fill-opacity="1"
       id="g56">
      <g
         transform="translate(260.31055,231.43364)"
         id="g55">
        <g
           id="g54">
          <path
             d="m -14.703125,-28.125 c 0.730469,-0.59375 1.5625,-0.847656 2.5,-0.765625 0.929687,0.08594 1.6875,0.492187 2.28125,1.21875 L -0.8125,-16.65625 c 1.644531,1.980469 3.304688,3.085938 4.984375,3.3125 1.6875,0.21875 3.34375,-0.34375 4.96875,-1.6875 1.625,-1.34375 2.492187,-2.851562 2.609375,-4.53125 0.125,-1.675781 -0.605469,-3.472656 -2.1875,-5.390625 l -9.25,-11.1875 c -0.59375,-0.726563 -0.847656,-1.550781 -0.765625,-2.46875 0.085937,-0.925781 0.484375,-1.6875 1.203125,-2.28125 0.71875,-0.601563 1.539062,-0.863281 2.46875,-0.78125 0.9375,0.08594 1.703125,0.492187 2.296875,1.21875 l 9.078125,10.984375 c 1.476562,1.78125 2.53125,3.546875 3.15625,5.296875 0.625,1.75 0.851562,3.445313 0.6875,5.078125 -0.15625,1.636719 -0.695312,3.203125 -1.609375,4.703125 -0.90625,1.492187 -2.167969,2.902344 -3.78125,4.234375 -3.1875,2.636719 -6.429687,3.828125 -9.71875,3.578125 -3.28125,-0.25 -6.367187,-2.128906 -9.265625,-5.640625 l -9.21875,-11.140625 c -0.59375,-0.726563 -0.84375,-1.554687 -0.75,-2.484375 0.08594,-0.925781 0.484375,-1.6875 1.203125,-2.28125 z m 0,0"
             id="path53" />
        </g>
      </g>
    </g>
    <g
       fill="#27498c"
       fill-opacity="1"
       id="g59">
      <g
         transform="translate(291.2056,206.66042)"
         id="g58">
        <g
           id="g57">
          <path
             d="m -10.515625,-25.5625 c -0.46875,-0.8125 -0.578125,-1.671875 -0.328125,-2.578125 0.242188,-0.90625 0.765625,-1.59375 1.578125,-2.0625 L 0,-35.546875 c 1.40625,-0.8125 2.820312,-1.390625 4.25,-1.734375 1.425781,-0.351562 2.796875,-0.425781 4.109375,-0.21875 1.3125,0.199219 2.550781,0.699219 3.71875,1.5 1.164063,0.804688 2.179687,1.953125 3.046875,3.453125 l 0.04687,0.07813 c 1.226563,2.136719 1.738281,4.136719 1.53125,6 -0.210937,1.867188 -0.9375,3.59375 -2.1875,5.1875 l 6.921875,2.59375 c 0.488281,0.199219 0.921875,0.417969 1.296875,0.65625 0.375,0.230469 0.691406,0.578125 0.953125,1.046875 0.46875,0.804687 0.5625,1.621094 0.28125,2.453125 -0.273438,0.824219 -0.765625,1.445312 -1.484375,1.859375 -0.65625,0.375 -1.304687,0.546875 -1.9375,0.515625 -0.625,-0.03125 -1.242187,-0.15625 -1.84375,-0.375 l -9.875,-3.9375 -4.6875,2.703125 L 7.5,-7.9375 C 7.96875,-7.125 8.082031,-6.265625 7.84375,-5.359375 7.601562,-4.460938 7.078125,-3.78125 6.265625,-3.3125 5.453125,-2.84375 4.59375,-2.726562 3.6875,-2.96875 2.78125,-3.207031 2.09375,-3.734375 1.625,-4.546875 Z m 7.234375,-1.03125 4.421875,7.65625 5.9375,-3.4375 c 1.445313,-0.832031 2.359375,-1.816406 2.734375,-2.953125 0.382812,-1.132813 0.25,-2.273437 -0.40625,-3.421875 l -0.046875,-0.0625 c -0.75,-1.300781 -1.714844,-2.023438 -2.890625,-2.171875 -1.167969,-0.15625 -2.480469,0.1875 -3.9375,1.03125 z m 0,0"
             id="path56" />
        </g>
      </g>
    </g>
    <g
       fill="#27498c"
       fill-opacity="1"
       id="g62">
      <g
         transform="translate(324.59649,188.0383)"
         id="g61">
        <g
           id="g60">
          <path
             d="m -8.953125,-26.3125 c -0.332031,-0.851562 -0.300781,-1.691406 0.09375,-2.515625 0.398437,-0.820313 1.03125,-1.398437 1.90625,-1.734375 0.710937,-0.269531 1.375,-0.320312 2,-0.15625 0.625,0.167969 1.246094,0.46875 1.859375,0.90625 l 10.8125,7.40625 3.265625,-12.859375 c 0.15625,-0.71875 0.414063,-1.335937 0.78125,-1.859375 0.363281,-0.519531 0.875,-0.910156 1.53125,-1.171875 0.957031,-0.351563 1.820313,-0.34375 2.59375,0.03125 0.78125,0.375 1.335937,1 1.671875,1.875 0.164062,0.4375 0.234375,0.875 0.203125,1.3125 -0.02344,0.4375 -0.08594,0.84375 -0.1875,1.21875 l -4.53125,16.0625 3.15625,8.296875 c 0.332031,0.875 0.304687,1.742188 -0.07813,2.59375 -0.386719,0.855469 -1.015625,1.449219 -1.890625,1.78125 -0.875,0.335938 -1.742187,0.308594 -2.59375,-0.078125 C 10.785156,-5.585938 10.191406,-6.21875 9.859375,-7.09375 L 6.75,-15.265625 -7.328125,-24.359375 c -0.332031,-0.21875 -0.644531,-0.484375 -0.9375,-0.796875 -0.289063,-0.3125 -0.519531,-0.695312 -0.6875,-1.15625 z m 0,0"
             id="path59" />
        </g>
      </g>
    </g>
    <g
       fill="#27498c"
       fill-opacity="1"
       id="g68">
      <g
         transform="translate(379.24254,170.79093)"
         id="g67">
        <g
           id="g66">
          <path
             d="m 1.390625,-31.40625 c 0.875,-0.09375 1.617187,0.05859 2.234375,0.453125 0.625,0.386719 1.109375,0.898437 1.453125,1.53125 l 9.875,18.921875 5.453125,-20.890625 c 0.175781,-0.582031 0.515625,-1.125 1.015625,-1.625 0.507813,-0.5 1.171875,-0.796875 1.984375,-0.890625 0.925781,-0.101562 1.742188,0.117188 2.453125,0.65625 0.71875,0.542969 1.128906,1.277344 1.234375,2.203125 0.03125,0.261719 0.02344,0.53125 -0.01563,0.8125 -0.04297,0.273437 -0.09375,0.511719 -0.15625,0.71875 L 19.625,-4.4375 c -0.53125,1.855469 -1.699219,2.886719 -3.5,3.09375 l -0.4375,0.046875 C 13.882812,-1.085938 12.519531,-1.832031 11.59375,-3.53125 L -1.015625,-26.125 c -0.144531,-0.25 -0.269531,-0.5 -0.375,-0.75 -0.113281,-0.257812 -0.1875,-0.535156 -0.21875,-0.828125 -0.101563,-0.925781 0.140625,-1.742187 0.734375,-2.453125 0.585938,-0.71875 1.335938,-1.132812 2.265625,-1.25 z m 0,0"
             id="path65" />
        </g>
      </g>
    </g>
    <g
       fill="#27498c"
       fill-opacity="1"
       id="g71">
      <g
         transform="translate(417.87113,167.41271)"
         id="g70">
        <g
           id="g69">
          <path
             d="m 4.46875,-27.59375 c 0.00781,-0.9375 0.347656,-1.726562 1.015625,-2.375 0.675781,-0.65625 1.484375,-0.972656 2.421875,-0.953125 0.9375,0.01172 1.726562,0.355469 2.375,1.03125 0.644531,0.679687 0.960938,1.484375 0.953125,2.421875 L 10.8125,-2.9375 C 10.800781,-2 10.460938,-1.207031 9.796875,-0.5625 9.128906,0.0820312 8.328125,0.398438 7.390625,0.390625 6.453125,0.367188 5.65625,0.0234375 5,-0.640625 4.351562,-1.316406 4.035156,-2.125 4.046875,-3.0625 Z m 0,0"
             id="path68" />
        </g>
      </g>
    </g>
    <g
       fill="#27498c"
       fill-opacity="1"
       id="g74">
      <g
         transform="translate(439.67871,167.82805)"
         id="g73">
        <g
           id="g72">
          <path
             d="M 7.4375,-26.890625 C 7.5625,-27.828125 8,-28.570312 8.75,-29.125 c 0.75,-0.5625 1.585938,-0.78125 2.515625,-0.65625 0.925781,0.125 1.671875,0.5625 2.234375,1.3125 0.5625,0.742188 0.78125,1.578125 0.65625,2.515625 L 11.21875,-4.65625 23.625,-2.953125 c 0.832031,0.117187 1.503906,0.511719 2.015625,1.1875 0.519531,0.679687 0.722656,1.4375 0.609375,2.28125 -0.117188,0.84375 -0.515625,1.519531 -1.203125,2.03125 -0.679687,0.507813 -1.433594,0.707031 -2.265625,0.59375 L 7.015625,0.96875 c -0.929687,-0.125 -1.679687,-0.5625 -2.25,-1.3125 -0.5625,-0.75 -0.777344,-1.585938 -0.640625,-2.515625 z m 0,0"
             id="path71" />
        </g>
      </g>
    </g>
    <g
       fill="#27498c"
       fill-opacity="1"
       id="g77">
      <g
         transform="translate(473.16831,172.93989)"
         id="g76">
        <g
           id="g75">
          <path
             d="m 11.265625,-25.53125 c 0.257813,-0.894531 0.796875,-1.566406 1.609375,-2.015625 0.820312,-0.457031 1.679688,-0.554687 2.578125,-0.296875 0.894531,0.261719 1.566406,0.804688 2.015625,1.625 0.457031,0.824219 0.554688,1.683594 0.296875,2.578125 l -6,20.65625 12.046875,3.5 c 0.800781,0.226563 1.410156,0.710937 1.828125,1.453125 0.414063,0.738281 0.503906,1.519531 0.265625,2.34375 -0.242188,0.820312 -0.734375,1.4375 -1.484375,1.84375 -0.75,0.40625 -1.527344,0.492188 -2.328125,0.265625 L 6.796875,1.96875 C 5.898438,1.707031 5.222656,1.164062 4.765625,0.34375 4.316406,-0.46875 4.226562,-1.320312 4.5,-2.21875 Z m 0,0"
             id="path74" />
        </g>
      </g>
    </g>
    <g
       fill="#27498c"
       fill-opacity="1"
       id="g80">
      <g
         transform="translate(505.47108,182.59076)"
         id="g79">
        <g
           id="g78">
          <path
             d="M 3.65625,-3.09375 23.6875,-20.421875 c 0.71875,-0.601563 1.472656,-0.972656 2.265625,-1.109375 0.789063,-0.144531 1.613281,-0.01563 2.46875,0.390625 l 0.34375,0.15625 c 0.851563,0.40625 1.472656,0.960937 1.859375,1.65625 0.382812,0.699219 0.5625,1.511719 0.53125,2.4375 l -0.625,26.484375 c -0.0625,0.6875 -0.152344,1.148438 -0.265625,1.390625 -0.398437,0.820313 -1.007813,1.382813 -1.828125,1.6875 -0.824219,0.300781 -1.648438,0.257813 -2.46875,-0.125 C 25.25,12.210938 24.742188,11.738281 24.453125,11.125 c -0.292969,-0.605469 -0.4375,-1.292969 -0.4375,-2.0625 l 0.203125,-5.265625 -12.234375,-5.78125 -4.125,3.65625 C 7.316406,2.160156 6.722656,2.453125 6.078125,2.546875 5.429688,2.648438 4.785156,2.550781 4.140625,2.25 3.347656,1.875 2.804688,1.28125 2.515625,0.46875 2.234375,-0.34375 2.28125,-1.148438 2.65625,-1.953125 2.757812,-2.160156 2.894531,-2.359375 3.0625,-2.546875 3.238281,-2.742188 3.4375,-2.925781 3.65625,-3.09375 Z m 13.125,-3.234375 7.71875,3.640625 0.484375,-11 z m 0,0"
             id="path77" />
        </g>
      </g>
    </g>
    <g
       fill="#27498c"
       fill-opacity="1"
       id="g83">
      <g
         transform="translate(541.38512,200.11382)"
         id="g82">
        <g
           id="g81">
          <path
             d="m 33.140625,-14.9375 c 1.914063,1.355469 3.40625,2.703125 4.46875,4.046875 1.0625,1.34375 1.859375,2.828125 2.390625,4.453125 0.125,0.375 0.175781,0.839844 0.15625,1.390625 -0.01172,0.554687 -0.210938,1.105469 -0.59375,1.65625 -0.542969,0.761719 -1.261719,1.21875 -2.15625,1.375 -0.886719,0.15625 -1.714844,-0.035156 -2.484375,-0.578125 -0.40625,-0.289062 -0.699219,-0.585938 -0.875,-0.890625 -0.179687,-0.300781 -0.3125,-0.59375 -0.40625,-0.875 C 33.253906,-5.453125 32.75,-6.441406 32.125,-7.328125 31.5,-8.222656 30.578125,-9.101562 29.359375,-9.96875 c -1,-0.707031 -2.089844,-1.15625 -3.265625,-1.34375 -1.167969,-0.195312 -2.335938,-0.175781 -3.5,0.0625 -1.15625,0.242188 -2.257812,0.703125 -3.296875,1.390625 -1.03125,0.679687 -1.929687,1.554687 -2.6875,2.625 L 16.5625,-7.15625 c -0.8125,1.148438 -1.375,2.339844 -1.6875,3.578125 -0.3125,1.230469 -0.382812,2.445313 -0.203125,3.640625 0.175781,1.207031 0.585937,2.335938 1.234375,3.390625 0.65625,1.050781 1.539062,1.96875 2.65625,2.75 2.082031,1.46875 4.171875,2.1875 6.265625,2.15625 L 27.359375,4.765625 23.625,2.125 C 22.945312,1.65625 22.535156,1.03125 22.390625,0.25 c -0.136719,-0.78125 0.03125,-1.507812 0.5,-2.1875 0.46875,-0.664062 1.097656,-1.066406 1.890625,-1.203125 C 25.582031,-3.285156 26.320312,-3.125 27,-2.65625 L 33.3125,1.8125 C 34.082031,2.351562 34.539062,3.082031 34.6875,4 34.84375,4.925781 34.65625,5.773438 34.125,6.546875 l -4.3125,6.09375 c -1.09375,1.5625 -2.570312,2.28125 -4.421875,2.15625 -1.46875,-0.105469 -3.125,-0.414063 -4.96875,-0.921875 C 18.578125,13.363281 16.707031,12.441406 14.8125,11.109375 12.851562,9.722656 11.289062,8.132812 10.125,6.34375 8.96875,4.5625 8.210938,2.6875 7.859375,0.71875 7.515625,-1.25 7.578125,-3.253906 8.046875,-5.296875 8.515625,-7.335938 9.40625,-9.289062 10.71875,-11.15625 l 0.0625,-0.07813 c 1.257812,-1.789063 2.769531,-3.238281 4.53125,-4.34375 1.769531,-1.113281 3.660156,-1.847656 5.671875,-2.203125 2.007813,-0.351562 4.0625,-0.300781 6.15625,0.15625 2.101563,0.460938 4.101563,1.355469 6,2.6875 z m 0,0"
             id="path80" />
        </g>
      </g>
    </g>
    <g
       fill="#27498c"
       fill-opacity="1"
       id="g86">
      <g
         transform="translate(574.33846,224.25855)"
         id="g85">
        <g
           id="g84">
          <path
             d="m 5,0.1875 16.875,-17.078125 c 0.65625,-0.664063 1.445312,-1.003906 2.375,-1.015625 0.9375,-0.0078 1.738281,0.3125 2.40625,0.96875 l 12.140625,12 c 0.601563,0.585938 0.90625,1.296875 0.90625,2.140625 0.0078,0.835937 -0.28125,1.546875 -0.875,2.140625 C 38.222656,-0.0390625 37.507812,0.257812 36.6875,0.25 35.875,0.238281 35.164062,-0.0546875 34.5625,-0.640625 l -9.75,-9.640625 -4.375,4.4375 8.34375,8.234375 c 0.601562,0.601563 0.90625,1.316406 0.90625,2.140625 0,0.832031 -0.296875,1.550781 -0.890625,2.15625 -0.59375,0.601562 -1.304687,0.898438 -2.125,0.890625 -0.824219,0 -1.539063,-0.304687 -2.140625,-0.90625 L 16.1875,-1.5625 11.65625,3.03125 21.5625,12.8125 c 0.613281,0.601562 0.921875,1.320312 0.921875,2.15625 0,0.832031 -0.304687,1.550781 -0.90625,2.15625 -0.59375,0.601562 -1.296875,0.898438 -2.109375,0.890625 -0.8125,0 -1.527344,-0.304687 -2.140625,-0.90625 L 5.03125,4.96875 C 4.363281,4.3125 4.023438,3.515625 4.015625,2.578125 4.015625,1.648438 4.34375,0.851562 5,0.1875 Z m 0,0"
             id="path83" />
        </g>
      </g>
    </g>
    <g
       fill="#27498c"
       fill-opacity="1"
       id="g92">
      <g
         transform="translate(612.2768,266.10291)"
         id="g91">
        <g
           id="g90">
          <path
             d="m 25.40625,-10.875 c 0.800781,-0.476562 1.65625,-0.601562 2.5625,-0.375 0.90625,0.230469 1.597656,0.746094 2.078125,1.546875 l 4.421875,7.40625 c 1.25,2.085937 2.050781,4.175781 2.40625,6.28125 0.351562,2.113281 0.3125,4.144531 -0.125,6.09375 -0.4375,1.945313 -1.257812,3.738281 -2.453125,5.375 -1.1875,1.632813 -2.710937,3.007813 -4.5625,4.125 L 29.65625,19.625 c -1.867188,1.113281 -3.808594,1.8125 -5.828125,2.09375 C 21.804688,22 19.832031,21.867188 17.90625,21.328125 15.976562,20.796875 14.164062,19.875 12.46875,18.5625 10.769531,17.257812 9.296875,15.566406 8.046875,13.484375 L 3.625,6.078125 C 3.144531,5.273438 3.019531,4.421875 3.25,3.515625 3.476562,2.609375 3.992188,1.914062 4.796875,1.4375 Z M 13.296875,10.359375 c 0.707031,1.175781 1.539063,2.140625 2.5,2.890625 0.96875,0.75 2.007813,1.257812 3.125,1.53125 1.113281,0.269531 2.269531,0.3125 3.46875,0.125 1.207031,-0.1875 2.390625,-0.625 3.546875,-1.3125 l 0.07813,-0.04687 c 1.175781,-0.710937 2.132813,-1.546875 2.875,-2.515625 0.738281,-0.96875 1.25,-2.011719 1.53125,-3.125 C 30.710943,6.800786 30.76563,5.64063 30.57813,4.42188 30.39063,3.20313 29.941411,2.003911 29.23438,0.82813 l -2.671875,-4.5 -15.9375,9.53125 z m 0,0"
             id="path89" />
        </g>
      </g>
    </g>
    <g
       fill="#27498c"
       fill-opacity="1"
       id="g95">
      <g
         transform="translate(632.63105,301.30386)"
         id="g94">
        <g
           id="g93">
          <path
             d="m 4.78125,0.296875 26.4375,1.359375 c 0.945312,0.050781 1.753906,0.300781 2.421875,0.75 0.675781,0.445312 1.179687,1.113281 1.515625,2 l 0.140625,0.359375 c 0.332031,0.875 0.394531,1.695313 0.1875,2.46875 C 35.285156,8.003906 34.847656,8.71875 34.171875,9.375 L 15.40625,28.046875 C 14.882812,28.492188 14.492188,28.769531 14.234375,28.875 13.390625,29.195312 12.5625,29.179688 11.75,28.828125 10.945312,28.472656 10.382812,27.875 10.0625,27.03125 9.769531,26.289062 9.726562,25.597656 9.9375,24.953125 c 0.21875,-0.636719 0.59375,-1.230469 1.125,-1.78125 L 14.859375,19.5 10.015625,6.859375 4.515625,6.65625 C 3.785156,6.625 3.148438,6.421875 2.609375,6.046875 2.078125,5.671875 1.6875,5.148438 1.4375,4.484375 1.125,3.671875 1.144531,2.867188 1.5,2.078125 1.851562,1.296875 2.445312,0.75 3.28125,0.4375 3.488281,0.351562 3.722656,0.300781 3.984375,0.28125 4.242188,0.257812 4.507812,0.265625 4.78125,0.296875 Z m 11.71875,6.75 3.0625,7.96875 7.953125,-7.609375 z m 0,0"
             id="path92" />
        </g>
      </g>
    </g>
    <g
       fill="#27498c"
       fill-opacity="1"
       id="g98">
      <g
         transform="translate(646.31879,338.9591)"
         id="g97">
        <g
           id="g96">
          <path
             d="m 27.40625,-4.578125 c 0.90625,-0.1875 1.734375,-0.019531 2.484375,0.5 0.75,0.523437 1.21875,1.242187 1.40625,2.15625 0.144531,0.75 0.08203,1.417969 -0.1875,2 -0.261719,0.59375 -0.65625,1.148437 -1.1875,1.671875 l -9.046875,9.5 12.15625,5.28125 c 0.664062,0.269531 1.234375,0.628906 1.703125,1.078125 0.46875,0.445313 0.769531,1.019531 0.90625,1.71875 0.207031,1 0.05469,1.847656 -0.453125,2.546875 -0.5,0.695312 -1.210938,1.140625 -2.125,1.328125 -0.460938,0.09375 -0.902344,0.09375 -1.328125,0 C 31.316406,23.109375 30.925781,22.976562 30.5625,22.8125 L 15.453125,15.75 6.75,17.515625 c -0.917969,0.1875 -1.765625,0.01953 -2.546875,-0.5 C 3.421875,16.503906 2.9375,15.789062 2.75,14.875 2.5625,13.945312 2.726562,13.09375 3.25,12.3125 3.769531,11.539062 4.488281,11.0625 5.40625,10.875 l 8.578125,-1.734375 11.234375,-12.4375 c 0.28125,-0.289063 0.59375,-0.550781 0.9375,-0.78125 0.351562,-0.238281 0.769531,-0.40625 1.25,-0.5 z m 0,0"
             id="path95" />
        </g>
      </g>
    </g>
    <g
       fill="#27498c"
       fill-opacity="1"
       id="g101">
      <g
         transform="translate(293.52542,299.94205)"
         id="g100">
        <g
           id="g99">
          <path
             d="M 6.953125,-15.953125 C 5.710938,-16.691406 4.75,-17.582031 4.0625,-18.625 3.375,-19.664062 3.03125,-21.019531 3.03125,-22.6875 v -0.09375 c 0,-1.164062 0.253906,-2.257812 0.765625,-3.28125 C 4.316406,-27.09375 5.050781,-27.988281 6,-28.75 c 0.957031,-0.769531 2.101562,-1.375 3.4375,-1.8125 1.332031,-0.4375 2.800781,-0.65625 4.40625,-0.65625 1.644531,0 3.125,0.21875 4.4375,0.65625 1.320312,0.4375 2.457031,1.03125 3.40625,1.78125 0.957031,0.75 1.691406,1.640625 2.203125,2.671875 0.519531,1.023437 0.78125,2.132813 0.78125,3.328125 v 0.09375 c 0,1.667969 -0.351563,3.023438 -1.046875,4.0625 -0.6875,1.042969 -1.648438,1.933594 -2.875,2.671875 1.550781,0.8125 2.765625,1.773437 3.640625,2.875 0.882813,1.09375 1.328125,2.554687 1.328125,4.375 V -8.625 c 0,1.4375 -0.304688,2.714844 -0.90625,3.828125 -0.59375,1.117187 -1.421875,2.0625 -2.484375,2.84375 -1.054687,0.773437 -2.304687,1.367187 -3.75,1.78125 C 17.128906,0.234375 15.550781,0.4375 13.84375,0.4375 12.144531,0.4375 10.570312,0.226562 9.125,-0.1875 7.675781,-0.613281 6.421875,-1.21875 5.359375,-2 4.304688,-2.78125 3.476562,-3.710938 2.875,-4.796875 2.28125,-5.878906 1.984375,-7.09375 1.984375,-8.4375 v -0.09375 c 0,-1.875 0.40625,-3.390625 1.21875,-4.546875 0.820313,-1.15625 2.070313,-2.113281 3.75,-2.875 z m 6.890625,10.8125 c 1.675781,0 2.984375,-0.363281 3.921875,-1.09375 0.9375,-0.738281 1.40625,-1.648437 1.40625,-2.734375 V -9.0625 c 0,-1.226562 -0.496094,-2.164062 -1.484375,-2.8125 -0.980469,-0.644531 -2.261719,-0.96875 -3.84375,-0.96875 -1.585938,0 -2.867188,0.324219 -3.84375,0.96875 -0.980469,0.648438 -1.46875,1.585938 -1.46875,2.8125 v 0.09375 c 0,1.054688 0.46875,1.953125 1.40625,2.703125 0.9375,0.75 2.238281,1.125 3.90625,1.125 z m -4.390625,-16.9375 v 0.09375 c 0,1.085937 0.394531,1.984375 1.1875,2.703125 0.789063,0.71875 1.859375,1.078125 3.203125,1.078125 1.351562,0 2.425781,-0.347656 3.21875,-1.046875 0.789062,-0.707031 1.1875,-1.601562 1.1875,-2.6875 v -0.09375 c 0,-0.9375 -0.386719,-1.769531 -1.15625,-2.5 -0.761719,-0.738281 -1.84375,-1.109375 -3.25,-1.109375 -1.40625,0 -2.492188,0.359375 -3.25,1.078125 -0.761719,0.71875 -1.140625,1.546875 -1.140625,2.484375 z m 0,0"
             id="path98" />
        </g>
      </g>
    </g>
    <g
       fill="#27498c"
       fill-opacity="1"
       id="g104">
      <g
         transform="translate(325.62025,299.94205)"
         id="g103">
        <g
           id="g102">
          <path
             d="m 1.234375,-27.65625 c 0,-0.851562 0.304687,-1.585938 0.921875,-2.203125 0.613281,-0.613281 1.347656,-0.921875 2.203125,-0.921875 h 19.78125 c 0.84375,0 1.570313,0.308594 2.1875,0.921875 0.625,0.617187 0.9375,1.351563 0.9375,2.203125 0,0.855469 -0.3125,1.589844 -0.9375,2.203125 -0.617187,0.617187 -1.34375,0.921875 -2.1875,0.921875 H 17.625 V -3.125 c 0,0.9375 -0.328125,1.742188 -0.984375,2.40625 C 15.984375,-0.0625 15.1875,0.265625 14.25,0.265625 13.3125,0.265625 12.507812,-0.0625 11.84375,-0.71875 11.1875,-1.382812 10.859375,-2.1875 10.859375,-3.125 v -21.40625 h -6.5 c -0.855469,0 -1.589844,-0.304688 -2.203125,-0.921875 -0.617188,-0.613281 -0.921875,-1.347656 -0.921875,-2.203125 z m 0,0"
             id="path101" />
        </g>
      </g>
    </g>
    <g
       fill="#27498c"
       fill-opacity="1"
       id="g107">
      <g
         transform="translate(358.50645,299.94205)"
         id="g106">
        <g
           id="g105">
          <path
             d="m 3.6875,-3.125 v -24.53125 c 0,-0.9375 0.328125,-1.734375 0.984375,-2.390625 0.664063,-0.664063 1.46875,-1 2.40625,-1 0.9375,0 1.734375,0.335937 2.390625,1 0.664062,0.65625 1,1.453125 1,2.390625 v 9.0625 h 12.484375 v -9.0625 c 0,-0.9375 0.328125,-1.734375 0.984375,-2.390625 0.664062,-0.664063 1.46875,-1 2.40625,-1 0.9375,0 1.734375,0.335937 2.390625,1 0.65625,0.65625 0.984375,1.453125 0.984375,2.390625 V -3.125 c 0,0.9375 -0.328125,1.742188 -0.984375,2.40625 -0.65625,0.65625 -1.453125,0.984375 -2.390625,0.984375 -0.9375,0 -1.742188,-0.328125 -2.40625,-0.984375 C 23.28125,-1.382812 22.953125,-2.1875 22.953125,-3.125 v -9.234375 H 10.46875 V -3.125 c 0,0.9375 -0.335938,1.742188 -1,2.40625 C 8.8125,-0.0625 8.015625,0.265625 7.078125,0.265625 6.140625,0.265625 5.335938,-0.0625 4.671875,-0.71875 4.015625,-1.382812 3.6875,-2.1875 3.6875,-3.125 Z m 0,0"
             id="path104" />
        </g>
      </g>
    </g>
    <g
       fill="#27498c"
       fill-opacity="1"
       id="g113">
      <g
         transform="translate(413.90323,299.94205)"
         id="g112">
        <g
           id="g111">
          <path
             d="m 4.484375,-8.09375 c 0.40625,0 0.765625,0.0625 1.078125,0.1875 0.3125,0.117188 0.625,0.289062 0.9375,0.515625 0.675781,0.5 1.335938,0.886719 1.984375,1.15625 0.644531,0.261719 1.347656,0.390625 2.109375,0.390625 1.320312,0 2.351562,-0.398438 3.09375,-1.203125 0.75,-0.8125 1.125,-2.113281 1.125,-3.90625 V -27.65625 c 0,-0.9375 0.328125,-1.734375 0.984375,-2.390625 0.664063,-0.664063 1.46875,-1 2.40625,-1 0.9375,0 1.734375,0.335937 2.390625,1 0.664062,0.65625 1,1.453125 1,2.390625 v 17.015625 c 0,3.554687 -0.933594,6.289063 -2.796875,8.203125 -1.867187,1.917969 -4.570313,2.875 -8.109375,2.875 -1.761719,0 -3.304688,-0.257812 -4.625,-0.765625 C 4.75,-0.835938 3.578125,-1.476562 2.546875,-2.25 2.191406,-2.507812 1.890625,-2.875 1.640625,-3.34375 1.398438,-3.8125 1.28125,-4.3125 1.28125,-4.84375 c 0,-0.90625 0.304688,-1.671875 0.921875,-2.296875 0.613281,-0.632813 1.375,-0.953125 2.28125,-0.953125 z m 0,0"
             id="path110" />
        </g>
      </g>
    </g>
    <g
       fill="#27498c"
       fill-opacity="1"
       id="g116">
      <g
         transform="translate(443.09641,299.94205)"
         id="g115">
        <g
           id="g114">
          <path
             d="m 6.59375,-31.046875 c 0.9375,0 1.734375,0.335937 2.390625,1 0.664063,0.65625 1,1.453125 1,2.390625 v 14.296875 c 0,2.574219 0.578125,4.484375 1.734375,5.734375 1.15625,1.242188 2.789062,1.859375 4.90625,1.859375 2.101562,0 3.734375,-0.601563 4.890625,-1.8125 1.164063,-1.21875 1.75,-3.070313 1.75,-5.5625 V -27.65625 c 0,-0.9375 0.328125,-1.734375 0.984375,-2.390625 0.65625,-0.664063 1.453125,-1 2.390625,-1 0.9375,0 1.734375,0.335937 2.390625,1 0.664062,0.65625 1,1.453125 1,2.390625 v 14.25 c 0,2.3125 -0.320312,4.34375 -0.953125,6.09375 -0.625,1.742188 -1.527344,3.1875 -2.703125,4.34375 -1.167969,1.15625 -2.578125,2.023438 -4.234375,2.59375 -1.65625,0.570312 -3.527344,0.859375 -5.609375,0.859375 -4.136719,0 -7.390625,-1.140625 -9.765625,-3.421875 -2.375,-2.289062 -3.5625,-5.707031 -3.5625,-10.25 v -14.46875 c 0,-0.9375 0.328125,-1.734375 0.984375,-2.390625 0.664062,-0.664063 1.46875,-1 2.40625,-1 z m 0,0"
             id="path113" />
        </g>
      </g>
    </g>
    <g
       fill="#27498c"
       fill-opacity="1"
       id="g119">
      <g
         transform="translate(480.73076,299.94205)"
         id="g118">
        <g
           id="g117">
          <path
             d="M 3.6875,-3.078125 V -27.5625 c 0,-0.9375 0.328125,-1.734375 0.984375,-2.390625 0.664063,-0.664063 1.46875,-1 2.40625,-1 H 7.78125 c 0.820312,0 1.492188,0.183594 2.015625,0.546875 0.53125,0.367188 1.03125,0.84375 1.5,1.4375 l 13.0625,17.140625 v -15.875 c 0,-0.9375 0.320313,-1.726563 0.96875,-2.375 0.644531,-0.644531 1.4375,-0.96875 2.375,-0.96875 0.9375,0 1.726563,0.324219 2.375,0.96875 0.644531,0.648437 0.96875,1.4375 0.96875,2.375 v 24.5 c 0,0.9375 -0.335937,1.734375 -1,2.390625 -0.65625,0.65625 -1.453125,0.984375 -2.390625,0.984375 H 27.4375 c -0.824219,0 -1.5,-0.1796875 -2.03125,-0.546875 -0.523438,-0.363281 -1.015625,-0.835938 -1.484375,-1.421875 L 10.375,-19.5625 v 16.484375 c 0,0.9375 -0.324219,1.730469 -0.96875,2.375 -0.648438,0.6484375 -1.4375,0.96875 -2.375,0.96875 -0.9375,0 -1.730469,-0.3203125 -2.375,-0.96875 -0.648438,-0.644531 -0.96875,-1.4375 -0.96875,-2.375 z m 0,0"
             id="path116" />
        </g>
      </g>
    </g>
    <g
       fill="#27498c"
       fill-opacity="1"
       id="g122">
      <g
         transform="translate(519.85991,299.94205)"
         id="g121">
        <g
           id="g120">
          <path
             d="m 3.6875,-3.390625 v -24 c 0,-0.9375 0.328125,-1.734375 0.984375,-2.390625 0.664063,-0.664062 1.46875,-1 2.40625,-1 h 17.0625 c 0.84375,0 1.554687,0.296875 2.140625,0.890625 0.59375,0.585937 0.890625,1.296875 0.890625,2.140625 0,0.855469 -0.296875,1.570312 -0.890625,2.140625 -0.585938,0.574219 -1.296875,0.859375 -2.140625,0.859375 h -13.71875 v 6.234375 H 22.15625 c 0.851562,0 1.570312,0.296875 2.15625,0.890625 0.582031,0.585938 0.875,1.296875 0.875,2.140625 0,0.855469 -0.292969,1.570313 -0.875,2.140625 -0.585938,0.574219 -1.304688,0.859375 -2.15625,0.859375 H 10.421875 v 6.453125 h 13.9375 c 0.851563,0 1.570313,0.296875 2.15625,0.890625 0.582031,0.585937 0.875,1.304687 0.875,2.15625 0,0.84375 -0.292969,1.554687 -0.875,2.125 C 25.929688,-0.285156 25.210938,0 24.359375,0 H 7.078125 C 6.140625,0 5.335938,-0.328125 4.671875,-0.984375 4.015625,-1.648438 3.6875,-2.453125 3.6875,-3.390625 Z m 0,0"
             id="path119" />
        </g>
      </g>
    </g>
  </g>
</svg>
