<?xml version="1.0" encoding="UTF-8" standalone="no"?>
<!-- Created with Inkscape (http://www.inkscape.org/) -->

<svg
   width="297mm"
   height="297mm"
   viewBox="0 0 297 297"
   version="1.1"
   id="svg266"
   inkscape:version="1.2.1 (9c6d41e410, 2022-07-14)"
   sodipodi:docname="stars square.svg"
   inkscape:export-filename="..\stars.png"
   inkscape:export-xdpi="123.86"
   inkscape:export-ydpi="123.86"
   xmlns:inkscape="http://www.inkscape.org/namespaces/inkscape"
   xmlns:sodipodi="http://sodipodi.sourceforge.net/DTD/sodipodi-0.dtd"
   xmlns="http://www.w3.org/2000/svg"
   xmlns:svg="http://www.w3.org/2000/svg">
  <sodipodi:namedview
     id="namedview268"
     pagecolor="#ffffff"
     bordercolor="#000000"
     borderopacity="0.25"
     inkscape:showpageshadow="2"
     inkscape:pageopacity="0.0"
     inkscape:pagecheckerboard="0"
     inkscape:deskcolor="#d1d1d1"
     inkscape:document-units="mm"
     showgrid="false"
     inkscape:zoom="0.53795867"
     inkscape:cx="582.75852"
     inkscape:cy="516.76832"
     inkscape:window-width="1920"
     inkscape:window-height="1009"
     inkscape:window-x="1912"
     inkscape:window-y="-8"
     inkscape:window-maximized="1"
     inkscape:current-layer="layer1" />
  <defs
     id="defs263" />
  <g
     inkscape:label="Layer 1"
     inkscape:groupmode="layer"
     id="layer1">
    <rect
       style="fill:#1f175b;fill-opacity:1;stroke:none;stroke-width:1.98345;stroke-linecap:square"
       id="rect10791"
       width="297"
       height="297"
       x="7.7715612e-16"
       y="3.0198066e-14"
       inkscape:label="sky"
       sodipodi:insensitive="true" />
    <path
       style="fill:#ffffff;fill-opacity:0.610169;stroke:none;stroke-width:0.663073;stroke-linecap:square"
       d="m 154.42804,274.07883 c 0,1.6844 -0.56059,2.30956 -2.2786,2.30956 1.70661,0 2.2786,0.49743 2.2786,2.24764 0,-1.75076 0.5691,-2.30955 2.2786,-2.30955 -1.70975,0 -2.2786,-0.57787 -2.2786,-2.24765 z"
       id="use14519"
       sodipodi:nodetypes="ccccc"
       inkscape:label="star2" />
    <path
       style="fill:#ffffff;fill-opacity:0.610169;stroke:none;stroke-width:0.663073;stroke-linecap:square"
       d="m 153.95561,75.095453 c 0,1.6844 -0.56059,2.30956 -2.2786,2.30956 1.70661,0 2.2786,0.49743 2.2786,2.24764 0,-1.75076 0.5691,-2.30955 2.2786,-2.30955 -1.70975,0 -2.2786,-0.57787 -2.2786,-2.24765 z"
       id="use14535"
       sodipodi:nodetypes="ccccc"
       inkscape:label="star2" />
    <circle
       style="fill:#ffffff;fill-opacity:1;stroke:none;stroke-width:0.6402;stroke-linecap:square"
       id="use14537"
       cx="120.57896"
       cy="71.17025"
       r="0.47819087"
       inkscape:label="star1" />
    <path
       style="fill:#ffffff;fill-opacity:1;stroke:none;stroke-width:1.164;stroke-linecap:square"
       d="m 81.980019,256.28252 c 0,2.95692 -0.9841,4.05435 -4,4.05435 2.99589,0 4,0.87323 4,3.94566 0,-3.07339 0.99904,-4.05434 4,-4.05434 -3.00141,0 -4,-1.01442 -4,-3.94567 z"
       id="use14541"
       sodipodi:nodetypes="ccccc"
       inkscape:label="star3" />
    <circle
       style="fill:#ffffff;fill-opacity:1;stroke:none;stroke-width:0.6402;stroke-linecap:square"
       id="use14543"
       cx="185.99411"
       cy="238.47983"
       r="0.47819087"
       inkscape:label="star1" />
    <circle
       style="fill:#ffffff;fill-opacity:1;stroke:none;stroke-width:0.6402;stroke-linecap:square"
       id="use14547"
       cx="76.968719"
       cy="208.97734"
       r="0.47819087"
       inkscape:label="star1" />
    <circle
       style="fill:#ffffff;fill-opacity:1;stroke:none;stroke-width:0.6402;stroke-linecap:square"
       id="use14555"
       cx="128.87379"
       cy="38.835957"
       r="0.47819087"
       inkscape:label="star1" />
    <path
       style="fill:#ffffff;fill-opacity:0.610169;stroke:none;stroke-width:0.663073;stroke-linecap:square"
       d="m 146.64923,23.846398 c 0,1.6844 -0.56059,2.30956 -2.2786,2.30956 1.70661,0 2.2786,0.49743 2.2786,2.24764 0,-1.75076 0.5691,-2.30955 2.2786,-2.30955 -1.70975,0 -2.2786,-0.57787 -2.2786,-2.24765 z"
       id="use14559"
       sodipodi:nodetypes="ccccc"
       inkscape:label="star2" />
    <path
       style="fill:#ffffff;fill-opacity:0.610169;stroke:none;stroke-width:0.663073;stroke-linecap:square"
       d="m 53.819774,182.50869 c 0,1.6844 -0.56059,2.30956 -2.2786,2.30956 1.70661,0 2.2786,0.49743 2.2786,2.24764 0,-1.75076 0.5691,-2.30955 2.2786,-2.30955 -1.70975,0 -2.2786,-0.57787 -2.2786,-2.24765 z"
       id="use14565"
       sodipodi:nodetypes="ccccc"
       inkscape:label="star2" />
    <circle
       style="fill:#ffffff;fill-opacity:1;stroke:none;stroke-width:0.6402;stroke-linecap:square"
       id="use14573"
       cx="75.848991"
       cy="149.27814"
       r="0.47819087"
       inkscape:label="star1" />
    <circle
       style="fill:#ffffff;fill-opacity:1;stroke:none;stroke-width:0.6402;stroke-linecap:square"
       id="use14577"
       cx="10.108005"
       cy="94.075722"
       r="0.47819087"
       inkscape:label="star1" />
    <path
       style="fill:#ffffff;fill-opacity:1;stroke:none;stroke-width:1.164;stroke-linecap:square"
       d="m 122.50672,185.28838 c 0,2.95691 -0.9841,4.05434 -4,4.05434 2.99589,0 4,0.87323 4,3.94566 0,-3.07339 0.99904,-4.05434 4,-4.05434 -3.00141,0 -4,-1.01442 -4,-3.94566 z"
       id="use14583"
       sodipodi:nodetypes="ccccc"
       inkscape:label="star3" />
    <path
       style="fill:#ffffff;fill-opacity:1;stroke:none;stroke-width:1.164;stroke-linecap:square"
       d="m 168.42801,51.367447 c 0,2.95691 -0.9841,4.05434 -4,4.05434 2.99589,0 4,0.87322 4,3.94565 0,-3.07339 0.99904,-4.05433 4,-4.05433 -3.00141,0 -4,-1.01442 -4,-3.94566 z"
       id="use14585"
       sodipodi:nodetypes="ccccc"
       inkscape:label="star3" />
    <circle
       style="fill:#ffffff;fill-opacity:1;stroke:none;stroke-width:0.6402;stroke-linecap:square"
       id="use14587"
       cx="138.32727"
       cy="134.78535"
       r="0.47819087"
       inkscape:label="star1" />
    <path
       style="fill:#ffffff;fill-opacity:1;stroke:none;stroke-width:1.164;stroke-linecap:square"
       d="m 38.680581,72.854519 c 0,2.95691 -0.9841,4.05434 -4,4.05434 2.99589,0 4,0.87323 4,3.94566 0,-3.07339 0.99904,-4.05434 4,-4.05434 -3.00141,0 -4,-1.01442 -4,-3.94566 z"
       id="use14589"
       sodipodi:nodetypes="ccccc"
       inkscape:label="star3" />
    <path
       style="fill:#ffffff;fill-opacity:1;stroke:none;stroke-width:1.164;stroke-linecap:square"
       d="m 23.209981,45.405162 c 0,2.95691 -0.9841,4.05434 -4,4.05434 2.99589,0 4,0.87323 4,3.94566 0,-3.07339 0.99904,-4.05434 4,-4.05434 -3.00141,0 -4,-1.01442 -4,-3.94566 z"
       id="use14591"
       sodipodi:nodetypes="ccccc"
       inkscape:label="star3" />
    <path
       style="fill:#ffffff;fill-opacity:1;stroke:none;stroke-width:1.164;stroke-linecap:square"
       d="m 4.8070197,127.42371 c 0,2.95691 -0.9841,4.05434 -4,4.05434 2.99589,0 4,0.87323 4,3.94566 0,-3.07339 0.99904,-4.05434 4,-4.05434 -3.00141,0 -4,-1.01442 -4,-3.94566 z"
       id="use14593"
       sodipodi:nodetypes="ccccc"
       inkscape:label="star3" />
    <path
       style="fill:#ffffff;fill-opacity:1;stroke:none;stroke-width:1.164;stroke-linecap:square"
       d="m 87.959157,104.8848 c 0,2.95691 -0.9841,4.05434 -4,4.05434 2.99589,0 4,0.87323 4,3.94566 0,-3.07339 0.99904,-4.05434 4,-4.05434 -3.00141,0 -4,-1.01442 -4,-3.94566 z"
       id="use14595"
       sodipodi:nodetypes="ccccc"
       inkscape:label="star3" />
    <path
       style="fill:#ffffff;fill-opacity:0.610169;stroke:none;stroke-width:0.663073;stroke-linecap:square"
       d="m 160.47979,220.87876 c 0,1.6844 -0.56059,2.30956 -2.2786,2.30956 1.70661,0 2.2786,0.49743 2.2786,2.24764 0,-1.75076 0.5691,-2.30955 2.2786,-2.30955 -1.70975,0 -2.2786,-0.57787 -2.2786,-2.24765 z"
       id="use14599"
       sodipodi:nodetypes="ccccc"
       inkscape:label="star2" />
    <path
       style="fill:#ffffff;fill-opacity:1;stroke:none;stroke-width:1.164;stroke-linecap:square"
       d="m 168.67628,155.37694 c 0,2.95691 -0.9841,4.05434 -4,4.05434 2.99589,0 4,0.87323 4,3.94566 0,-3.07339 0.99904,-4.05434 4,-4.05434 -3.00141,0 -4,-1.01442 -4,-3.94566 z"
       id="use14601"
       sodipodi:nodetypes="ccccc"
       inkscape:label="star3" />
    <path
       style="fill:#ffffff;fill-opacity:1;stroke:none;stroke-width:1.164;stroke-linecap:square"
       d="m 195.57497,176.95908 c 0,2.95691 -0.9841,4.05434 -4,4.05434 2.99589,0 4,0.87323 4,3.94566 0,-3.07339 0.99904,-4.05434 4,-4.05434 -3.00141,0 -4,-1.01442 -4,-3.94566 z"
       id="use14603"
       sodipodi:nodetypes="ccccc"
       inkscape:label="star3" />
    <path
       style="fill:#ffffff;fill-opacity:1;stroke:none;stroke-width:1.164;stroke-linecap:square"
       d="m 129.37223,56.50093 c 0,2.95691 -0.9841,4.05434 -4,4.05434 2.99589,0 4,0.87323 4,3.94566 0,-3.07339 0.99904,-4.05434 4,-4.05434 -3.00141,0 -4,-1.01442 -4,-3.94566 z"
       id="use14605"
       sodipodi:nodetypes="ccccc"
       inkscape:label="star3" />
    <circle
       style="fill:#ffffff;fill-opacity:1;stroke:none;stroke-width:0.6402;stroke-linecap:square"
       id="use14607"
       cx="63.383514"
       cy="96.679405"
       r="0.47819087"
       inkscape:label="star1" />
    <path
       style="fill:#ffffff;fill-opacity:0.610169;stroke:none;stroke-width:0.663073;stroke-linecap:square"
       d="m 188.3996,58.615419 c 0,1.6844 -0.56059,2.30956 -2.2786,2.30956 1.70661,0 2.2786,0.49743 2.2786,2.24764 0,-1.75076 0.5691,-2.30955 2.2786,-2.30955 -1.70975,0 -2.2786,-0.57787 -2.2786,-2.24765 z"
       id="use14611"
       sodipodi:nodetypes="ccccc"
       inkscape:label="star2" />
    <path
       style="fill:#ffffff;fill-opacity:0.610169;stroke:none;stroke-width:0.663073;stroke-linecap:square"
       d="m 97.670993,177.65575 c 0,1.6844 -0.56059,2.30956 -2.2786,2.30956 1.70661,0 2.2786,0.49743 2.2786,2.24764 0,-1.75076 0.5691,-2.30955 2.2786,-2.30955 -1.70975,0 -2.2786,-0.57787 -2.2786,-2.24765 z"
       id="use14613"
       sodipodi:nodetypes="ccccc"
       inkscape:label="star2" />
    <path
       style="fill:#ffffff;fill-opacity:0.610169;stroke:none;stroke-width:0.663073;stroke-linecap:square"
       d="m 84.829554,91.768128 c 0,1.6844 -0.56059,2.30956 -2.2786,2.30956 1.70661,0 2.2786,0.49743 2.2786,2.24764 0,-1.75076 0.5691,-2.30955 2.2786,-2.30955 -1.70975,0 -2.2786,-0.57787 -2.2786,-2.24765 z"
       id="use14615"
       sodipodi:nodetypes="ccccc"
       inkscape:label="star2" />
    <path
       style="fill:#ffffff;fill-opacity:0.610169;stroke:none;stroke-width:0.663073;stroke-linecap:square"
       d="m 33.122946,211.23755 c 0,1.6844 -0.56059,2.30956 -2.2786,2.30956 1.70661,0 2.2786,0.49743 2.2786,2.24764 0,-1.75076 0.5691,-2.30955 2.2786,-2.30955 -1.70975,0 -2.2786,-0.57787 -2.2786,-2.24765 z"
       id="use14617"
       sodipodi:nodetypes="ccccc"
       inkscape:label="star2" />
    <circle
       style="fill:#ffffff;fill-opacity:1;stroke:none;stroke-width:0.6402;stroke-linecap:square"
       id="use14619"
       cx="157.38913"
       cy="261.81384"
       r="0.47819087"
       inkscape:label="star1" />
    <circle
       style="fill:#ffffff;fill-opacity:1;stroke:none;stroke-width:0.6402;stroke-linecap:square"
       id="use14621"
       cx="163.11055"
       cy="19.06896"
       r="0.47819087"
       inkscape:label="star1" />
    <circle
       style="fill:#ffffff;fill-opacity:1;stroke:none;stroke-width:0.6402;stroke-linecap:square"
       id="use14623"
       cx="126.73904"
       cy="206.15063"
       r="0.47819087"
       inkscape:label="star1" />
    <path
       style="fill:#ffffff;fill-opacity:0.610169;stroke:none;stroke-width:0.663073;stroke-linecap:square"
       d="m 145.47543,10.708797 c 0,1.6844 -0.56059,2.30956 -2.2786,2.30956 1.70661,0 2.2786,0.49743 2.2786,2.24764 0,-1.75076 0.5691,-2.30955 2.2786,-2.30955 -1.70975,0 -2.2786,-0.57787 -2.2786,-2.24765 z"
       id="use14625"
       sodipodi:nodetypes="ccccc"
       inkscape:label="star2" />
    <path
       style="fill:#ffffff;fill-opacity:1;stroke:none;stroke-width:1.164;stroke-linecap:square"
       d="m 107.11113,145.74029 c 0,2.95691 -0.9841,4.05434 -4,4.05434 2.99589,0 4,0.87323 4,3.94566 0,-3.07339 0.99904,-4.05434 4,-4.05434 -3.00141,0 -4,-1.01442 -4,-3.94566 z"
       id="use14635"
       sodipodi:nodetypes="ccccc"
       inkscape:label="star3" />
    <path
       style="fill:#ffffff;fill-opacity:0.610169;stroke:none;stroke-width:0.663073;stroke-linecap:square"
       d="m 44.828925,36.652304 c 0,1.6844 -0.56059,2.30956 -2.2786,2.30956 1.70661,0 2.2786,0.49743 2.2786,2.24764 0,-1.75076 0.5691,-2.30955 2.2786,-2.30955 -1.70975,0 -2.2786,-0.57787 -2.2786,-2.24765 z"
       id="use14643"
       sodipodi:nodetypes="ccccc"
       inkscape:label="star2" />
    <path
       style="fill:#ffffff;fill-opacity:1;stroke:none;stroke-width:1.164;stroke-linecap:square"
       d="m 25.153811,114.61923 c 0,2.95691 -0.9841,4.05434 -4,4.05434 2.99589,0 4,0.87323 4,3.94566 0,-3.07339 0.99904,-4.05434 4,-4.05434 -3.00141,0 -4,-1.01442 -4,-3.94566 z"
       id="use14645"
       sodipodi:nodetypes="ccccc"
       inkscape:label="star3" />
    <path
       style="fill:#ffffff;fill-opacity:1;stroke:none;stroke-width:1.164;stroke-linecap:square"
       d="m 119.53871,262.60084 c 0,2.95691 -0.9841,4.05434 -4,4.05434 2.99589,0 4,0.87323 4,3.94566 0,-3.07339 0.99904,-4.05434 4,-4.05434 -3.00141,0 -4,-1.01442 -4,-3.94566 z"
       id="use14655"
       sodipodi:nodetypes="ccccc"
       inkscape:label="star3" />
    <circle
       style="fill:#ffffff;fill-opacity:1;stroke:none;stroke-width:0.6402;stroke-linecap:square"
       id="use14657"
       cx="133.35109"
       cy="163.05464"
       r="0.47819087"
       inkscape:label="star1" />
    <path
       style="fill:#ffffff;fill-opacity:1;stroke:none;stroke-width:1.164;stroke-linecap:square"
       d="m 13.605006,243.99768 c 0,2.95691 -0.9841,4.05434 -4.0000003,4.05434 2.9958903,0 4.0000003,0.87323 4.0000003,3.94566 0,-3.07339 0.99904,-4.05434 4,-4.05434 -3.00141,0 -4,-1.01442 -4,-3.94566 z"
       id="use14661"
       sodipodi:nodetypes="ccccc"
       inkscape:label="star3" />
    <circle
       style="fill:#ffffff;fill-opacity:1;stroke:none;stroke-width:0.6402;stroke-linecap:square"
       id="use14663"
       cx="44.81179"
       cy="121.36963"
       r="0.47819087"
       inkscape:label="star1" />
    <path
       style="fill:#ffffff;fill-opacity:0.610169;stroke:none;stroke-width:0.663073;stroke-linecap:square"
       d="m 140.79132,110.98315 c 0,1.6844 -0.56059,2.30956 -2.2786,2.30956 1.70661,0 2.2786,0.49743 2.2786,2.24764 0,-1.75076 0.5691,-2.30955 2.2786,-2.30955 -1.70975,0 -2.2786,-0.57787 -2.2786,-2.24765 z"
       id="use14665"
       sodipodi:nodetypes="ccccc"
       inkscape:label="star2" />
    <path
       style="fill:#ffffff;fill-opacity:0.610169;stroke:none;stroke-width:0.663073;stroke-linecap:square"
       d="m 56.679159,109.01762 c 0,1.6844 -0.56059,2.30956 -2.2786,2.30956 1.70661,0 2.2786,0.49743 2.2786,2.24764 0,-1.75076 0.5691,-2.30955 2.2786,-2.30955 -1.70975,0 -2.2786,-0.57787 -2.2786,-2.24765 z"
       id="use14669"
       sodipodi:nodetypes="ccccc"
       inkscape:label="star2" />
    <circle
       style="fill:#ffffff;fill-opacity:1;stroke:none;stroke-width:0.6402;stroke-linecap:square"
       id="use14673"
       cx="5.2614064"
       cy="39.988255"
       r="0.47819087"
       inkscape:label="star1" />
    <path
       style="fill:#ffffff;fill-opacity:0.610169;stroke:none;stroke-width:0.663073;stroke-linecap:square"
       d="m 160.29967,141.6816 c 0,1.6844 -0.56059,2.30956 -2.2786,2.30956 1.70661,0 2.2786,0.49743 2.2786,2.24764 0,-1.75076 0.5691,-2.30955 2.2786,-2.30955 -1.70975,0 -2.2786,-0.57787 -2.2786,-2.24765 z"
       id="use14681"
       sodipodi:nodetypes="ccccc"
       inkscape:label="star2" />
    <path
       style="fill:#ffffff;fill-opacity:1;stroke:none;stroke-width:1.164;stroke-linecap:square"
       d="m 185.7912,82.52133 c 0,2.95691 -0.9841,4.05434 -4,4.05434 2.99589,0 4,0.87323 4,3.945659 0,-3.073389 0.99904,-4.054339 4,-4.054339 -3.00141,0 -4,-1.01442 -4,-3.94566 z"
       id="use14685"
       sodipodi:nodetypes="ccccc"
       inkscape:label="star3" />
    <circle
       style="fill:#ffffff;fill-opacity:1;stroke:none;stroke-width:0.6402;stroke-linecap:square"
       id="use14687"
       cx="53.041756"
       cy="245.0647"
       r="0.47819087"
       inkscape:label="star1" />
    <path
       style="fill:#ffffff;fill-opacity:1;stroke:none;stroke-width:1.164;stroke-linecap:square"
       d="m 20.389012,194.67578 c 0,2.95691 -0.9841,4.05434 -4,4.05434 2.99589,0 4,0.87323 4,3.94566 0,-3.07339 0.99904,-4.05434 4,-4.05434 -3.00141,0 -4,-1.01442 -4,-3.94566 z"
       id="use14689"
       sodipodi:nodetypes="ccccc"
       inkscape:label="star3" />
    <path
       style="fill:#ffffff;fill-opacity:0.610169;stroke:none;stroke-width:0.663073;stroke-linecap:square"
       d="m 119.02582,226.66489 c 0,1.6844 -0.56059,2.30956 -2.2786,2.30956 1.70661,0 2.2786,0.49743 2.2786,2.24764 0,-1.75076 0.5691,-2.30955 2.2786,-2.30955 -1.70975,0 -2.2786,-0.57787 -2.2786,-2.24765 z"
       id="use14691"
       sodipodi:nodetypes="ccccc"
       inkscape:label="star2" />
    <path
       style="fill:#ffffff;fill-opacity:0.610169;stroke:none;stroke-width:0.663073;stroke-linecap:square"
       d="m 205.28937,13.173267 c 0,1.6844 -0.56059,2.30956 -2.2786,2.30956 1.70661,0 2.2786,0.49743 2.2786,2.24764 0,-1.75076 0.5691,-2.30955 2.2786,-2.30955 -1.70975,0 -2.2786,-0.57787 -2.2786,-2.24765 z"
       id="use14697"
       sodipodi:nodetypes="ccccc"
       inkscape:label="star2" />
    <path
       style="fill:#ffffff;fill-opacity:0.610169;stroke:none;stroke-width:0.663073;stroke-linecap:square"
       d="m 166.11233,120.61004 c 0,1.6844 -0.56059,2.30956 -2.2786,2.30956 1.70661,0 2.2786,0.49743 2.2786,2.24764 0,-1.75076 0.5691,-2.30955 2.2786,-2.30955 -1.70975,0 -2.2786,-0.57787 -2.2786,-2.24765 z"
       id="use14699"
       sodipodi:nodetypes="ccccc"
       inkscape:label="star2" />
    <circle
       style="fill:#ffffff;fill-opacity:1;stroke:none;stroke-width:0.6402;stroke-linecap:square"
       id="use14701"
       cx="121.66448"
       cy="127.45"
       r="0.47819087"
       inkscape:label="star1" />
    <path
       style="fill:#ffffff;fill-opacity:1;stroke:none;stroke-width:1.164;stroke-linecap:square"
       d="m 105.69147,21.216829 c 0,2.95691 -0.9841,4.05434 -4,4.05434 2.99589,0 4,0.87323 4,3.94566 0,-3.07339 0.99904,-4.05434 4,-4.05434 -3.00141,0 -4,-1.01442 -4,-3.94566 z"
       id="use14703"
       sodipodi:nodetypes="ccccc"
       inkscape:label="star3" />
    <path
       style="fill:#ffffff;fill-opacity:1;stroke:none;stroke-width:1.164;stroke-linecap:square"
       d="m 71.184276,46.313484 c 0,2.95691 -0.9841,4.05434 -4,4.05434 2.99589,0 4,0.87323 4,3.94566 0,-3.07339 0.99904,-4.05434 4,-4.05434 -3.00141,0 -4,-1.01442 -4,-3.94566 z"
       id="use14705"
       sodipodi:nodetypes="ccccc"
       inkscape:label="star3" />
    <path
       style="fill:#ffffff;fill-opacity:0.610169;stroke:none;stroke-width:0.663073;stroke-linecap:square"
       d="m 92.232871,126.30899 c 0,1.6844 -0.56059,2.30956 -2.2786,2.30956 1.70661,0 2.2786,0.49743 2.2786,2.24764 0,-1.75076 0.5691,-2.30955 2.2786,-2.30955 -1.70975,0 -2.2786,-0.57787 -2.2786,-2.24765 z"
       id="use14707"
       sodipodi:nodetypes="ccccc"
       inkscape:label="star2" />
    <circle
       style="fill:#ffffff;fill-opacity:1;stroke:none;stroke-width:0.6402;stroke-linecap:square"
       id="use14711"
       cx="20.403303"
       cy="237.3452"
       r="0.47819087"
       inkscape:label="star1" />
    <circle
       style="fill:#ffffff;fill-opacity:1;stroke:none;stroke-width:0.6402;stroke-linecap:square"
       id="use14713"
       cx="24.086615"
       cy="11.042953"
       r="0.47819087"
       inkscape:label="star1" />
    <path
       style="fill:#ffffff;fill-opacity:1;stroke:none;stroke-width:1.164;stroke-linecap:square"
       d="m 62.632955,21.026786 c 0,2.95691 -0.9841,4.05434 -4,4.05434 2.99589,0 4,0.87323 4,3.94566 0,-3.07339 0.99904,-4.05434 4,-4.05434 -3.00141,0 -4,-1.01442 -4,-3.94566 z"
       id="use14715"
       sodipodi:nodetypes="ccccc"
       inkscape:label="star3" />
    <path
       style="fill:#ffffff;fill-opacity:0.610169;stroke:none;stroke-width:0.663073;stroke-linecap:square"
       d="m 30.304828,161.68396 c 0,1.6844 -0.56059,2.30956 -2.2786,2.30956 1.70661,0 2.2786,0.49743 2.2786,2.24764 0,-1.75076 0.5691,-2.30955 2.2786,-2.30955 -1.70975,0 -2.2786,-0.57787 -2.2786,-2.24765 z"
       id="use14717"
       sodipodi:nodetypes="ccccc"
       inkscape:label="star2" />
    <path
       style="fill:#ffffff;fill-opacity:1;stroke:none;stroke-width:1.164;stroke-linecap:square"
       d="m 29.412459,266.36123 c 0,2.95691 -0.9841,4.05434 -4,4.05434 2.99589,0 4,0.87323 4,3.94566 0,-3.07339 0.99904,-4.05434 4,-4.05434 -3.00141,0 -4,-1.01442 -4,-3.94566 z"
       id="use14719"
       sodipodi:nodetypes="ccccc"
       inkscape:label="star3" />
    <circle
       style="fill:#ffffff;fill-opacity:1;stroke:none;stroke-width:0.6402;stroke-linecap:square"
       id="use14721"
       cx="87.119347"
       cy="21.361546"
       r="0.47819087"
       inkscape:label="star1" />
    <path
       style="fill:#ffffff;fill-opacity:1;stroke:none;stroke-width:1.164;stroke-linecap:square"
       d="m 172.49761,207.97295 c 0,2.95691 -0.9841,4.05434 -4,4.05434 2.99589,0 4,0.87323 4,3.94567 0,-3.0734 0.99904,-4.05434 4,-4.05434 -3.00141,0 -4,-1.01442 -4,-3.94567 z"
       id="use14723"
       sodipodi:nodetypes="ccccc"
       inkscape:label="star3" />
    <path
       style="fill:#ffffff;fill-opacity:1;stroke:none;stroke-width:1.164;stroke-linecap:square"
       d="m 207.59557,250.51918 c 0,2.95691 -0.9841,4.05434 -4,4.05434 2.99589,0 4,0.87323 4,3.94566 0,-3.07339 0.99904,-4.05434 4,-4.05434 -3.00141,0 -4,-1.01442 -4,-3.94566 z"
       id="use14729"
       sodipodi:nodetypes="ccccc"
       inkscape:label="star3" />
    <path
       style="fill:#ffffff;fill-opacity:1;stroke:none;stroke-width:1.164;stroke-linecap:square"
       d="m 77.924867,224.66251 c 0,2.95691 -0.9841,4.05434 -4,4.05434 2.99589,0 4,0.87323 4,3.94566 0,-3.07339 0.99904,-4.05434 4,-4.05434 -3.00141,0 -4,-1.01442 -4,-3.94566 z"
       id="use14731"
       sodipodi:nodetypes="ccccc"
       inkscape:label="star3" />
    <circle
       style="fill:#ffffff;fill-opacity:1;stroke:none;stroke-width:0.6402;stroke-linecap:square"
       id="use14737"
       cx="156.1366"
       cy="98.327576"
       r="0.47819087"
       inkscape:label="star1" />
    <circle
       style="fill:#ffffff;fill-opacity:1;stroke:none;stroke-width:0.6402;stroke-linecap:square"
       id="use14739"
       cx="143.036"
       cy="85.151489"
       r="0.47819087"
       inkscape:label="star1" />
    <path
       style="fill:#ffffff;fill-opacity:1;stroke:none;stroke-width:1.164;stroke-linecap:square"
       d="m 153.87891,179.74692 c 0,2.95691 -0.98409,4.05434 -3.99999,4.05434 2.99589,0 3.99999,0.87323 3.99999,3.94565 0,-3.07338 0.99904,-4.05433 4,-4.05433 -3.00141,0 -4,-1.01442 -4,-3.94566 z"
       id="use14741"
       sodipodi:nodetypes="ccccc"
       inkscape:label="star3" />
    <path
       style="fill:#ffffff;fill-opacity:0.610169;stroke:none;stroke-width:0.663073;stroke-linecap:square"
       d="m 185.41283,200.17603 c 0,1.6844 -0.56059,2.30956 -2.2786,2.30956 1.70661,0 2.2786,0.49743 2.2786,2.24764 0,-1.75076 0.5691,-2.30955 2.2786,-2.30955 -1.70975,0 -2.2786,-0.57787 -2.2786,-2.24765 z"
       id="use14743"
       sodipodi:nodetypes="ccccc"
       inkscape:label="star2" />
    <path
       style="fill:#ffffff;fill-opacity:0.610169;stroke:none;stroke-width:0.663073;stroke-linecap:square"
       d="m 123.41546,93.699983 c 0,1.684395 -0.56059,2.309555 -2.2786,2.309555 1.70661,0 2.2786,0.49743 2.2786,2.24764 0,-1.75076 0.5691,-2.30955 2.2786,-2.30955 -1.70975,0 -2.2786,-0.57787 -2.2786,-2.247645 z"
       id="use14745"
       sodipodi:nodetypes="ccccc"
       inkscape:label="star2" />
    <path
       style="fill:#ffffff;fill-opacity:0.610169;stroke:none;stroke-width:0.663073;stroke-linecap:square"
       d="m 98.822198,67.262661 c 0,1.6844 -0.56059,2.30956 -2.2786,2.30956 1.70661,0 2.2786,0.49743 2.2786,2.24764 0,-1.75076 0.5691,-2.30955 2.278602,-2.30955 -1.709752,0 -2.278602,-0.57787 -2.278602,-2.24765 z"
       id="use14747"
       sodipodi:nodetypes="ccccc"
       inkscape:label="star2" />
    <path
       style="fill:#ffffff;fill-opacity:1;stroke:none;stroke-width:1.164;stroke-linecap:square"
       d="m 188.84073,22.778367 c 0,2.95691 -0.9841,4.05434 -4,4.05434 2.99589,0 4,0.87323 4,3.94566 0,-3.07339 0.99904,-4.05434 4,-4.05434 -3.00141,0 -4,-1.01442 -4,-3.94566 z"
       id="use14755"
       sodipodi:nodetypes="ccccc"
       inkscape:label="star3" />
    <path
       style="fill:#ffffff;fill-opacity:1;stroke:none;stroke-width:1.164;stroke-linecap:square"
       d="m 67.161166,169.73009 c 0,2.95691 -0.9841,4.05434 -4,4.05434 2.99589,0 4,0.87323 4,3.94566 0,-3.07339 0.99904,-4.05434 4,-4.05434 -3.00141,0 -4,-1.01442 -4,-3.94566 z"
       id="use14757"
       sodipodi:nodetypes="ccccc"
       inkscape:label="star3" />
    <path
       style="fill:#ffffff;fill-opacity:0.610169;stroke:none;stroke-width:0.663073;stroke-linecap:square"
       d="m 55.615749,153.18626 c 0,1.6844 -0.56059,2.30956 -2.2786,2.30956 1.70661,0 2.2786,0.49743 2.2786,2.24764 0,-1.75076 0.5691,-2.30955 2.2786,-2.30955 -1.70975,0 -2.2786,-0.57787 -2.2786,-2.24765 z"
       id="use14761"
       sodipodi:nodetypes="ccccc"
       inkscape:label="star2" />
    <circle
       style="fill:#ffffff;fill-opacity:1;stroke:none;stroke-width:0.6402;stroke-linecap:square"
       id="use14763"
       cx="26.583534"
       cy="171.63222"
       r="0.47819087"
       inkscape:label="star1" />
    <path
       style="fill:#ffffff;fill-opacity:0.610169;stroke:none;stroke-width:0.663073;stroke-linecap:square"
       d="m 140.30525,242.38813 c 0,1.6844 -0.56059,2.30956 -2.2786,2.30956 1.70661,0 2.2786,0.49743 2.2786,2.24764 0,-1.75076 0.5691,-2.30955 2.2786,-2.30955 -1.70975,0 -2.2786,-0.57787 -2.2786,-2.24765 z"
       id="use14765"
       sodipodi:nodetypes="ccccc"
       inkscape:label="star2" />
    <path
       style="fill:#ffffff;fill-opacity:1;stroke:none;stroke-width:1.164;stroke-linecap:square"
       d="m 21.280398,156.68144 c 0,2.95691 -0.9841,4.05434 -4,4.05434 2.99589,0 4,0.87323 4,3.94566 0,-3.07339 0.99904,-4.05434 4,-4.05434 -3.00141,0 -4,-1.01442 -4,-3.94566 z"
       id="use14767"
       sodipodi:nodetypes="ccccc"
       inkscape:label="star3" />
    <circle
       style="fill:#ffffff;fill-opacity:1;stroke:none;stroke-width:0.6402;stroke-linecap:square"
       id="use14769"
       cx="201.71684"
       cy="154.08313"
       r="0.47819087"
       inkscape:label="star1" />
    <path
       style="fill:#ffffff;fill-opacity:1;stroke:none;stroke-width:1.164;stroke-linecap:square"
       d="m 166.62696,262.4102 c 0,2.95691 -0.9841,4.05434 -4,4.05434 2.99589,0 4,0.87323 4,3.94566 0,-3.07339 0.99904,-4.05434 4,-4.05434 -3.00141,0 -4,-1.01442 -4,-3.94566 z"
       id="use14771"
       sodipodi:nodetypes="ccccc"
       inkscape:label="star3" />
    <path
       style="fill:#ffffff;fill-opacity:0.610169;stroke:none;stroke-width:0.663073;stroke-linecap:square"
       d="m 59.384177,275.36466 c 0,1.6844 -0.56059,2.30956 -2.2786,2.30956 1.70661,0 2.2786,0.49743 2.2786,2.24764 0,-1.75076 0.5691,-2.30955 2.2786,-2.30955 -1.70975,0 -2.2786,-0.57787 -2.2786,-2.24765 z"
       id="path15035"
       sodipodi:nodetypes="ccccc"
       inkscape:label="star2" />
    <path
       style="fill:#ffffff;fill-opacity:0.610169;stroke:none;stroke-width:0.663073;stroke-linecap:square"
       d="m 102.5083,246.49932 c 0,1.6844 -0.56059,2.30956 -2.2786,2.30956 1.70661,0 2.2786,0.49743 2.2786,2.24764 0,-1.75076 0.5691,-2.30955 2.2786,-2.30955 -1.70975,0 -2.2786,-0.57787 -2.2786,-2.24765 z"
       id="path15037"
       sodipodi:nodetypes="ccccc"
       inkscape:label="star2" />
    <path
       style="fill:#ffffff;fill-opacity:0.610169;stroke:none;stroke-width:0.663073;stroke-linecap:square"
       d="m 95.552796,278.49464 c 0,1.6844 -0.56059,2.30956 -2.2786,2.30956 1.70661,0 2.2786,0.49743 2.2786,2.24764 0,-1.75076 0.5691,-2.30955 2.2786,-2.30955 -1.70975,0 -2.2786,-0.57787 -2.2786,-2.24765 z"
       id="path15039"
       sodipodi:nodetypes="ccccc"
       inkscape:label="star2" />
    <path
       style="fill:#ffffff;fill-opacity:0.610169;stroke:none;stroke-width:0.663073;stroke-linecap:square"
       d="m 192.92985,276.40799 c 0,1.6844 -0.56059,2.30956 -2.2786,2.30956 1.70661,0 2.2786,0.49743 2.2786,2.24764 0,-1.75076 0.5691,-2.30955 2.2786,-2.30955 -1.70975,0 -2.2786,-0.57787 -2.2786,-2.24765 z"
       id="path15041"
       sodipodi:nodetypes="ccccc"
       inkscape:label="star2" />
    <path
       style="fill:#ffffff;fill-opacity:0.610169;stroke:none;stroke-width:0.663073;stroke-linecap:square"
       d="m 52.428679,141.47122 c 0,1.6844 -0.56059,2.30956 -2.2786,2.30956 1.70661,0 2.2786,0.49743 2.2786,2.24764 0,-1.75076 0.5691,-2.30955 2.2786,-2.30955 -1.70975,0 -2.2786,-0.57787 -2.2786,-2.24765 z"
       id="path15043"
       sodipodi:nodetypes="ccccc"
       inkscape:label="star2" />
    <path
       style="fill:#ffffff;fill-opacity:0.610169;stroke:none;stroke-width:0.663073;stroke-linecap:square"
       d="m 71.556314,72.95951 c 0,1.6844 -0.56059,2.30956 -2.2786,2.30956 1.70661,0 2.2786,0.49743 2.2786,2.24764 0,-1.75076 0.5691,-2.30955 2.2786,-2.30955 -1.70975,0 -2.2786,-0.57787 -2.2786,-2.24765 z"
       id="path15045"
       sodipodi:nodetypes="ccccc"
       inkscape:label="star2" />
    <path
       style="fill:#ffffff;fill-opacity:0.610169;stroke:none;stroke-width:0.663073;stroke-linecap:square"
       d="m 18.694487,68.786208 c 0,1.6844 -0.56059,2.30956 -2.2786,2.30956 1.70661,0 2.2786,0.49743 2.2786,2.24764 0,-1.75076 0.5691,-2.30955 2.2786,-2.30955 -1.70975,0 -2.2786,-0.57787 -2.2786,-2.24765 z"
       id="path15047"
       sodipodi:nodetypes="ccccc"
       inkscape:label="star2" />
    <path
       style="fill:#ffffff;fill-opacity:0.610169;stroke:none;stroke-width:0.663073;stroke-linecap:square"
       d="m 48.950927,8.9688778 c 0,1.6844002 -0.56059,2.3095602 -2.2786,2.3095602 1.70661,0 2.2786,0.49743 2.2786,2.24764 0,-1.75076 0.5691,-2.30955 2.2786,-2.30955 -1.70975,0 -2.2786,-0.57787 -2.2786,-2.2476502 z"
       id="path15049"
       sodipodi:nodetypes="ccccc"
       inkscape:label="star2" />
    <circle
       style="fill:#ffffff;fill-opacity:1;stroke:none;stroke-width:0.6402;stroke-linecap:square"
       id="circle15053"
       cx="97.123802"
       cy="49.419292"
       r="0.47819087"
       inkscape:label="star1" />
    <path
       style="fill:#ffffff;fill-opacity:1;stroke:none;stroke-width:1.164;stroke-linecap:square"
       d="m 267.10052,262.45422 c 0,2.95692 -0.9841,4.05435 -4,4.05435 2.99589,0 4,0.87323 4,3.94566 0,-3.07339 0.99904,-4.05434 4,-4.05434 -3.00141,0 -4,-1.01442 -4,-3.94567 z"
       id="path376"
       sodipodi:nodetypes="ccccc"
       inkscape:label="star3" />
    <circle
       style="fill:#ffffff;fill-opacity:1;stroke:none;stroke-width:0.6402;stroke-linecap:square"
       id="circle380"
       cx="262.08923"
       cy="215.14905"
       r="0.47819087"
       inkscape:label="star1" />
    <path
       style="fill:#ffffff;fill-opacity:0.610169;stroke:none;stroke-width:0.663073;stroke-linecap:square"
       d="m 238.94027,188.68039 c 0,1.6844 -0.56059,2.30956 -2.2786,2.30956 1.70661,0 2.2786,0.49743 2.2786,2.24764 0,-1.75076 0.5691,-2.30955 2.2786,-2.30955 -1.70975,0 -2.2786,-0.57787 -2.2786,-2.24765 z"
       id="path386"
       sodipodi:nodetypes="ccccc"
       inkscape:label="star2" />
    <circle
       style="fill:#ffffff;fill-opacity:1;stroke:none;stroke-width:0.6402;stroke-linecap:square"
       id="circle388"
       cx="260.96951"
       cy="155.44984"
       r="0.47819087"
       inkscape:label="star1" />
    <circle
       style="fill:#ffffff;fill-opacity:1;stroke:none;stroke-width:0.6402;stroke-linecap:square"
       id="circle390"
       cx="195.22852"
       cy="100.24743"
       r="0.47819087"
       inkscape:label="star1" />
    <path
       style="fill:#ffffff;fill-opacity:1;stroke:none;stroke-width:1.164;stroke-linecap:square"
       d="m 221.58785,90.338273 c 0,2.95691 -0.9841,4.05434 -4,4.05434 2.99589,0 4,0.87323 4,3.94566 0,-3.07339 0.99904,-4.05434 4,-4.05434 -3.00141,0 -4,-1.01442 -4,-3.94566 z"
       id="path398"
       sodipodi:nodetypes="ccccc"
       inkscape:label="star3" />
    <path
       style="fill:#ffffff;fill-opacity:1;stroke:none;stroke-width:1.164;stroke-linecap:square"
       d="m 208.33048,51.576864 c 0,2.95691 -0.9841,4.05434 -4,4.05434 2.99589,0 4,0.87323 4,3.94566 0,-3.07339 0.99904,-4.05434 4,-4.05434 -3.00141,0 -4,-1.01442 -4,-3.94566 z"
       id="path400"
       sodipodi:nodetypes="ccccc"
       inkscape:label="star3" />
    <path
       style="fill:#ffffff;fill-opacity:1;stroke:none;stroke-width:1.164;stroke-linecap:square"
       d="m 189.92752,133.59541 c 0,2.95691 -0.9841,4.05434 -4,4.05434 2.99589,0 4,0.87323 4,3.94566 0,-3.07339 0.99904,-4.05434 4,-4.05434 -3.00141,0 -4,-1.01442 -4,-3.94566 z"
       id="path402"
       sodipodi:nodetypes="ccccc"
       inkscape:label="star3" />
    <path
       style="fill:#ffffff;fill-opacity:1;stroke:none;stroke-width:1.164;stroke-linecap:square"
       d="m 273.07966,111.0565 c 0,2.95691 -0.9841,4.05434 -4,4.05434 2.99589,0 4,0.87323 4,3.94566 0,-3.07339 0.99904,-4.05434 4,-4.05434 -3.00141,0 -4,-1.01442 -4,-3.94566 z"
       id="path404"
       sodipodi:nodetypes="ccccc"
       inkscape:label="star3" />
    <circle
       style="fill:#ffffff;fill-opacity:1;stroke:none;stroke-width:0.6402;stroke-linecap:square"
       id="circle414"
       cx="248.50403"
       cy="102.85111"
       r="0.47819087"
       inkscape:label="star1" />
    <path
       style="fill:#ffffff;fill-opacity:0.610169;stroke:none;stroke-width:0.663073;stroke-linecap:square"
       d="m 282.79149,183.82745 c 0,1.6844 -0.56059,2.30956 -2.2786,2.30956 1.70661,0 2.2786,0.49743 2.2786,2.24764 0,-1.75076 0.5691,-2.30955 2.2786,-2.30955 -1.70975,0 -2.2786,-0.57787 -2.2786,-2.24765 z"
       id="path418"
       sodipodi:nodetypes="ccccc"
       inkscape:label="star2" />
    <path
       style="fill:#ffffff;fill-opacity:0.610169;stroke:none;stroke-width:0.663073;stroke-linecap:square"
       d="m 269.95005,97.93983 c 0,1.6844 -0.56059,2.30956 -2.2786,2.30956 1.70661,0 2.2786,0.49743 2.2786,2.24764 0,-1.75076 0.5691,-2.30955 2.2786,-2.30955 -1.70975,0 -2.2786,-0.57787 -2.2786,-2.24765 z"
       id="path420"
       sodipodi:nodetypes="ccccc"
       inkscape:label="star2" />
    <path
       style="fill:#ffffff;fill-opacity:0.610169;stroke:none;stroke-width:0.663073;stroke-linecap:square"
       d="m 222.91582,225.2785 c 0,1.6844 -0.56059,2.30956 -2.2786,2.30956 1.70661,0 2.2786,0.49743 2.2786,2.24764 0,-1.75076 0.5691,-2.30955 2.2786,-2.30955 -1.70975,0 -2.2786,-0.57787 -2.2786,-2.24765 z"
       id="path422"
       sodipodi:nodetypes="ccccc"
       inkscape:label="star2" />
    <path
       style="fill:#ffffff;fill-opacity:1;stroke:none;stroke-width:1.164;stroke-linecap:square"
       d="m 292.23163,151.91199 c 0,2.95691 -0.9841,4.05434 -4,4.05434 2.99589,0 4,0.87323 4,3.94566 0,-3.07339 0.99904,-4.05434 4,-4.05434 -3.00141,0 -4,-1.01442 -4,-3.94566 z"
       id="path432"
       sodipodi:nodetypes="ccccc"
       inkscape:label="star3" />
    <path
       style="fill:#ffffff;fill-opacity:0.610169;stroke:none;stroke-width:0.663073;stroke-linecap:square"
       d="m 229.94943,42.824006 c 0,1.6844 -0.56059,2.30956 -2.2786,2.30956 1.70661,0 2.2786,0.49743 2.2786,2.24764 0,-1.75076 0.5691,-2.30955 2.2786,-2.30955 -1.70975,0 -2.2786,-0.57787 -2.2786,-2.24765 z"
       id="path434"
       sodipodi:nodetypes="ccccc"
       inkscape:label="star2" />
    <path
       style="fill:#ffffff;fill-opacity:1;stroke:none;stroke-width:1.164;stroke-linecap:square"
       d="m 210.27431,120.79093 c 0,2.95691 -0.9841,4.05434 -4,4.05434 2.99589,0 4,0.87323 4,3.94566 0,-3.07339 0.99904,-4.05434 4,-4.05434 -3.00141,0 -4,-1.01442 -4,-3.94566 z"
       id="path436"
       sodipodi:nodetypes="ccccc"
       inkscape:label="star3" />
    <circle
       style="fill:#ffffff;fill-opacity:1;stroke:none;stroke-width:0.6402;stroke-linecap:square"
       id="circle444"
       cx="229.9323"
       cy="127.54134"
       r="0.47819087"
       inkscape:label="star1" />
    <path
       style="fill:#ffffff;fill-opacity:0.610169;stroke:none;stroke-width:0.663073;stroke-linecap:square"
       d="m 241.79966,115.18932 c 0,1.6844 -0.56059,2.30956 -2.2786,2.30956 1.70661,0 2.2786,0.49743 2.2786,2.24764 0,-1.75076 0.5691,-2.30955 2.2786,-2.30955 -1.70975,0 -2.2786,-0.57787 -2.2786,-2.24765 z"
       id="path448"
       sodipodi:nodetypes="ccccc"
       inkscape:label="star2" />
    <circle
       style="fill:#ffffff;fill-opacity:1;stroke:none;stroke-width:0.6402;stroke-linecap:square"
       id="circle450"
       cx="190.38191"
       cy="46.159954"
       r="0.47819087"
       inkscape:label="star1" />
    <circle
       style="fill:#ffffff;fill-opacity:1;stroke:none;stroke-width:0.6402;stroke-linecap:square"
       id="circle456"
       cx="238.16226"
       cy="251.2364"
       r="0.47819087"
       inkscape:label="star1" />
    <path
       style="fill:#ffffff;fill-opacity:1;stroke:none;stroke-width:1.164;stroke-linecap:square"
       d="m 205.50951,200.84748 c 0,2.95691 -0.9841,4.05434 -4,4.05434 2.99589,0 4,0.87323 4,3.94566 0,-3.07339 0.99904,-4.05434 4,-4.05434 -3.00141,0 -4,-1.01442 -4,-3.94566 z"
       id="path458"
       sodipodi:nodetypes="ccccc"
       inkscape:label="star3" />
    <path
       style="fill:#ffffff;fill-opacity:1;stroke:none;stroke-width:1.164;stroke-linecap:square"
       d="m 290.81197,27.388531 c 0,2.95691 -0.9841,4.05434 -4,4.05434 2.99589,0 4,0.87323 4,3.94566 0,-3.07339 0.99904,-4.05434 4,-4.05434 -3.00141,0 -4,-1.01442 -4,-3.94566 z"
       id="path470"
       sodipodi:nodetypes="ccccc"
       inkscape:label="star3" />
    <path
       style="fill:#ffffff;fill-opacity:1;stroke:none;stroke-width:1.164;stroke-linecap:square"
       d="m 256.30478,52.485186 c 0,2.95691 -0.9841,4.05434 -4,4.05434 2.99589,0 4,0.87323 4,3.94566 0,-3.07339 0.99904,-4.05434 4,-4.05434 -3.00141,0 -4,-1.01442 -4,-3.94566 z"
       id="path472"
       sodipodi:nodetypes="ccccc"
       inkscape:label="star3" />
    <path
       style="fill:#ffffff;fill-opacity:0.610169;stroke:none;stroke-width:0.663073;stroke-linecap:square"
       d="m 277.35337,132.48069 c 0,1.6844 -0.56059,2.30956 -2.2786,2.30956 1.70661,0 2.2786,0.49743 2.2786,2.24764 0,-1.75076 0.5691,-2.30955 2.2786,-2.30955 -1.70975,0 -2.2786,-0.57787 -2.2786,-2.24765 z"
       id="path474"
       sodipodi:nodetypes="ccccc"
       inkscape:label="star2" />
    <circle
       style="fill:#ffffff;fill-opacity:1;stroke:none;stroke-width:0.6402;stroke-linecap:square"
       id="circle478"
       cx="210.92853"
       cy="37.133705"
       r="0.47819087"
       inkscape:label="star1" />
    <path
       style="fill:#ffffff;fill-opacity:1;stroke:none;stroke-width:1.164;stroke-linecap:square"
       d="m 247.75346,27.198488 c 0,2.95691 -0.9841,4.05434 -4,4.05434 2.99589,0 4,0.87323 4,3.94566 0,-3.07339 0.99904,-4.05434 4,-4.05434 -3.00141,0 -4,-1.01442 -4,-3.94566 z"
       id="path480"
       sodipodi:nodetypes="ccccc"
       inkscape:label="star3" />
    <path
       style="fill:#ffffff;fill-opacity:0.610169;stroke:none;stroke-width:0.663073;stroke-linecap:square"
       d="m 215.42533,167.85566 c 0,1.6844 -0.56059,2.30956 -2.2786,2.30956 1.70661,0 2.2786,0.49743 2.2786,2.24764 0,-1.75076 0.5691,-2.30955 2.2786,-2.30955 -1.70975,0 -2.2786,-0.57787 -2.2786,-2.24765 z"
       id="path482"
       sodipodi:nodetypes="ccccc"
       inkscape:label="star2" />
    <path
       style="fill:#ffffff;fill-opacity:1;stroke:none;stroke-width:1.164;stroke-linecap:square"
       d="m 219.94307,272.77884 c 0,2.95691 -0.9841,4.05434 -4,4.05434 2.99589,0 4,0.87323 4,3.94566 0,-3.07339 0.99904,-4.05434 4,-4.05434 -3.00141,0 -4,-1.01442 -4,-3.94566 z"
       id="path484"
       sodipodi:nodetypes="ccccc"
       inkscape:label="star3" />
    <circle
       style="fill:#ffffff;fill-opacity:1;stroke:none;stroke-width:0.6402;stroke-linecap:square"
       id="circle486"
       cx="272.23987"
       cy="27.533249"
       r="0.47819087"
       inkscape:label="star1" />
    <path
       style="fill:#ffffff;fill-opacity:1;stroke:none;stroke-width:1.164;stroke-linecap:square"
       d="m 263.04537,230.83421 c 0,2.95691 -0.9841,4.05434 -4,4.05434 2.99589,0 4,0.87323 4,3.94566 0,-3.07339 0.99904,-4.05434 4,-4.05434 -3.00141,0 -4,-1.01442 -4,-3.94566 z"
       id="path492"
       sodipodi:nodetypes="ccccc"
       inkscape:label="star3" />
    <path
       style="fill:#ffffff;fill-opacity:0.610169;stroke:none;stroke-width:0.663073;stroke-linecap:square"
       d="m 283.9427,73.434363 c 0,1.6844 -0.56059,2.30956 -2.2786,2.30956 1.70661,0 2.2786,0.49743 2.2786,2.24764 0,-1.75076 0.5691,-2.30955 2.2786,-2.30955 -1.70975,0 -2.2786,-0.57787 -2.2786,-2.24765 z"
       id="path506"
       sodipodi:nodetypes="ccccc"
       inkscape:label="star2" />
    <path
       style="fill:#ffffff;fill-opacity:1;stroke:none;stroke-width:1.164;stroke-linecap:square"
       d="m 252.28167,175.90179 c 0,2.95691 -0.9841,4.05434 -4,4.05434 2.99589,0 4,0.87323 4,3.94566 0,-3.07339 0.99904,-4.05434 4,-4.05434 -3.00141,0 -4,-1.01442 -4,-3.94566 z"
       id="path510"
       sodipodi:nodetypes="ccccc"
       inkscape:label="star3" />
    <path
       style="fill:#ffffff;fill-opacity:0.610169;stroke:none;stroke-width:0.663073;stroke-linecap:square"
       d="m 240.73625,159.35796 c 0,1.6844 -0.56059,2.30956 -2.2786,2.30956 1.70661,0 2.2786,0.49743 2.2786,2.24764 0,-1.75076 0.5691,-2.30955 2.2786,-2.30955 -1.70975,0 -2.2786,-0.57787 -2.2786,-2.24765 z"
       id="path512"
       sodipodi:nodetypes="ccccc"
       inkscape:label="star2" />
    <path
       style="fill:#ffffff;fill-opacity:0.610169;stroke:none;stroke-width:0.663073;stroke-linecap:square"
       d="m 244.50468,281.53636 c 0,1.6844 -0.56059,2.30956 -2.2786,2.30956 1.70661,0 2.2786,0.49743 2.2786,2.24764 0,-1.75076 0.5691,-2.30955 2.2786,-2.30955 -1.70975,0 -2.2786,-0.57787 -2.2786,-2.24765 z"
       id="path524"
       sodipodi:nodetypes="ccccc"
       inkscape:label="star2" />
    <path
       style="fill:#ffffff;fill-opacity:0.610169;stroke:none;stroke-width:0.663073;stroke-linecap:square"
       d="m 287.6288,252.67102 c 0,1.6844 -0.56059,2.30956 -2.2786,2.30956 1.70661,0 2.2786,0.49743 2.2786,2.24764 0,-1.75076 0.5691,-2.30955 2.2786,-2.30955 -1.70975,0 -2.2786,-0.57787 -2.2786,-2.24765 z"
       id="path526"
       sodipodi:nodetypes="ccccc"
       inkscape:label="star2" />
    <path
       style="fill:#ffffff;fill-opacity:0.610169;stroke:none;stroke-width:0.663073;stroke-linecap:square"
       d="m 280.6733,284.66634 c 0,1.6844 -0.56059,2.30956 -2.2786,2.30956 1.70661,0 2.2786,0.49743 2.2786,2.24764 0,-1.75076 0.5691,-2.30955 2.2786,-2.30955 -1.70975,0 -2.2786,-0.57787 -2.2786,-2.24765 z"
       id="path528"
       sodipodi:nodetypes="ccccc"
       inkscape:label="star2" />
    <path
       style="fill:#ffffff;fill-opacity:0.610169;stroke:none;stroke-width:0.663073;stroke-linecap:square"
       d="m 237.54918,147.64292 c 0,1.6844 -0.56059,2.30956 -2.2786,2.30956 1.70661,0 2.2786,0.49743 2.2786,2.24764 0,-1.75076 0.5691,-2.30955 2.2786,-2.30955 -1.70975,0 -2.2786,-0.57787 -2.2786,-2.24765 z"
       id="path532"
       sodipodi:nodetypes="ccccc"
       inkscape:label="star2" />
    <path
       style="fill:#ffffff;fill-opacity:0.610169;stroke:none;stroke-width:0.663073;stroke-linecap:square"
       d="m 256.67681,79.131212 c 0,1.6844 -0.56059,2.30956 -2.2786,2.30956 1.70661,0 2.2786,0.49743 2.2786,2.24764 0,-1.75076 0.5691,-2.30955 2.2786,-2.30955 -1.70975,0 -2.2786,-0.57787 -2.2786,-2.24765 z"
       id="path534"
       sodipodi:nodetypes="ccccc"
       inkscape:label="star2" />
    <path
       style="fill:#ffffff;fill-opacity:0.610169;stroke:none;stroke-width:0.663073;stroke-linecap:square"
       d="m 203.81499,74.95791 c 0,1.6844 -0.56059,2.30956 -2.2786,2.30956 1.70661,0 2.2786,0.49743 2.2786,2.24764 0,-1.75076 0.5691,-2.30955 2.2786,-2.30955 -1.70975,0 -2.2786,-0.57787 -2.2786,-2.24765 z"
       id="path536"
       sodipodi:nodetypes="ccccc"
       inkscape:label="star2" />
    <path
       style="fill:#ffffff;fill-opacity:0.610169;stroke:none;stroke-width:0.663073;stroke-linecap:square"
       d="m 234.07143,15.14058 c 0,1.6844 -0.56059,2.30956 -2.2786,2.30956 1.70661,0 2.2786,0.49743 2.2786,2.24764 0,-1.75076 0.5691,-2.30955 2.2786,-2.30955 -1.70975,0 -2.2786,-0.57787 -2.2786,-2.24765 z"
       id="path538"
       sodipodi:nodetypes="ccccc"
       inkscape:label="star2" />
    <circle
       style="fill:#ffffff;fill-opacity:1;stroke:none;stroke-width:0.6402;stroke-linecap:square"
       id="circle540"
       cx="282.24432"
       cy="55.590992"
       r="0.47819087"
       inkscape:label="star1" />
  </g>
</svg>
