<?xml version="1.0" encoding="UTF-8" standalone="no"?>
<!-- Created with Inkscape (http://www.inkscape.org/) -->

<svg
   width="296.66895mm"
   height="78.84597mm"
   viewBox="0 0 296.66895 78.84597"
   version="1.1"
   id="svg1"
   xmlns="http://www.w3.org/2000/svg"
   xmlns:svg="http://www.w3.org/2000/svg">
  <defs
     id="defs1">
    <clipPath
       id="66f96654d1">
      <path
         d="M 0.226562,965 H 841.61328 v 224.5 H 0.226562 Z m 0,0"
         clip-rule="nonzero"
         id="path2" />
    </clipPath>
  </defs>
  <g
     id="layer1">
    <g
       clip-path="url(#66f96654d1)"
       id="g346"
       transform="matrix(0.35260179,0,0,0.35260179,-0.07988617,-340.57386)">
      <path
         fill="#0477bf"
         d="m 43.941406,965.96875 c -16.21875,1.48828 -31.429687,8.43359 -43.433594,19.83203 l -2.351562,2.23438 v 5.67578 l 3.675781,-3.66407 c 19.390625,-19.33593 43.183594,-24.96093 73.4375,-17.36328 30.003909,7.53516 48.933599,28.35941 50.507809,55.54691 1.32422,22.9336 -15.03125,40.7539 -38.820309,42.2812 l -2.410156,0.1563 2.855469,-0.9766 c 27.832036,-9.5351 33.316406,-47.6758 10.332031,-71.84765 C 82.78125,982.11719 62.023438,977.91016 36.683594,985.46484 19.839844,990.48437 9.351562,997.44922 -0.117188,1009.8984 l -1.726562,2.2657 v 6.4609 l 0.5625,-0.6797 c 0.308594,-0.375 1.742188,-2.2539 3.191406,-4.1758 10.246094,-13.6133 20.285156,-20.38278 37.367188,-25.19528 25.542968,-7.19922 44.035156,-2.25391 58.816406,15.72268 18.98828,23.0859 10.65625,56.664 -15.625,62.9648 -2.617188,0.625 -2.640625,0.6211 -1.390625,-0.2734 12.691406,-9.0781 17.386719,-23.6602 12.058594,-37.4336 -9.011719,-23.2813 -44.300781,-27.2266 -68.59375,-7.6641 -18.972657,15.2774 -24.851563,40.1407 -14.921875,63.1563 1.117187,2.5937 1.226562,2.9883 0.871094,3.1133 -2.011719,0.6992 -6.988282,2.7851 -9.382813,3.9296 L -1.84375,1093.5 v 2.4453 c 0,1.3477 0.082031,2.4102 0.183594,2.3672 0.097656,-0.043 1.7499998,-0.8594 3.675781,-1.8125 28.226563,-14.0117 66.554687,-15.3789 94.941406,-3.3906 28.460939,12.0195 48.472659,33.4179 65.066409,69.5859 1.61328,3.5117 3.35937,7.1641 3.88281,8.1133 l 0.94922,1.7305 -1.27344,0.1406 c -5.99219,0.668 -7.73437,0.8594 -7.92187,0.8594 -0.1211,0 -0.40625,-0.461 -0.62891,-1.0235 -6.57813,-16.5 -24.80078,-36.4492 -44.11328,-48.2812 -1.48828,-0.9141 -3.60547,-2.2344 -4.69531,-2.9336 -8.558598,-5.4805 -25.769535,-12.1485 -38.62891,-14.9649 -23.425781,-5.1289 -43.59375,-3.4843 -69.6875,5.6836 l -1.75,0.6133 v 4.2031 l 6.328125,-2.1171 c 27.714844,-9.2813 50.75,-9.5508 77.050781,-0.9102 6.765625,2.2227 17.371094,6.6602 19.757814,8.2656 0.46484,0.3125 2.14453,1.2969 3.73828,2.1914 16.41406,9.2305 29.86328,21.1524 40.26953,35.6992 2.96875,4.1485 8.4375,13.8243 8.00391,14.1563 -0.043,0.035 -1,0.1953 -2.12891,0.3594 -1.125,0.164 -3.53906,0.5976 -5.35937,0.9609 -1.82422,0.3672 -3.3125,0.582 -3.3125,0.4766 0,-0.625 -8.60938,-10.2149 -13.28907,-14.8008 -14.46484,-14.1719 -28.37109,-23.1758 -39.40234,-25.5039 -2.492188,-0.5274 -2.898438,-0.6836 -3.328125,-1.2774 -7.980469,-11 -22.734375,-19.4336 -38.503906,-22.0078 -17.589844,-2.8672 -32.503907,1.2774 -47.230469,13.1289 l -2.59375,2.086 v 5.5742 l 0.941406,-0.8164 c 14.671875,-12.707 24.027344,-16.7227 38.941406,-16.7149 19.019532,0.016 37.113282,8.8829 45.964844,22.5313 10.761719,16.5898 8.617188,39.6367 -4.402344,47.2851 -1.839843,1.0782 -1.894531,1.0547 -1.011718,-0.4492 6.800781,-11.5742 7.738281,-28.8164 2.167968,-39.9687 -4.703124,-9.4219 -15.511718,-16.1446 -28.117187,-17.4883 -16.671875,-1.7813 -34,6.6523 -50.519531,24.5898 -4.324219,4.6954 -3.992188,4.0938 -3.910156,7.1485 l 0.066406,2.5781 2.269531,-2.75 c 9.78125,-11.8555 22.53125,-21.7852 32.613281,-25.3984 19.464844,-6.9766 40.632813,0.332 45.6875,15.7773 4.238282,12.9453 0.316406,33.9219 -7.15625,38.2461 -0.617187,0.3594 -1.261718,0.8438 -1.433594,1.082 -0.867187,1.1875 -0.585937,0.2227 0.332032,-1.1484 10.585937,-15.7891 2.039062,-39.5625 -16,-44.5 -16.054688,-4.3906 -40.957032,12.9766 -55.304688,38.5742 l -1.128906,2.0156 0.019531,4.1289 c 0.011719,3.2149 0.074219,4 0.277344,3.5313 9.851563,-22.4609 29.394531,-41.6016 45.679687,-44.7344 15.84375,-3.0469 28.394532,9.625 27.230469,27.5039 -0.355469,5.461 -2.242187,10.2266 -5.523437,13.9571 -1.792969,2.0351 -2.140625,2.125 -8.761719,2.2421 l -5.785156,0.1016 1.605469,-0.9805 c 7.945312,-4.8671 7.210937,-16.7226 -1.363282,-22.0703 -10.570312,-6.5859 -25.609375,0.5117 -28.34375,13.375 -0.523437,2.4649 -0.941406,13.9063 -0.59375,16.2305 l 0.167969,1.1211 h 3.707031 l 0.0078,-6.9258 c 0.01563,-9.5312 0.601562,-12.082 3.628906,-15.8633 6.980469,-8.7148 19.070313,-8.7031 23.234375,0.02 3.09375,6.4843 0.445312,10.2812 -9.160156,13.1328 -3.003906,0.8906 -3.613282,1.3984 -3.613282,3.0078 0,1.9609 1.273438,2.3633 8.796876,2.7812 19.339843,1.0703 32.824218,-2.8398 39.21875,-11.3711 l 0.84375,-1.1289 1.785156,0.7774 c 3.519531,1.5312 9.058599,5.2656 12.246099,8.2617 l 1.51562,1.4258 -4.79297,2.5703 c -2.636718,1.4101 -4.980468,2.6406 -5.214843,2.7266 -1.136719,0.4218 -0.04297,0.5859 3.921875,0.5859 h 4.343758 l 4.875,-2.6797 c 22.69531,-12.4961 32.4414,-15.7305 54.66015,-18.1523 23.8125,-2.5977 38.99219,-1.2227 58.74219,5.3164 11.85156,3.9218 25.83594,10.6679 31.11719,15.0117 0.82812,0.6797 7.28515,0.789 6.72265,0.1133 -8.10156,-9.7618 -42.17969,-23.3828 -63.23047,-25.2696 -3.15625,-0.2851 -2.79687,-0.012 -5.60156,-4.3047 -1.39844,-2.1406 -3.43359,-5.246 -4.51953,-6.9023 -12.30859,-18.75 -16.65234,-34.2773 -14.92969,-53.3477 2.05469,-22.7187 9.91406,-41.2695 25.26953,-59.6718 1.21094,-1.4492 9.98828,-10.086 10.5625,-10.3907 0.41407,-0.2226 0.34375,-0.066 -0.30078,0.6524 -18.46875,20.582 -25.97265,63.5234 -16.02734,91.7109 10.80469,30.6172 52.5664,57.9336 86.7539,56.7539 12.44141,-0.4336 21.78907,-2.8476 48.70313,-12.5898 18.99219,-6.875 24.92969,-8.4414 33.01172,-8.7149 5.27344,-0.1796 5.19922,-0.3281 1.72656,3.4258 -1.59375,1.7227 -4.17187,4.6367 -5.72656,6.4727 l -2.82813,3.3437 -2.98437,-0.035 c -8.05078,-0.098 -18.25391,3.1133 -37.71875,11.875 -10.25391,4.6172 -16.04297,6.9023 -17.46485,6.9023 -0.25,0 -0.45312,0.1094 -0.45312,0.2383 0,0.1563 2.00391,0.2422 5.53516,0.2422 h 5.53515 l 2.96094,-1.293 c 1.62891,-0.7109 3.44531,-1.5117 4.04297,-1.7851 17.46484,-7.9649 28.07422,-11.6641 35.30469,-12.3164 1.1914,-0.1055 2.20312,-0.168 2.24609,-0.1329 0.043,0.031 -0.66797,1.0743 -1.57813,2.3125 -3.08593,4.1875 -8.74218,12.6797 -8.74218,13.1133 0,0.055 1.13672,0.1016 2.52734,0.1016 h 2.52734 l 0.63672,-1.0234 c 13.88672,-22.2422 33.81641,-41.7344 54.01563,-52.8165 9.16015,-5.0273 24.3125,-10.6601 32.46484,-12.0703 1.0625,-0.1836 3.17578,-0.6015 4.69922,-0.9336 9.89844,-2.1367 25.46484,-3.5117 36.02734,-3.1796 18.28907,0.5781 30.73047,3.8789 43.73438,11.5976 3.17969,1.8867 3.24219,1.9844 0.66797,1.0234 -35.59766,-13.2617 -76.67969,-7.9218 -111.27344,14.4532 -14.39844,9.3164 -30.38281,26.4179 -38.19141,40.8554 l -1.13281,2.0938 h 4.13281 l 0.51954,-1.0234 c 6.6289,-13.0665 25.99609,-33.2891 38.76953,-40.4844 0.59375,-0.336 2.49218,-1.4414 4.21484,-2.4531 25.79297,-15.1875 57.72266,-20.5586 86.00391,-14.4766 13.46484,2.8945 30.28125,9.6875 35.64062,14.3984 11.6211,10.2071 22.875,23.1016 29.8125,34.1524 2.40625,3.8281 5.125,8.7304 5.15235,9.2773 0.0273,0.5235 5.20703,0.9258 5.20703,0.4102 0,-0.5899 7.32812,-3.2305 11.46484,-4.1328 10.14453,-2.211 17.38281,-1.2618 21.69531,2.8437 0.1836,0.1758 0.33594,0.582 0.33594,0.9024 0,0.5781 0.0391,0.5859 2.07422,0.5859 h 2.07812 l -0.14453,-0.7852 c -2.53125,-13.9257 -1.35156,-35.7656 2.76953,-51.2656 2.22657,-8.375 7.72266,-22.0937 10.08204,-25.1836 0.10156,-0.1328 0.54296,-0.8906 0.98046,-1.6836 0.4375,-0.7969 1.07422,-1.8711 1.41797,-2.3906 0.34375,-0.5195 1.0586,-1.6094 1.58594,-2.4297 1.80859,-2.7851 4.77344,-6.6523 7.48828,-9.7617 2.4961,-2.8555 8.92578,-9.207 10.54297,-10.4063 0.58594,-0.4414 2.19531,-1.6796 3.57031,-2.7578 10.33594,-8.0898 23.81641,-15.1953 37.4375,-19.7383 47.28516,-15.7656 96.57813,-4.6132 135.60157,30.6836 7.03906,6.3633 10.71875,10.9532 15.61718,19.4766 l 1.92188,3.3398 v -8.125 l -2.0586,-3.0429 c -1.13281,-1.6719 -2.48046,-3.6016 -3,-4.2813 l -0.94531,-1.2422 0.77344,-0.1328 c 0.42578,-0.074 1.77734,-0.207 3.00391,-0.2968 l 2.22656,-0.1641 v -3.0703 h -1.91797 c -1.05469,0 -3.00781,0.125 -4.33594,0.2734 l -2.41797,0.2774 -3.5625,-3.4688 c -1.95703,-1.9062 -4.57812,-4.3359 -5.82031,-5.3945 -1.25,-1.0625 -2.58594,-2.2031 -2.98047,-2.543 l -0.71094,-0.6172 2.01563,-0.5429 c 5.94922,-1.5977 14.92578,-2.1836 18.34766,-1.1993 l 1.38281,0.3985 v -3.5039 l -1.50391,-0.336 c -4.6875,-1.0351 -16.0039,0.062 -21.68359,2.1133 -0.89844,0.3242 -1.77344,0.5117 -1.9375,0.4102 -0.16406,-0.1016 -1.27344,-0.8985 -2.46485,-1.7774 -2.83203,-2.082 -6.28125,-4.4336 -8.625,-5.8828 -1.03125,-0.6406 -1.84375,-1.1914 -1.80468,-1.2305 0.27734,-0.2812 9.95703,-4.9531 13.07812,-6.3164 8.92969,-3.8945 14.87891,-5.3593 21.74219,-5.3593 h 3.19922 v -3.0821 l -1.94922,-0.1758 c -8.52734,-0.7539 -19.83203,2.6524 -35.57813,10.7188 l -4.15625,2.125 -3.07421,-1.6914 c -1.69141,-0.9297 -4.13282,-2.1992 -5.42969,-2.8164 l -2.35547,-1.1289 1.03125,-0.5781 c 1.41016,-0.793 9.60937,-6.25 12.78125,-8.5118 17.10937,-12.1797 24.94531,-15.5781 35.89844,-15.582 h 2.83203 v -3.3711 h -2.46875 c -12.76563,0.023 -20.90235,3.5313 -40.41406,17.4414 -4.89844,3.4883 -9.46485,6.5235 -11.71875,7.793 l -1.71094,0.9609 -2.26563,-0.9531 c -2.01562,-0.8438 -5.14843,-2.0469 -9.11328,-3.4922 l -1.30469,-0.4805 0.8125,-0.5742 c 2.13282,-1.5234 7.3711,-5.5156 12.27735,-9.3711 14.78515,-11.6054 21.53906,-16.1484 31.41406,-21.125 10.10547,-5.0937 19.59766,-8.5195 23.625,-8.5195 h 0.86719 v -3.6602 l -1.50391,0.1641 c -8.89844,0.9766 -26.76953,8.8945 -39.64453,17.5625 -3.65625,2.4609 -9.77734,7.0391 -17.70703,13.2344 -7.95703,6.2187 -10.88281,8.4336 -13.01563,9.8672 l -1.6289,1.0898 -2.04688,-0.5781 c -2.93359,-0.8281 -7.66406,-1.8945 -11.55078,-2.6094 -1.84765,-0.3437 -3.39062,-0.6523 -3.43359,-0.6953 -0.0391,-0.039 1.30859,-1.1445 3,-2.457 3.71484,-2.8789 8.75,-7.0899 15.83984,-13.2383 31.28516,-27.1328 48.46485,-36.2383 68.39063,-36.2656 h 3.32422 l -0.0703,-1.6289 -0.0742,-1.625 -4.33593,0.051 c -20.625,0.2266 -38.32032,9.5938 -70.2461,37.1797 -15.46875,13.3633 -20.6914,17.4258 -22.16797,17.25 -15.11328,-1.8047 -34.46484,-0.1523 -50.36718,4.3086 -1.65235,0.4688 -3.0625,0.8477 -3.12891,0.8516 -0.0664,0 -0.0859,-1.3828 -0.0391,-3.0703 0.58594,-21.6954 -13.26563,-52.3399 -30.60547,-67.69926 -26.02734,-23.05469 -55.20703,-30.14063 -84.17969,-20.4375 -40.35937,13.51172 -61.7539,40.80466 -57.41406,73.25386 0.21094,1.5938 0.45703,3.7071 0.54687,4.6993 0.2461,2.7968 1.1875,6.9531 2.98438,13.2031 1.78906,6.207 3.89844,13.6484 4.625,16.3008 1.47656,5.375 6.01172,5.0468 9.80078,-0.7071 5.19531,-7.875 9.97656,-10.625 14.5625,-8.3671 4.78125,2.3554 8.11328,8.1601 8.53906,14.875 0.19141,3.0351 0.0625,3.2695 -2.10547,3.8281 -11.8789,3.0586 -23.96093,8.6289 -37.77734,17.4219 -2.16797,1.3828 -3.97656,2.4765 -4.01562,2.4375 -0.0391,-0.039 0.14453,-1.5352 0.41015,-3.3243 3.16797,-21.3437 -8.23047,-42.6836 -31.85156,-59.625 -10.10547,-7.25 -15.39063,-9.4687 -16.56641,-6.9531 -0.46484,0.9961 -0.38281,1.3164 0.78516,3.0977 8.16797,12.4375 -1.80078,23.7304 -23.79688,26.9609 -22.3164,3.2773 -36.35937,-4.4922 -65.96093,-36.4961 -9.39844,-10.1641 -15.9375,-16.6523 -21.8711,-21.7109 -1.42968,-1.2149 -2.88672,-2.4649 -3.24609,-2.7696 -2.47656,-2.1445 -10.26172,-7.8398 -14.05078,-10.2812 -1.95703,-1.26173 -6.8711,-4.27736 -6.96875,-4.27736 -0.0391,0 -1.03516,-0.55468 -2.21094,-1.23437 -32.66016,-18.79688 -80.35937,-23.25391 -112.6875,-10.53125 -27.10156,10.66797 -70.71484,47.95308 -101.27734,86.58988 -8.26953,10.4531 -11.89453,14.0078 -15.23438,14.9414 -0.63281,0.1758 -1.960938,0.6172 -2.957032,0.9804 l -1.808593,0.6641 -2.769532,-1.0195 c -7.503906,-2.7617 -17.757812,-5.1016 -25.71875,-5.8672 l -2.941406,-0.2852 -0.734375,-1.1289 c -3.457031,-5.3398 -4.105469,-12.3242 -1.378906,-14.8711 1.445312,-1.3476 2.316406,0.418 1.027343,2.0703 -0.480468,0.6172 -0.9375,1.3946 -1.019531,1.7344 -0.07813,0.336 -0.320312,0.8125 -0.535156,1.0586 -0.472656,0.5469 -0.523437,2.6445 -0.07422,3.0938 0.234375,0.2382 2.015625,0.3515 7.109375,0.4609 3.738281,0.082 8.039063,0.2852 9.566407,0.4492 12.773437,1.3945 27.242196,-2.9844 36.562506,-11.0625 15.24218,-13.2109 17.86328,-39.2031 6.16797,-61.2148 -10.1836,-19.17191 -31.753914,-31.80472 -60.324226,-35.32034 -3.109376,-0.38282 -15.199219,-0.67969 -17.832032,-0.44141 m 566.332038,9.35156 c 24.25781,3.3711 48.64062,19.51563 62.26172,41.21879 8.71484,13.8906 14.86328,32.9843 14.78125,45.9101 -0.0352,5.8242 0.48046,5.0781 -4.90625,7.1094 -2.51954,0.9531 -5.30469,2.0625 -6.19141,2.4727 l -1.60938,0.7343 -0.13281,-0.6406 c -0.0742,-0.3516 -0.46875,-3.7852 -0.875,-7.6289 -2.67969,-25.3594 -6.45703,-36.8984 -16,-48.918 -19.46094,-24.50388 -57.92969,-39.05076 -83.75,-31.66404 -30.67578,8.77344 -49.11719,34.66014 -49.15625,68.99614 -0.004,2.5078 -0.0508,4.5117 -0.10547,4.457 -0.25,-0.2539 -1.59765,-7.6719 -1.96093,-10.8242 -3.24219,-28.0235 14.77343,-51.76566 49.79687,-65.62503 13.42969,-5.3125 26.25,-7.21094 37.84766,-5.59766 m -341.5,6.88281 c 42.33203,2.55079 72.03906,18.09378 106.62109,55.78518 13.68359,14.918 23.65234,24.125 32.40234,29.9414 1.64844,1.0937 2.89454,1.9883 2.77344,1.9883 -0.12109,0 -1.14453,-0.1641 -2.26953,-0.3633 -2.98437,-0.5313 -7.625,-1.082 -9.07422,-1.082 -2.10937,0 -9.74609,-4.0938 -18.39844,-9.8633 -8.52343,-5.6797 -14.53906,-10.5508 -26.6289,-21.5703 -13.88672,-12.6602 -19.86328,-17.5704 -28.28125,-23.2344 -34.22266,-23.04298 -71.09766,-27.53517 -106.06641,-12.9258 -5.09765,2.1289 -5.85547,2.4805 -10.71875,4.9453 -25.63281,13.0039 -45.375,31.2188 -66.02734,60.9219 -1.58985,2.2891 -4.35938,6.1875 -6.15625,8.6641 -1.79297,2.4804 -3.52344,4.9414 -3.84375,5.4726 -0.76172,1.2695 -0.85156,1.3164 -2.48047,1.3242 -3.38672,0.01 -12.46484,1.2618 -17.32422,2.3907 -2.52344,0.5898 -2.5039,0.664 -0.3789,-1.7266 0.98828,-1.1094 3.94921,-4.7188 6.58203,-8.0195 26.3789,-33.0938 61.63281,-65.0352 89.14843,-80.78519 16.35157,-9.35938 36.3125,-13.29688 60.1211,-11.86329 m 324.35547,3.63282 c 30.77343,2.85156 60.83593,23.33206 70.48437,48.01566 2.92188,7.4765 4.54297,15.664 6.25781,31.6093 0.47266,4.375 0.91016,8.1954 0.98047,8.4922 0.10547,0.4688 -0.0586,0.625 -1.14844,1.1094 -6.19531,2.7422 -17.82031,10.1641 -23.3789,14.9219 -0.76172,0.6523 -1.38672,1.1289 -1.38672,1.0547 0,-0.07 0.21875,-1.6055 0.48437,-3.4141 2.52735,-17.1914 2.13282,-30.1016 -1.33984,-44.1562 -7.68359,-31.0743 -36.54297,-53.30474 -65.44531,-50.41411 -19.52735,1.95312 -35.15235,13.07811 -44.45313,31.65231 -2.22656,4.4414 -2.34765,4.4688 -0.64453,0.1485 1.9336,-4.9024 5.36328,-11.1368 7.9336,-14.4258 12.94921,-16.56642 33.375,-26.28908 51.65625,-24.59376 m -326.04297,10.58593 c 23.77734,1.77344 46.53515,11.51563 68.22656,29.19923 3.66016,2.9844 7.32812,6.2148 16.11719,14.2031 14.14062,12.8555 23.42187,20.0196 34.17578,26.375 1.76953,1.043 3.125,1.9219 3.01562,1.9531 -0.11328,0.027 -1.77343,0.168 -3.69531,0.3125 -1.92187,0.1407 -4.91797,0.4336 -6.65234,0.6446 l -3.16016,0.3906 -1.51953,-1.0312 c -3.01953,-2.0508 -8.30078,-6.461 -22.07031,-18.4415 -34.33203,-29.8593 -55.17578,-42.0625 -79.375,-46.4726 -20.23047,-3.68751 -37.92188,-1.5703 -62.29297,7.4492 -5.71485,2.1133 -5.15235,1.9297 -4.56641,1.4922 0.26953,-0.2031 2.98047,-1.6172 6.02344,-3.1367 16.30859,-8.1563 28.38281,-11.76956 43.48437,-13.01565 2.3711,-0.19141 9.20704,-0.14844 12.28907,0.0781 m 322.43359,0.49219 c 20.71094,2.57031 41.76563,20.34766 49.00391,41.37116 4.03125,11.7109 5.78125,28.4336 4.25,40.6679 -1.63282,13.1016 -2.45703,16.0821 -5.27735,19.0391 -1.01172,1.0586 -2.63672,2.8476 -3.61718,3.9766 -0.97657,1.125 -1.85547,2.1367 -1.95313,2.2421 -0.0977,0.1094 -0.76172,-0.3711 -1.47656,-1.0664 -1.36328,-1.332 -3.67578,-2.9297 -5.57813,-3.8515 -1.34375,-0.6524 -1.3125,-0.4844 -0.44531,-2.4141 3.66016,-8.1055 6.08594,-22.707 5.35938,-32.293 -2.4375,-32.2109 -25.35547,-53.1718 -54.51954,-49.8672 -20.64453,2.3399 -36.93359,14.5274 -43.82031,32.7891 -1.10547,2.9219 -1.13281,2.8906 -0.5039,-0.4961 5.32812,-28.6836 22.98046,-47.10547 48.08984,-50.19141 1.65625,-0.19922 8.59766,-0.14062 10.48828,0.0937 m -325.52734,9.25391 c 25.83984,2.7695 47.16406,14.2265 81.41406,43.7461 15.16016,13.0664 19.125,16.4453 21.62109,18.4218 l 2.71094,2.1485 -4.54687,1.1367 c -2.50391,0.6289 -5.63672,1.5195 -6.96485,1.9805 l -2.41406,0.8359 -2.87891,-1.7422 c -9.73437,-5.8906 -18.01172,-13.1172 -31.76172,-27.7305 -3.62109,-3.8515 -6.86718,-7.1523 -7.20312,-7.332 -0.36719,-0.1953 -1.06641,-1.1445 -1.70703,-2.3242 -6.72656,-12.3359 -22.21094,-21.2266 -39.63281,-22.75 -1.78907,-0.1563 -3.44532,-0.3828 -3.67969,-0.5117 -0.27344,-0.1446 -1.10547,-0.1367 -2.28906,0.019 -1.02344,0.1328 -6.19922,0.2852 -11.5,0.3438 -6.62891,0.062 -9.86329,0.1835 -10.35157,0.3789 -0.39062,0.1562 -2.55859,0.4961 -4.8164,0.7539 -37.25391,4.2578 -67.13282,29.7773 -80.39453,68.664 -0.97266,2.8438 -0.82422,2.7071 -2.40235,2.2852 -3.98047,-1.0703 -11.35937,-2.1055 -17.14844,-2.4102 l -3.05468,-0.1601 2.71093,-3.7735 c 1.48829,-2.0742 4.32422,-6.0507 6.29688,-8.832 10.52344,-14.8633 17.74609,-23.5859 27.01953,-32.6523 7.41016,-7.2422 14.73047,-13.2383 16.94531,-13.875 1.35547,-0.3868 6.06641,-2.1446 11.09766,-4.1289 21.34766,-8.4336 34.56641,-11.9961 47.94922,-12.9375 2.53125,-0.1797 11.70703,0.098 14.98047,0.4453 m -201.253913,6.8984 c 31.265625,2.9219 39.558603,38.0195 12.566407,53.1914 l -0.960938,0.5391 1.1875,-2.1172 c 12.339844,-21.9805 -7.183594,-43.5781 -30.984375,-34.2695 -20.246094,7.914 -30.761719,34.6875 -20.324219,51.7421 1.152344,1.8829 1.539063,1.5586 -3.324218,2.8243 -2.234376,0.5781 -4.546876,1.2265 -5.132813,1.4375 -1.3125,0.4687 -1.125,0.6914 -2.867187,-3.3633 -14.300782,-33.2735 8.871093,-68.5547 46.105468,-70.1992 0.53125,-0.024 2.210938,0.074 3.734375,0.2148 m 209.410163,3.8555 c 4.53906,0.3828 9.84375,1.6054 14.76562,3.3984 1.89063,0.6875 1.60938,0.7774 -0.6914,0.2188 -30.04297,-7.3282 -60.82422,15.2265 -67.01954,49.1132 -4.85937,26.5821 10.60157,58.4649 33.78516,69.668 13.39453,6.4727 28.30469,6.7188 49.16016,0.8125 7.20312,-2.039 13.17968,-4.1211 35.0625,-12.207 19.92968,-7.3672 28.43359,-9.8477 40.24609,-11.7344 18.78125,-3 36.08984,-0.2109 46.20313,7.4531 1.85546,1.4024 4.625,4.4453 4.32031,4.75 -0.0547,0.055 -1.55078,0.4805 -3.32422,0.9453 -9.61719,2.5352 -21.41016,7.2852 -29.48828,11.8829 l -2.65235,1.5117 -1.92968,-0.4297 c -1.39063,-0.3125 -2.89453,-0.4258 -5.41797,-0.4141 -6.52344,0.031 -13.86719,1.3164 -25.90625,4.5352 -3.16797,0.8476 -13.03906,4.0234 -18.79688,6.043 -35.96093,12.6367 -50.22656,15.8828 -66.03906,15.0273 -24.76172,-1.332 -52.17187,-18.0352 -62.85547,-38.3047 -16.89062,-32.0391 -5.82812,-84.3633 21.6875,-102.5976 7.07422,-4.6876 17.17969,-8.1251 29.35156,-9.9805 0.86329,-0.1328 6.51172,0.051 9.53907,0.3086 m 316.16015,1.789 c 13.95313,2.2149 25.17578,10.9375 31.92188,24.8125 7.12109,14.6524 7.76953,29.5235 2.07812,47.6914 -1.875,5.9766 -1.8789,5.9844 -5.11718,4.7852 -1.3711,-0.5039 -3.51172,-1.2383 -4.75391,-1.625 -2.47656,-0.7773 -2.6875,-0.9883 -2.13281,-2.1562 2.64062,-5.5313 3.16015,-21.6016 0.98828,-30.4649 -4.44922,-18.1641 -20.66016,-30.2461 -39.3711,-29.3516 -18.0664,0.8672 -31.30859,12.8321 -39.05468,35.2969 l -1.22657,3.543 0.12891,-4.457 c 0.39063,-13.3086 4.1875,-23.3125 12.42578,-32.7422 9.92969,-11.3672 28.48047,-17.8164 44.11328,-15.3321 m -368.11328,4.7696 c -19.26562,11.4922 -32.6914,25.8242 -42.03515,44.8711 -11.16407,22.7695 -14.21875,47.5429 -8.40235,68.1406 2.85156,10.0859 6.29297,17.1211 14.29688,29.2461 l 3.96093,5.9922 -8.23828,0.164 c -7.55078,0.1524 -8.26562,0.1289 -8.55078,-0.2422 -0.71484,-0.9179 -4.65234,-9.2539 -5.42969,-11.4882 -1.6289,-4.6836 -2.35546,-6.4805 -4.96484,-12.2461 -5.51953,-12.2032 -6.22656,-17.5039 -4.33594,-32.4532 6.01953,-47.5703 29.57032,-81.0585 65.89063,-93.6914 1.41015,-0.4922 1.125,-0.2695 -2.19141,1.7071 m 61.23047,0.031 c 12.71094,2.2656 25.66406,9.9297 28.28516,16.7344 4.66797,12.0977 1.2539,23.7109 -9.07813,30.9141 l -1.03125,0.7187 0.82031,-1.2812 c 16.02344,-25.086 -19.88281,-44.7657 -47.67187,-26.1329 -8.19922,5.504 -14.6875,15.6641 -16.71875,26.1915 -6.41406,33.2851 19.56641,61.8515 51.18359,56.2695 7.57422,-1.336 14.46485,-3.9141 39.63672,-14.836 22.54297,-9.7812 34.58985,-13.8632 46.86719,-15.8867 29.51562,-4.8633 62.69141,6.6524 75.57031,26.2383 1.53516,2.332 1.53906,2.3203 -0.68359,2.5195 -2.74219,0.2422 -9.72266,1.2735 -13.25391,1.961 -2.8164,0.5429 -3.09375,0.5586 -3.3164,0.2031 -2.26563,-3.6992 -2.92969,-4.457 -5.75391,-6.5781 -11.89844,-8.9414 -32.46094,-11.7188 -54.37109,-7.3438 -11.20313,2.2422 -19.50391,4.8828 -44.94141,14.3125 -33.08594,12.2617 -47.03516,14.9571 -61.69922,11.918 -5.16797,-1.0742 -13.50391,-4.6953 -15.86328,-6.8945 -0.26563,-0.2461 -0.56641,-0.4493 -0.67188,-0.4493 -1.14843,0 -9.59375,-8.2968 -12.80468,-12.5742 -19.42578,-25.8945 -18.10157,-58.2422 3.29297,-80.375 12.09375,-12.5117 27.5625,-18.2422 42.20312,-15.6289 m -59.19141,7.0664 c -17.8164,18.2266 -26.5625,52.8164 -20.67578,81.8086 4.38282,21.586 16.13672,36.7305 37.57422,48.3985 18.66406,10.1562 35.69531,12.9101 56.38672,9.1093 7.72266,-1.4179 13.39453,-2.8711 23.76953,-6.0976 4.78906,-1.4883 8.11719,-2.6172 21.05469,-7.1328 20.61328,-7.1953 33.16406,-10.3282 44.02344,-10.9844 3.20703,-0.1953 3.45312,0 1.57812,1.2383 -4.41797,2.9179 -12.11719,9.1445 -16.48047,13.3281 l -2.64062,2.5273 -1.375,-0.4492 c -2.86719,-0.9414 -9.44141,-0.7226 -15.64453,0.5235 -6.25391,1.25 -11.32032,2.8554 -26.92969,8.5156 -24.06641,8.7265 -34.27344,11.332 -45.90625,11.7344 -29.01953,0.9961 -66.68359,-21.5391 -79.85156,-47.7774 -14.30078,-28.5078 -6.70703,-74.8633 16.05859,-98.0117 3.51953,-3.5742 10.58203,-9.3203 11.46094,-9.3203 0.0703,0 -1.00781,1.164 -2.40235,2.5898 m -160.742186,1.9688 c 11.085937,3.2226 16.746093,14.3633 12.960937,25.4844 -0.542969,1.6015 -2.445313,5.5039 -2.210937,4.539 1.875,-7.6562 -0.210938,-13.2148 -5.828126,-15.5547 -8.664062,-3.6093 -19.015624,2.2422 -21.511718,12.1563 -1.707032,6.789 0.972656,16.4258 5.757812,20.7226 0.828125,0.7422 0.675782,0.793 -2.921875,0.9688 -4.316406,0.207 -9.503906,0.7344 -13.554687,1.375 -1.722656,0.2695 -3.566406,0.5469 -4.097656,0.6133 l -0.960938,0.1172 -1.515625,-2.504 c -1.644531,-2.7226 -2.738281,-5.2851 -3.316406,-7.7851 -4.855469,-20.9414 18.082031,-45.6875 37.199219,-40.1328 m 519.246096,4.3203 c 20.55078,4.5703 31.52344,23.7109 27.4375,47.8711 -0.20312,1.1914 -0.48047,2.875 -0.625,3.7344 -0.58203,3.5781 -1.03516,4.5546 -1.88672,4.1015 -0.41797,-0.2265 -5.42969,-1.3476 -7.97265,-1.789 l -0.85938,-0.1485 0.21875,-1.2617 c 2.63281,-15.1953 -8.71094,-32.9023 -23.57422,-36.793 -13.91406,-3.6484 -27.4375,3.3594 -37.10937,19.2305 -1.27344,2.0898 -1.28125,1.625 -0.0234,-2.1641 8.04687,-24.3281 25.25781,-37.0351 44.39453,-32.7812 m -299.78516,4.9687 c 15.51563,2.5196 22.83594,12.9414 16.98438,24.1797 l -0.71875,1.3711 0.17578,-1.0859 c 3.96875,-24.4688 -28.57812,-27.5547 -39.83594,-3.7735 -5.66797,11.9727 -1.48047,28.6485 8.92578,35.5782 1.0625,0.707 2.47266,1.7383 3.13282,2.2968 8.97656,7.5625 21.4414,8.4297 35.73047,2.4922 3.64062,-1.5156 10.375,-4.8789 17.76562,-8.8828 20.52344,-11.1094 31.32031,-15.4219 47.60547,-19.0117 31.07422,-6.8594 59.67578,1.0352 84.17187,23.2266 7.40235,6.707 14.53907,19.1523 14.61329,25.4882 0,0.1016 -1.75782,0.1875 -3.91016,0.1915 -2.15625,0.01 -5.32813,0.1015 -7.05078,0.2148 -1.72266,0.1094 -3.16406,0.1211 -3.19922,0.023 -0.77734,-1.9961 -3.78125,-6.2851 -6.66016,-9.5039 -17.91015,-20.0312 -52.20703,-28.7422 -83.51953,-21.2109 -11.5,2.7695 -21.16406,6.3476 -44.21875,16.3789 -30.09765,13.0977 -38.05469,15.1172 -49.75,12.6133 -27.37109,-5.8594 -40.90234,-40.9141 -25.05859,-64.9141 7.39062,-11.1953 21.96484,-17.7539 34.8164,-15.6719 m 45.8711,14.5899 c 8.03906,7.9922 13.24219,12.3672 20.42578,17.168 l 3.65234,2.4414 -3.53125,1.3711 c -3.27343,1.2734 -5.27343,2.1132 -8.75,3.6796 l -1.36328,0.6133 -2.49609,-2.1094 c -6.3711,-5.3945 -15.96875,-12.871 -19.76953,-15.3984 l -1.61719,-1.0781 0.50391,-0.9883 c 1.96484,-3.8555 3,-11.6016 2.14062,-16.0469 l -0.20703,-1.0664 2.53906,2.7539 c 1.39844,1.5157 5.21094,5.4102 8.47266,8.6602 m -262.093755,-6.0781 c 3.964843,1.7578 5.554687,6.3711 3.921875,11.4101 l -0.441406,1.3594 -0.765626,-0.7656 c -0.84375,-0.8477 -2.21875,-1.3516 -3.648437,-1.3438 -5.589844,0.031 -7.589844,8.7539 -4.070313,17.7266 l 0.796876,2.0273 -3.445313,-0.01 -1.847656,-1.7812 c -7.875,-7.6094 -9.511719,-16.9102 -4.203125,-23.9219 3.386718,-4.4766 9.484375,-6.5664 13.703125,-4.7031 m 219.324225,0.414 c 5.89843,1.2461 9.3164,5.6406 9.28125,11.9258 -0.008,1.5352 -0.0156,1.5547 -0.39844,0.9648 -4.75391,-7.3515 -16.63281,-10.0312 -24.36719,-5.5 -2.35937,1.3829 -5.78906,5.0313 -7.10547,7.5508 -1.375,2.6328 -1.22656,1.5782 0.20703,-1.4883 4.22266,-9.0546 14.3711,-15.1523 22.38282,-13.4531 m 192.41797,9.086 c 1.12109,9.9453 -6.17579,21.0351 -20.12891,30.6093 l -1.95703,1.3438 -2.6211,-2.0977 c -5.1875,-4.1523 -11.23046,-8.0234 -17.32031,-11.0937 l -3.61328,-1.8242 6.38672,-0.01 c 20.60937,-0.023 36.54297,-8.414 38.20312,-20.1132 l 0.1875,-1.3243 0.3125,1.2032 c 0.17579,0.664 0.42188,2.1484 0.55079,3.3047 m 95.32812,-3.7227 c 12.38672,3.4336 21.97266,16.3906 21.86328,29.5547 -0.0351,4.7539 -0.10156,4.9726 -1.32031,4.5391 -0.9375,-0.336 -6.76563,-0.7735 -10.33984,-0.7774 h -2.56641 l -0.26172,-1.7461 c -2.58594,-17.5312 -19.34375,-27.1328 -34.20703,-19.5976 -1.74219,0.8789 -1.72266,0.789 0.30859,-1.4649 8.45703,-9.3906 17.54688,-12.9883 26.52344,-10.5039 m -87.33984,8.1211 c 3.45312,6.9141 4.45312,11.1953 4.42968,19.0469 -0.0351,12.6172 -3.78906,21.3593 -13.99609,32.5937 -2.20312,2.418 -1.98828,2.4258 -2.85547,-0.1211 -2.14453,-6.3242 -6.73828,-13.3789 -12.53906,-19.25 l -1.9375,-1.957 1.09375,-0.6914 c 9.29687,-5.8828 18.07031,-15.7539 20.59375,-23.1797 1.27734,-3.7578 1.82812,-11.1484 0.99609,-13.4219 -0.47656,-1.2929 2.73828,4.0274 4.21485,6.9805 m 16.60547,5.9141 c 11.02734,14.2382 14.22656,27.3086 10.65625,43.4961 l -0.42579,1.9257 -4.20703,2.8438 c -2.3164,1.5664 -5.45312,3.6133 -6.98047,4.5547 -1.52343,0.9453 -3.38671,2.1211 -4.14843,2.6172 -1.28907,0.8437 -1.4375,0.8867 -2.34766,0.6562 l -0.97266,-0.2461 2.10938,-2.2109 c 15.52344,-16.2696 14.89844,-38.1914 -1.73828,-61.3477 -0.8086,-1.1289 -1.5586,-2.2109 -1.66797,-2.4101 -0.48828,-0.9024 8.14453,8.082 9.72266,10.1211 m -220.125,-9.4961 c 5.64843,1.3398 10.27734,6.4257 9.64843,10.6015 -0.1875,1.2657 -0.125,1.2539 -1.49218,0.3125 -4.75391,-3.2734 -13.88282,-6.2929 -19.14063,-6.3359 l -2.79687,-0.023 0.35156,-0.543 c 2.1914,-3.3594 8.38672,-5.211 13.42969,-4.0117 m 210.07031,6.0547 c 10.45703,15.6679 13.52734,29.8515 8.93359,41.246 -2.21094,5.4922 -6.3164,11.5313 -10.20703,15.0118 -0.92187,0.8242 -1.67578,1.6562 -1.67578,1.8476 0,0.2696 -0.23828,0.3125 -1.14063,0.1875 -1.76562,-0.2422 -8.11718,-0.8398 -10.72656,-1.0078 -2.64453,-0.1719 -3.15625,-0.707 -1.68359,-1.7539 1.8164,-1.293 8.73828,-9.5352 11.3164,-13.4766 8.23438,-12.5742 9.61329,-29.5078 3.56641,-43.7578 -0.59375,-1.3984 -0.12109,-0.9023 1.61719,1.7032 m -177.82422,0.8359 c 3.87109,2.6133 13.18359,9.9492 19.30469,15.207 l 0.94531,0.8086 -4.67969,2.4141 c -2.57422,1.3242 -6.69531,3.5117 -9.15625,4.8594 -2.46484,1.3476 -4.59765,2.4492 -4.74609,2.4492 -0.14453,0 -3.22656,-2.6836 -6.84375,-5.9688 -3.625,-3.2812 -7.41797,-6.6914 -8.42969,-7.5742 l -1.84766,-1.6055 1.96485,-1.1054 c 3.71484,-2.086 7.78906,-5.543 10.44531,-8.8672 1.53906,-1.9258 1.20703,-1.8594 3.04297,-0.6172 m -39.23047,1.8672 c 4.04297,0.8594 9.76172,3.2031 13.08203,5.3672 l 1.52344,0.9843 -0.83203,0.8711 c -3.22266,3.375 -1.04688,5.7032 3.82812,4.0899 l 2.26563,-0.7539 2.47656,2.1367 c 2.375,2.0547 12.55859,11.2305 14.02734,12.6445 l 0.71094,0.6836 -2.75781,1.2891 c -1.51563,0.707 -3.49219,1.5937 -4.38672,1.9726 l -1.625,0.6836 -2.59766,-2.6289 c -10.66015,-10.7734 -22.07421,-16.7461 -32.74609,-17.1367 l -3.65234,-0.1328 -0.10547,-1.1133 c -0.21875,-2.3594 0.625,-7.6719 1.33984,-8.3945 0.98438,-0.9883 6.01953,-1.2891 9.44922,-0.5625 m 285.43359,0.3984 c 6.08204,1.1641 12.59766,7.125 14.82813,13.5586 0.34766,1.0117 0.74609,2.043 0.87891,2.293 0.13281,0.25 0.30078,1.2304 0.37109,2.1797 l 0.12891,1.7265 -3.22266,0.3164 c -2.94141,0.2852 -6.79688,0.8125 -8.07031,1.1055 -0.5,0.1133 -0.51563,0.023 -0.63672,-3.0703 -0.29688,-7.6289 -4.24219,-14.5859 -9.86328,-17.3984 -1.65235,-0.8282 -1.65625,-0.8282 -0.86719,-0.961 2.21094,-0.3633 3.52344,-0.3125 6.45312,0.25 m 155.07032,13.2735 c -43.28516,2.6679 -75.83594,30.3203 -84.44922,71.7382 -2.32422,11.168 -3.31641,28.5352 -2.23047,38.9493 0.50391,4.8046 0.21875,4.3359 2.61719,4.3359 h 2.04687 l -0.1289,-0.6641 c -1.42188,-7.2148 -1,-26.2422 0.83593,-37.4101 8.4375,-51.4024 53.17969,-80.9727 107.69532,-71.1758 28.70703,5.1601 63.63671,24.3242 85.43359,46.8828 5.40625,5.5898 10.28516,12.4922 14.33203,20.2734 l 0.83984,1.6211 0.0664,-4.0195 0.0664,-4.0234 -1.39063,-2.2813 c -0.76562,-1.2539 -1.60937,-2.6445 -1.875,-3.0898 -7.23047,-12.0821 -27.76953,-29.461 -48.43359,-40.9844 -26.60547,-14.8398 -51.91797,-21.6055 -75.42578,-20.1523 m -442.33594,0.9335 c 6.97656,1.5508 15.51953,6.6602 22.75391,13.6094 3.63671,3.5 3.5664,3.1524 0.82421,3.8008 -13.09375,3.0977 -23.16406,-1.1055 -29.49609,-12.3086 -0.63672,-1.125 -2.25391,-5.1445 -2.25391,-5.6055 0,-0.4414 5.38672,-0.1132 8.17188,0.5039 m -131.30859,2.0469 c 5.70703,0.3555 15.70703,1.9492 16.45312,2.6289 0.10156,0.09 -0.19531,1.5508 -0.66016,3.2461 -0.46484,1.6953 -1.19531,4.6485 -1.625,6.5625 -0.63281,2.8164 -0.85546,3.461 -1.15234,3.3594 -0.19922,-0.07 -1.13672,-0.3984 -2.07812,-0.7305 -5.75782,-2.039 -18.33594,-2.039 -28.02735,0 l -2.7539,0.5781 -2.89063,-1.9609 c -3.79687,-2.5742 -8.58203,-5.4531 -11.65625,-7.0117 -1.36328,-0.6914 -2.47656,-1.3242 -2.47656,-1.4063 -0.008,-0.914 16.67578,-4.3945 24.09375,-5.0234 5.98437,-0.5117 7.85547,-0.5469 12.77344,-0.2383 m 444.48046,7.2188 c 17.03516,0.9843 39.13672,7.7968 43.39844,13.3828 l 0.625,0.8203 -1.9375,2.7187 c -1.0664,1.4961 -2.82812,4.2032 -3.91406,6.0235 l -1.97266,3.3047 -1.5,-1.3789 c -8.51953,-7.8008 -35,-11.75 -54.21875,-8.086 -9.51562,1.8164 -16.96484,4.8985 -29.27734,12.1289 -8.28125,4.8594 -15.94531,8.7071 -20.12891,10.1055 l -3.125,1.043 -3.16797,-1.4571 c -3.28125,-1.5117 -9.46484,-3.9023 -10.08984,-3.9023 -0.70312,0 -0.33984,-0.4297 1.14844,-1.3438 0.82812,-0.5117 5.46094,-3.5429 10.30078,-6.7382 14.875,-9.8243 19.92578,-12.8633 27.83203,-16.7383 15.14063,-7.418 30.71484,-10.7617 46.02734,-9.8828 m 121.45313,7.7422 c -26.64844,2.5351 -48.07031,20.4257 -56.03516,46.7968 -4.38281,14.5157 -5.07031,29.4922 -2.25781,49.1407 l 0.16016,1.1445 h 2.01562 c 1.10938,0 2.01563,-0.09 2.01563,-0.207 0,-0.1133 -0.21094,-1.6016 -0.47266,-3.3125 -4,-26.2149 0.40234,-49.5313 12.38281,-65.5938 19.8711,-26.6445 53.25,-31.1758 99.1836,-13.4609 30.4375,11.7383 65.78125,46.0234 76.66015,74.3554 l 1.05078,2.7461 0.0664,-5.0937 0.0664,-5.0899 -0.75782,-1.5117 c -11.13671,-22.1875 -36.5625,-48.1015 -60.9414,-62.1133 -20.23828,-11.6289 -53.33985,-19.6836 -73.13672,-17.8007 m -560.03125,2.9765 c 4.55859,0.7969 6.73437,1.7969 6.53516,3 -0.0781,0.4727 -0.36329,2.4336 -0.63282,4.3555 -0.78125,5.5312 -0.67578,5.1289 -1.27734,4.9531 -3.00391,-0.8789 -8.24609,-1.1367 -12.11328,-0.5976 l -1.86328,0.2578 -2.19141,-2.1407 c -2.97266,-2.9023 -5.16016,-4.8945 -7.78515,-7.0898 -2.50782,-2.1055 -2.63672,-1.8711 1.37499,-2.4805 6.03125,-0.9101 13.60157,-1.0195 17.95313,-0.2578 m 445.20312,8.9141 c 13.10938,1.543 24.33594,5.457 27.20704,9.4883 l 0.52343,0.7382 -0.76562,1.5157 c -0.42188,0.8359 -1.13672,2.3867 -1.58594,3.4453 -0.45312,1.0625 -1,2.3281 -1.21094,2.8164 l -0.38672,0.8867 -1.39843,-0.707 c -12.6211,-6.3711 -34.30078,-7.2735 -50.53907,-2.1094 -6.16015,1.957 -12.66015,4.7578 -26.90625,11.5859 -7.8789,3.7735 -7.10156,3.5586 -8.625,2.4102 -2.59765,-1.957 -4.96093,-3.5859 -7.80078,-5.375 l -2.93359,-1.8516 2.33203,-0.9023 c 5.13281,-1.9961 12.69141,-5.9883 22.80469,-12.0469 14.60156,-8.7461 31.01562,-12.043 49.28515,-9.8945 m 129.52344,5.3086 c -16.55469,2.3554 -32.33984,13.5664 -41.19922,29.2617 -7.6289,13.5156 -9.71484,30.668 -5.86328,48.2695 l 0.51563,2.3516 h 4.24609 l -0.21875,-0.5742 c -1.90234,-5.0117 -2.94141,-20.4336 -1.85937,-27.6836 3.67578,-24.668 20.52343,-42.9219 43.78125,-47.4414 23.89453,-4.6367 67.875,17.3554 92.58593,46.3008 9.00782,10.5468 14.10547,17.8789 18.73047,26.9296 l 1.26172,2.4688 h 2.14453 c 1.1836,0 2.14844,-0.074 2.14844,-0.1602 0,-1.1836 -7.04297,-13.5 -10.44922,-18.2734 -19.50781,-27.3516 -46.43359,-47.6172 -76.94141,-57.9102 -10.0625,-3.3945 -20.71093,-4.6992 -28.88281,-3.539 m -572.72265,0.9804 c 0.83593,0.1915 1.80859,0.4961 2.16015,0.6797 l 0.64063,0.336 -0.0586,2.9765 c -0.10156,4.7149 -0.17187,5.0274 -1.09375,4.7618 -0.41406,-0.1172 -1.32422,-0.2188 -2.02343,-0.2188 h -1.26954 l -1.14062,-1.4805 c -0.63281,-0.8164 -2.20313,-2.7656 -3.5,-4.332 -2.15625,-2.6094 -2.30469,-2.8594 -1.80469,-2.9727 1.82031,-0.4101 5.67969,-0.289 8.08985,0.25 m 445.88671,10.5977 c 6.4961,0.7969 13.42579,2.5625 17.33204,4.4141 2.30859,1.0937 2.3789,1.3281 1.35546,4.5156 -0.46875,1.4453 -1.19921,3.9258 -1.6289,5.5156 -0.42969,1.5899 -0.80469,2.9258 -0.83203,2.961 -0.0274,0.035 -0.61328,-0.3165 -1.30469,-0.7774 -3.29297,-2.2187 -10.83594,-3.3594 -18.44922,-2.793 -9.97656,0.7422 -16.05078,2.2344 -34.82422,8.5391 l -12.41015,4.1641 -3.25391,-2.9805 c -1.78906,-1.6406 -4.25391,-3.8164 -5.48047,-4.8359 -2.42187,-2.0196 -2.49219,-2.1133 -1.6875,-2.3633 0.30078,-0.098 4.67578,-2.1602 9.72656,-4.586 23.26953,-11.1757 34.8125,-13.8203 51.45703,-11.7734 m 124.78907,0.1172 c -12.16016,1.668 -22.9375,9.1133 -27.71875,19.1484 -6.97266,14.6485 -1.29688,33.793 14.04687,47.3867 l 1.8711,1.6524 h 3.85156 c 4.375,0 4.44531,-0.035 2.22265,-1.2383 -13.51171,-7.293 -23.48437,-27.4453 -20.08203,-40.5703 4.94141,-19.0273 26.15625,-27.375 49.42578,-19.4414 21.00782,7.1641 44.29688,28.4492 61.20313,55.9492 1.10156,1.7891 2.28125,3.7149 2.62891,4.2774 l 0.6289,1.0234 h 2.35156 c 2.8711,0 2.85938,0.3125 0.14063,-4.1836 -19.95313,-32.9688 -45.71094,-56.0117 -69.67578,-62.3359 -6.2461,-1.6524 -15.58203,-2.3985 -20.89453,-1.668 m -568.69141,1.8047 c 0.58984,0.3047 0.71094,0.5156 0.71094,1.2461 0,0.4804 -0.0352,0.832 -0.082,0.7773 -0.47266,-0.582 -1.59375,-2.3906 -1.48438,-2.3906 0.082,0 0.46485,0.1641 0.85547,0.3672 m -57.320315,9.0469 c 10.492195,3.4414 28.144535,17.0429 40.628905,31.3125 1.80079,2.0507 3.53907,4.0273 3.86719,4.3906 0.45703,0.4961 0.51953,0.6797 0.26172,0.7617 -5.20703,1.6367 -7.00391,2.2539 -9.29297,3.1797 l -2.7539,1.1133 -1.13282,-1.0586 c -2.43359,-2.2657 -6.88671,-5.6914 -14.35937,-11.0391 -4.34375,-3.1094 -14.29688,-8.6758 -15.51563,-8.6758 -0.207032,0 -0.300782,-0.4336 -0.300782,-1.3906 0,-4.6445 -1.570312,-11.7266 -3.71875,-16.7539 -0.605468,-1.418 -1.101562,-2.6328 -1.101562,-2.6992 0,-0.1836 1.015625,0.07 3.417969,0.8594 m 631.472655,6.6367 c -12.17578,2.1992 -19.72656,10.9726 -19.37109,22.5039 0.52734,17.1015 17.81641,24.2304 29.375,12.1172 1.65625,-1.7383 3.60156,-4.668 4.19531,-6.3164 0.23828,-0.6719 0.51172,-1.2188 0.60547,-1.2188 0.44141,0 4.45703,4.9766 6.08203,7.5313 3.03125,4.7734 3.65625,6.8086 3.65625,11.9257 v 4.1563 h 3.9375 l 0.17188,-1.6094 c 0.77734,-7.2422 -1.26172,-13.2578 -6.96094,-20.5625 -1.66406,-2.1289 -6.17578,-6.7422 -6.86328,-7.0078 -1.03516,-0.4023 -2.45703,0.707 -2.45703,1.9258 0,0.2695 -0.21485,0.6055 -0.48047,0.75 -0.26563,0.1406 -1.01563,1.3633 -1.66797,2.7148 -5.59766,11.6563 -18.76172,12.9492 -23.81641,2.3438 -7.41796,-15.5664 8.45704,-29.7735 27.32813,-24.461 13.83594,3.8985 27.04687,20.5782 32.26172,40.7266 0.48047,1.8555 0.97656,3.7773 1.10547,4.2773 l 0.23437,0.9024 h 2.17188 c 1.96093,0 2.16406,-0.043 2.05468,-0.4219 -0.0664,-0.2305 -0.62109,-2.3711 -1.23437,-4.7578 -2.6875,-10.4336 -5.12109,-16.0117 -10.63672,-24.3906 -10.64062,-16.1563 -24.98047,-23.7891 -39.69141,-21.1289 m -124.74218,0.2226 c 4.59375,0.6524 6.94922,1.4766 8.82812,3.0977 l 0.9961,0.8594 -0.33204,1.582 c -0.18359,0.8711 -0.60156,3.4375 -0.92968,5.7031 -0.70313,4.8477 -0.47266,4.4063 -1.94532,3.6797 -8.95703,-4.4023 -37.58984,-1.7031 -49.94921,4.7109 l -1.76172,0.918 -1.00782,-1.1133 c -0.55468,-0.6172 -2.43359,-2.6406 -4.17578,-4.5039 l -3.16797,-3.3906 10.51954,-3.5391 c 16.64843,-5.6015 22.36328,-7.0742 31.96093,-8.2148 2.02344,-0.2422 8.6875,-0.1133 10.96485,0.2109 m -137.83985,5.9297 c -31.85937,1.332 -56.01172,13.8086 -72.85937,37.6406 -5.27344,7.4532 -5.06641,6.9102 -2.625,6.8985 l 1.86719,-0.012 2.28906,-3.2969 c 18.03515,-26.0039 43.13672,-38.2344 78.19531,-38.1016 7.59375,0.027 7.60547,0.035 1.87891,0.9375 -22.41016,3.5352 -45.39844,17.5078 -61.85547,37.586 -2.48828,3.0351 -2.46875,2.8945 -0.42578,2.8945 h 1.64453 l 0.82031,-1.0234 c 24.76953,-30.879 63.58203,-45.0196 95.28906,-34.7188 17.03125,5.5313 34.45703,17.4531 47.04688,32.1875 1.03125,1.2031 2.14453,2.5 2.47265,2.8828 0.59375,0.6797 0.64844,0.6953 2.73829,0.625 l 2.1289,-0.07 -2.59375,-3.1367 c -23.92187,-28.8711 -56.64453,-42.9453 -96.01172,-41.293 m 136.6836,10.9297 c 4.35547,0.5781 7.30078,1.6953 8.23828,3.1289 0.36328,0.5547 0.18359,11.7344 -0.19531,12.1172 -0.043,0.043 -0.60938,-0.2305 -1.25391,-0.6094 -7.86719,-4.6094 -26.63672,-3.9883 -39.1875,1.2969 -0.79297,0.3281 -1.46094,0.5703 -1.48438,0.5312 -0.32421,-0.5546 -4.07812,-5.4804 -5.60546,-7.3671 -2.39844,-2.9454 -2.36329,-2.4493 -0.23829,-3.5118 8.50391,-4.2617 28.50391,-7.0742 39.72657,-5.5859 m -501.2461,1.8203 c 5.08204,2.5391 13.28516,8.0938 20.89454,14.1445 1.89843,1.5118 3.40625,2.7969 3.34765,2.8555 -0.0625,0.059 -2.05078,1.0664 -4.42187,2.2383 -2.3711,1.1719 -5.33594,2.6914 -6.58985,3.375 l -2.27343,1.2422 -1.69922,-1.6563 c -3.69532,-3.6054 -8.582039,-7.0234 -12.97657,-9.082 -1.953125,-0.9102 -2.535156,-1.2891 -2.421875,-1.5625 1.40625,-3.3281 2.972656,-9.75 2.972656,-12.1875 0,-0.957 -0.02734,-0.9648 3.167969,0.6328 m 388.54297,4.4766 c -24.25781,1.9179 -39.26953,8.957 -52.33203,24.5351 -2.45703,2.9297 -2.46484,2.7852 0.0977,2.7774 l 2.10937,-0.01 0.84375,-1.1368 c 10.96875,-14.8125 33.73438,-23.7812 58.67578,-23.1132 20.10547,0.5429 34.5,6.7148 49.42188,21.1953 l 3.17187,3.0703 h 2.07813 c 2.69531,0 2.78125,0.1953 -2.07813,-4.6484 -13.46875,-13.4375 -26.17968,-19.7735 -44.64062,-22.25 -2.54688,-0.3438 -14.63281,-0.6368 -17.34766,-0.4219 m 111.19922,9.4883 c 7.26172,1.4804 9.69141,3.4531 10.10156,8.2148 0.27735,3.25 0.41016,2.9844 -1.1289,2.2461 -6.64453,-3.1797 -19.78125,-1.9609 -31.06641,2.8828 l -1.98047,0.8516 -1.375,-2.461 c -0.75781,-1.3515 -2.1289,-3.6875 -3.04687,-5.1953 -1.9375,-3.1758 -2.07032,-2.832 1.58203,-4 9.23828,-2.957 19.92578,-3.9648 26.91406,-2.539 m -431.82031,5.6992 c -12.02344,0.7969 -21.87891,2.5508 -33.03516,5.875 -6.1875,1.8437 -15.64062,5.5 -15.64062,6.0508 0,0.1171 2.44922,0.207 5.44922,0.207 h 5.45312 l 3.75781,-1.2149 c 26.72657,-8.6523 51.02344,-8.621 73.92188,0.1016 l 2.91797,1.1133 h 4.49218 c 2.47266,0 4.49219,-0.082 4.49219,-0.1836 0,-0.1055 -1.10937,-0.8047 -2.46875,-1.5625 -12.6289,-7.0195 -33.59375,-11.4336 -49.33984,-10.3867"
         fill-opacity="1"
         fill-rule="evenodd"
         id="path346" />
    </g>
  </g>
</svg>
